<svg id="Layer_1" data-name="Layer 1" xmlns="http://www.w3.org/2000/svg" viewBox="0 0 169.39 269.57"><defs><style>.cls-1{fill:#d1aea1;}.cls-2{fill:#e5d389;}.cls-3{fill:#efd154;}.cls-4{fill:#506835;}.cls-5{fill:#759b51;}.cls-6{fill:#e5d2cc;}.cls-7{fill:#d8c4bc;}.cls-10,.cls-14,.cls-8,.cls-9{fill:none;}.cls-14,.cls-8{stroke:#76797d;}.cls-10,.cls-14,.cls-8{stroke-miterlimit:10;}.cls-10,.cls-8{stroke-width:2px;}.cls-10{stroke:#687787;}.cls-11{fill:#e0e0df;}.cls-12{fill:#ccd1d0;}.cls-13{fill:#a5a8a7;}.cls-14{stroke-width:5px;}</style></defs><title>beach</title><path class="cls-1" d="M166,128.73v5.94H62.24a11.08,11.08,0,0,1-.38-1.61,3.31,3.31,0,0,0-.93-1.72c.24-.46.46-.92.65-1.38a3.44,3.44,0,0,0,.23-1.23Z" transform="translate(-3.53 0)"/><path class="cls-2" d="M159.75,86.35a23.75,23.75,0,0,1-47.5,0h0A23.74,23.74,0,0,1,136,62.61h0A23.75,23.75,0,0,1,159.75,86.35Z" transform="translate(-3.53 0)"/><path class="cls-3" d="M136,56.68a29.68,29.68,0,1,1-29.68,29.68A29.68,29.68,0,0,1,136,56.68Zm0,53.43a23.75,23.75,0,0,0,0-47.5h0a23.74,23.74,0,0,0-23.73,23.75h0A23.75,23.75,0,0,0,136,110.11Z" transform="translate(-3.53 0)"/><path class="cls-4" d="M117.29,44.47a3,3,0,0,1-3,3H93.46l2.42,2.43a29,29,0,0,1,5.44,33.49A2.93,2.93,0,0,1,99.15,85a3.84,3.84,0,0,1-.48,0,3,3,0,0,1-2.08-.87L69,56.73a224.83,224.83,0,0,1-28.56,87.84l-8.4,2.6c.84-1.37,1.67-2.74,2.47-4.13h0A217.13,217.13,0,0,0,58.15,84.46h0a215.84,215.84,0,0,0,5.37-33.23l-2.59-2.54-3.41,3.4a166.94,166.94,0,0,1-8.21,41.33h0A166.71,166.71,0,0,1,22.88,142.8q-1.81,2.37-3.74,4.66a.77.77,0,0,1-1.08.1l-3.88-3.2c.61-.74,1.21-1.49,1.8-2.24L20,137A160.78,160.78,0,0,0,51,58.56L25.27,84.12a3,3,0,0,1-2.09.87,3.84,3.84,0,0,1-.48,0,3,3,0,0,1-2.18-1.6,29,29,0,0,1,5.4-33.49l2.43-2.43H7.52a3,3,0,0,1-2.85-3.9A29,29,0,0,1,32.2,23.73h3.89L21.26,8.82A3.17,3.17,0,0,1,20.67,8,2.94,2.94,0,0,1,22,4.07h0A29,29,0,0,1,55.52,9.51l2.88,2.83a28.06,28.06,0,0,1,2.55,3,30.58,30.58,0,0,1,2.57-3l2.8-2.83a29,29,0,0,1,33.5-5.44,3.53,3.53,0,0,1,.77.56,3,3,0,0,1,0,4.19L85.77,23.73h3.85a29,29,0,0,1,27.53,19.88A3.16,3.16,0,0,1,117.29,44.47ZM85.23,41.54H109.8A23,23,0,0,0,89.61,29.67h-4a23,23,0,0,0-18.76,9.67A28.9,28.9,0,0,1,85.23,41.54ZM97.58,76.77A23,23,0,0,0,91.71,54.1l-2.84-2.84a22.89,22.89,0,0,0-22.65-5.67l31.3,31.18Zm-22-51.23L93.2,7.84a23,23,0,0,0-22.68,5.87l-2.89,2.82a22.45,22.45,0,0,0-6.09,20h0a28.91,28.91,0,0,1,14.05-11ZM24.25,76.77,55.62,45.58A23.62,23.62,0,0,0,49,44.64,22.67,22.67,0,0,0,33,51.26L30.12,54.1A23,23,0,0,0,24.25,76.77Zm31-45.87A28.14,28.14,0,0,1,57.52,21a22.16,22.16,0,0,0-3.37-4.46l-2.83-2.83A23,23,0,0,0,28.6,7.84l17.6,17.7a28.87,28.87,0,0,1,9,5.36ZM36.6,41.54A29,29,0,0,1,55,39.34,23,23,0,0,0,36.2,29.67h-4A23,23,0,0,0,12,41.54Z" transform="translate(-3.53 0)"/><path class="cls-5" d="M109.8,41.54H85.23a28.9,28.9,0,0,0-18.38-2.2,23,23,0,0,1,18.76-9.67h4A23,23,0,0,1,109.8,41.54Z" transform="translate(-3.53 0)"/><path class="cls-5" d="M91.71,54.1a23,23,0,0,1,5.87,22.67h0L66.22,45.59a22.89,22.89,0,0,1,22.65,5.67Z" transform="translate(-3.53 0)"/><path class="cls-5" d="M93.2,7.84,75.59,25.54a28.86,28.86,0,0,0-14,11h0a22.45,22.45,0,0,1,6.09-20l2.84-2.83A23,23,0,0,1,93.2,7.84Z" transform="translate(-3.53 0)"/><path class="cls-6" d="M60.93,48.69l2.59,2.54a215.7,215.7,0,0,1-5.36,33.22h0l-8.84,9a167.16,167.16,0,0,0,8.2-41.36Z" transform="translate(-3.53 0)"/><path class="cls-7" d="M49.31,93.42l8.84-9A217.21,217.21,0,0,1,34.52,143h0l-11.62-.23h0A166.42,166.42,0,0,0,49.3,93.43Z" transform="translate(-3.53 0)"/><path class="cls-5" d="M55.62,45.58,24.25,76.77A23,23,0,0,1,30.12,54.1L33,51.26A22.67,22.67,0,0,1,49,44.64,23.62,23.62,0,0,1,55.62,45.58Z" transform="translate(-3.53 0)"/><path class="cls-5" d="M57.52,21a28.14,28.14,0,0,0-2.23,9.9h0a28.87,28.87,0,0,0-9-5.36L28.6,7.84a23,23,0,0,1,22.72,5.87l2.83,2.83A22.16,22.16,0,0,1,57.52,21Z" transform="translate(-3.53 0)"/><path class="cls-5" d="M55,39.34a29,29,0,0,0-18.38,2.2H12A23,23,0,0,1,32.2,29.67h4A23,23,0,0,1,55,39.34Z" transform="translate(-3.53 0)"/><path class="cls-8" d="M58.15,84.46A217,217,0,0,1,34.52,143" transform="translate(-3.53 0)"/><path class="cls-8" d="M49.31,93.42a166.94,166.94,0,0,0,8.21-41.33l3.41-3.4,2.59,2.54a215.7,215.7,0,0,1-5.36,33.22" transform="translate(-3.53 0)"/><path class="cls-8" d="M34.52,143c-.8,1.39-1.63,2.76-2.47,4.13l8.4-2.6A224.94,224.94,0,0,0,69,56.73l27.6,27.43a3,3,0,0,0,2.08.87,3.84,3.84,0,0,0,.48,0,2.94,2.94,0,0,0,2.17-1.6,29,29,0,0,0-5.44-33.49l-2.42-2.43h20.87a3,3,0,0,0,3-3,3.16,3.16,0,0,0-.14-.86A29,29,0,0,0,89.62,23.73H85.77L100.59,8.82a3,3,0,0,0,0-4.19,3.53,3.53,0,0,0-.77-.56,29,29,0,0,0-33.5,5.44l-2.8,2.83a30.58,30.58,0,0,0-2.57,3,28.06,28.06,0,0,0-2.55-3L55.52,9.51A29,29,0,0,0,22,4.07,2.94,2.94,0,0,0,20.67,8h0a3.17,3.17,0,0,0,.59.82L36.09,23.73H32.2A29,29,0,0,0,4.67,43.57a3,3,0,0,0,2.85,3.9H28.35L25.92,49.9a29,29,0,0,0-5.4,33.49A3,3,0,0,0,22.7,85a3.84,3.84,0,0,0,.48,0,3,3,0,0,0,2.09-.87L51,58.58A160.78,160.78,0,0,1,20,137l-4,5.12c-.59.75-1.19,1.5-1.8,2.24l3.88,3.2a.77.77,0,0,0,1.08-.1q1.92-2.29,3.74-4.66A166.41,166.41,0,0,0,49.3,93.43" transform="translate(-3.53 0)"/><path class="cls-8" d="M106.35,86.36A29.68,29.68,0,1,0,136,56.68h0A29.67,29.67,0,0,0,106.35,86.36Z" transform="translate(-3.53 0)"/><path class="cls-8" d="M136,62.61a23.75,23.75,0,1,1-23.74,23.76h0A23.74,23.74,0,0,1,136,62.61Z" transform="translate(-3.53 0)"/><path class="cls-8" d="M12,41.54A23,23,0,0,1,32.2,29.67h4A23,23,0,0,1,55,39.34a29,29,0,0,0-18.38,2.2Z" transform="translate(-3.53 0)"/><path class="cls-8" d="M24.25,76.77A23,23,0,0,1,30.12,54.1L33,51.26A22.67,22.67,0,0,1,49,44.64a23.62,23.62,0,0,1,6.58.94Z" transform="translate(-3.53 0)"/><path class="cls-8" d="M55.25,30.9a28.87,28.87,0,0,0-9-5.36L28.6,7.84a23,23,0,0,1,22.72,5.87l2.83,2.83A22.16,22.16,0,0,1,57.52,21a28.14,28.14,0,0,0-2.23,9.9Z" transform="translate(-3.53 0)"/><path class="cls-8" d="M61.52,36.53a22.45,22.45,0,0,1,6.09-20l2.91-2.82A23,23,0,0,1,93.2,7.84L75.59,25.54a28.86,28.86,0,0,0-14,11Z" transform="translate(-3.53 0)"/><path class="cls-8" d="M97.52,76.77,66.22,45.59a22.89,22.89,0,0,1,22.65,5.67l2.84,2.84a23,23,0,0,1,5.87,22.67Z" transform="translate(-3.53 0)"/><path class="cls-8" d="M85.23,41.54a28.9,28.9,0,0,0-18.38-2.2,23,23,0,0,1,18.76-9.67h4A23,23,0,0,1,109.8,41.54Z" transform="translate(-3.53 0)"/><path class="cls-8" d="M61.81,128.73a3.44,3.44,0,0,1-.23,1.23c-.19.46-.41.92-.65,1.38a3.31,3.31,0,0,1,.93,1.72,11.08,11.08,0,0,0,.38,1.61H166v-5.94Z" transform="translate(-3.53 0)"/><polyline class="cls-8" points="45.77 93.43 45.78 93.42 54.62 84.46 54.63 84.45"/><line class="cls-9" x1="27.44" y1="143.04" x2="15.82" y2="142.81"/><line class="cls-10" x1="27.45" y1="143.04" x2="27.44" y2="143.04"/><path class="cls-11" d="M73.31,143.08,27.24,187.4l0,0-15.3-20.87a17.15,17.15,0,0,1,0-19.38q3-4.09,7.1-4.09Z" transform="translate(-3.53 0)"/><path class="cls-12" d="M167.42,166.55,96.77,263q-3,4.09-7.1,4.09c-2.73,0-5.1-1.36-7.09-4.09L45.22,212l74.33-68.74v-.18h40.77q4.1,0,7.1,4.09A17.15,17.15,0,0,1,167.42,166.55Z" transform="translate(-3.53 0)"/><polygon class="cls-13" points="116.02 143.25 41.69 212 23.68 187.42 23.71 187.4 69.78 143.08 116.02 143.08 116.02 143.25"/><path class="cls-14" d="M73.31,143.08H19q-4.1,0-7.1,4.09a17.15,17.15,0,0,0,0,19.38l15.3,20.87,18,24.58,37.36,51c2,2.73,4.36,4.09,7.09,4.09s5.1-1.36,7.1-4.09l70.65-96.43a17.15,17.15,0,0,0,0-19.38q-3-4.09-7.1-4.09h-87Z" transform="translate(-3.53 0)"/></svg>