<svg id="Layer_1" data-name="Layer 1" xmlns="http://www.w3.org/2000/svg" viewBox="0 0 177.36 280.28"><defs><style>.cls-1,.cls-3{fill:#fdef96;}.cls-1,.cls-4,.cls-5,.cls-6{stroke:#76797d;}.cls-1,.cls-4,.cls-5,.cls-6,.cls-7{stroke-miterlimit:10;}.cls-1,.cls-4{stroke-width:3px;}.cls-2,.cls-4,.cls-5{fill:#f7e174;}.cls-5{stroke-width:2px;}.cls-6,.cls-7{fill:none;stroke-width:5px;}.cls-7{stroke:#efd154;}.cls-8{fill:#ccd1d0;}.cls-9{fill:#a5a8a7;}.cls-10{fill:#e0e0df;}</style></defs><title>event</title><path class="cls-1" d="M174.29,100.06a4.61,4.61,0,1,1-2.85,8.77l-7.92-2.57a4.61,4.61,0,1,1,2.85-8.77Z" transform="translate(-1.62 -0.04)"/><path class="cls-2" d="M164.1,53.79a11.51,11.51,0,0,1-.2,16.29h0l-27.66,27a2.32,2.32,0,0,0-.66,2l6.53,38.1a11.53,11.53,0,0,1-16.73,12.15l-34.21-18a2.28,2.28,0,0,0-2.15,0l-34.21,18a11.53,11.53,0,0,1-16.73-12.15l6.58-38.1a2.32,2.32,0,0,0-.36-1.64l2.08-.19,108-47.3h0l3.13.46A11.49,11.49,0,0,1,164.1,53.79Z" transform="translate(-1.62 -0.04)"/><path class="cls-3" d="M154.36,50l-108,47.3-2.08.19a2.6,2.6,0,0,0-.3-.36L16.3,70.1a11.53,11.53,0,0,1,6.35-19.68l38.26-5.56a2.32,2.32,0,0,0,1.74-1.26L79.73,9A11.51,11.51,0,0,1,100.4,9l17.11,34.66a2.32,2.32,0,0,0,1.74,1.26Z" transform="translate(-1.62 -0.04)"/><path class="cls-4" d="M144,3.4a4.62,4.62,0,0,1,1,6.45h0l-4.89,6.73a4.61,4.61,0,1,1-7.47-5.42h0l4.85-6.77a4.61,4.61,0,0,1,6.44-1Z" transform="translate(-1.62 -0.04)"/><path class="cls-1" d="M48.06,12a4.62,4.62,0,0,1-8,4.62h0L35.17,9.85a4.63,4.63,0,1,1,7.48-5.46l4.85,6.77A4.5,4.5,0,0,1,48.06,12Z" transform="translate(-1.62 -0.04)"/><path class="cls-5" d="M19.57,100.44a4.61,4.61,0,0,1-2.92,5.81l-8,2.54A4.63,4.63,0,0,1,5.84,100l7.92-2.57h0a4.62,4.62,0,0,1,5.8,3Z" transform="translate(-1.62 -0.04)"/><path class="cls-6" d="M154.36,50l-35.11-5.1a2.32,2.32,0,0,1-1.74-1.26L100.4,9A11.52,11.52,0,0,0,79.73,9L62.65,43.6a2.32,2.32,0,0,1-1.74,1.26L22.65,50.42a11.53,11.53,0,0,0-6.39,19.67l27.68,27a2.6,2.6,0,0,1,.3.36,2.32,2.32,0,0,1,.36,1.64l-6.53,38.1A11.53,11.53,0,0,0,54.8,149.34l34.21-18a2.28,2.28,0,0,1,2.15,0l34.21,18a11.53,11.53,0,0,0,16.73-12.15l-6.53-38.1a2.32,2.32,0,0,1,.66-2l27.66-27a11.54,11.54,0,0,0-6.39-19.67L154.37,50" transform="translate(-1.62 -0.04)"/><line class="cls-7" x1="152.74" y1="49.92" x2="152.75" y2="49.92"/><path class="cls-8" d="M167.82,157.92a17.15,17.15,0,0,1,0,19.38L97.17,273.73q-3,4.09-7.1,4.09T83,273.73l-37.36-51L120,154v-.17h40.77Q164.82,153.83,167.82,157.92Z" transform="translate(-1.62 -0.04)"/><polygon class="cls-9" points="118.33 153.79 118.33 153.97 44.01 222.71 26 198.13 26.03 198.12 72.09 153.79 118.33 153.79"/><path class="cls-10" d="M73.71,153.83,27.65,198.15l0,0L12.32,177.3a17.18,17.18,0,0,1,0-19.38c2-2.73,4.37-4.09,7.1-4.09Z" transform="translate(-1.62 -0.04)"/><path class="cls-6" d="M73.71,153.83H19.42c-2.73,0-5.11,1.36-7.1,4.09a17.18,17.18,0,0,0,0,19.38l15.3,20.87,18,24.58,37.36,51q3,4.09,7.09,4.09t7.1-4.09l70.65-96.43a17.15,17.15,0,0,0,0-19.38q-3-4.09-7.1-4.09h-87Z" transform="translate(-1.62 -0.04)"/></svg>