<svg id="Layer_1" data-name="Layer 1" xmlns="http://www.w3.org/2000/svg" viewBox="0 0 174 272.96"><defs><style>.cls-1{fill:#76797d;}.cls-2{fill:#303030;}.cls-3{fill:#ccd1d0;}.cls-4{fill:#151516;}.cls-5{fill:#f3f3f3;}.cls-6,.cls-9{fill:none;stroke:#76797d;stroke-miterlimit:10;}.cls-7{fill:#a5a8a7;}.cls-8{fill:#e0e0df;}.cls-9{stroke-width:5px;}</style></defs><title>parking</title><path class="cls-1" d="M102.5,25.23a42.2,42.2,0,0,0-59.69,0l0,0a2.46,2.46,0,0,0,3.48,3.48h0a37.31,37.31,0,0,1,52.75,0,2.46,2.46,0,0,0,3.48-3.48Z" transform="translate(-3 -0.03)"/><path class="cls-1" d="M92.36,35.4A27.87,27.87,0,0,0,53,35.4a2.47,2.47,0,1,0,3.52,3.48h0a23,23,0,0,1,32.41,0A2.46,2.46,0,1,0,92.4,35.4h0Z" transform="translate(-3 -0.03)"/><path class="cls-1" d="M82.35,45.4A13.71,13.71,0,0,0,63,45.4a2.48,2.48,0,0,0,3.52,3.49h0a8.78,8.78,0,0,1,12.4,0,2.46,2.46,0,1,0,3.48-3.49Z" transform="translate(-3 -0.03)"/><path class="cls-1" d="M176.5,112.65v12.79a9.15,9.15,0,0,1-9.14,9.14h-4.67a16.34,16.34,0,0,1-31.46,0H49.38a16.34,16.34,0,0,1-31.78-1.35l-9.82-4.36a7.22,7.22,0,0,1-4.28-6.59V98.41a11.49,11.49,0,0,1,9.08-11.14l3.54-.74a32.3,32.3,0,0,0,16.24-8.76A37.17,37.17,0,0,1,58.74,66.88H88.63a37.24,37.24,0,0,1,20.92,6.4l16.3,11c2.92,2,7.32,4.7,11.83,5.6l3.27.65V60.79H122.28a6.16,6.16,0,0,1-6.15-6.14V40.88a1.61,1.61,0,0,1,0-.31,2.47,2.47,0,1,1,4.93.31V54.65a1.22,1.22,0,0,0,1.22,1.22h48a1.22,1.22,0,0,0,1.22-1.22v-48a1.23,1.23,0,0,0-1.19-1.22h-48a1.22,1.22,0,0,0-1.22,1.22V24.86a2.47,2.47,0,0,1-4.93,0V6.68A6.17,6.17,0,0,1,122.31.53h48a6.15,6.15,0,0,1,6.19,6.12v48a6.15,6.15,0,0,1-6.19,6.11H153.84V93l6.37,1.27a20.35,20.35,0,0,1,13.39,9.41l.77,1.29A14.82,14.82,0,0,1,176.5,112.65Zm-4.93,12.79v-12.8a9.86,9.86,0,0,0-1.42-5.1l-.78-1.29a15.37,15.37,0,0,0-10.12-7.12l-22.5-4.47c-5.39-1.07-10.36-4.13-13.63-6.34l-16.3-11q-.69-.46-1.41-.9a32.27,32.27,0,0,0-16.75-4.66H58.8a32.24,32.24,0,0,0-22.9,9.46,37.3,37.3,0,0,1-18.71,10.1l-3.54.74a6.51,6.51,0,0,0-5.16,6.35v23.86a2.29,2.29,0,0,0,1.36,2.09l7.68,3.41a16.19,16.19,0,0,1,1.7-5.24c.12-.22.24-.45.37-.67.27-.45.55-.89.86-1.31l.11-.14.35-.46c0-.06.11-.12.16-.19a4.59,4.59,0,0,1,.36-.41l.15-.17c.17-.19.34-.38.53-.56a16.43,16.43,0,0,1,23.12,0l.57.6.08.1c.16.17.31.35.46.53a16.17,16.17,0,0,1,3.65,9.8h80.68a16.21,16.21,0,0,1,3.63-9.79v0l.44-.51.11-.13.48-.51a.3.3,0,0,0,.08-.08,16.24,16.24,0,0,1,8.35-4.48,17.39,17.39,0,0,1,3.22-.31,16.28,16.28,0,0,1,11.57,4.79l.08.08c.16.17.33.34.48.51l.11.13.44.51v.06a16,16,0,0,1,3.63,9.78h4.06A4.23,4.23,0,0,0,171.57,125.44ZM155,138.22a11.44,11.44,0,0,0,1.49-14.32v-.07c-.08-.13-.17-.25-.26-.38a1,1,0,0,0-.13-.16l-.22-.3-.22-.25-.18-.21c-.14-.15-.28-.31-.43-.46a11.44,11.44,0,0,0-16.15,0c-.15.15-.29.31-.43.46l-.27.2L138,123l-.23.3-.13.16-.26.38v.07A11.42,11.42,0,0,0,155,138.22Zm-6.12-46.16V60.79h-3V91.47ZM41.72,138.22a11.44,11.44,0,0,0,1.35-14.29v-.07c-.08-.13-.17-.25-.26-.38a1,1,0,0,0-.13-.16l-.22-.3-.22-.25-.18-.21c-.13-.15-.28-.31-.43-.46l-.42-.4-.07-.06-.37-.32a11.43,11.43,0,0,0-14.37,0l-.35.3-.09.08-.34.33-.08.07-.39.41a1.15,1.15,0,0,0-.14.17l-.25.29-.17.21-.2.27-.17.24-.16.25-.18.28-.12.21-.18.32-.09.17c-.06.13-.18.25-.18.38a.31.31,0,0,0,0,.1,11.42,11.42,0,0,0,18.46,12.82Z" transform="translate(-3 -0.03)"/><path class="cls-2" d="M171.57,112.64v12.8a4.23,4.23,0,0,1-4.21,4.21H163.3a16,16,0,0,0-3.63-9.78v-.06l-.44-.51-.11-.13c-.15-.17-.32-.34-.48-.51l-.08-.08A16.28,16.28,0,0,0,147,113.79a17.39,17.39,0,0,0-3.22.31,16.24,16.24,0,0,0-8.35,4.48.3.3,0,0,1-.08.08l-.48.51-.11.13-.44.51v0a16.21,16.21,0,0,0-3.63,9.79H50a16.17,16.17,0,0,0-3.65-9.8c-.15-.18-.3-.36-.46-.53l-.08-.1-.57-.6a16.51,16.51,0,0,0-1.69-1.46h0L62.26,103.4h62.57a3.69,3.69,0,0,0,3.67-3.67,7.17,7.17,0,0,0-3.72-6.32c-1.07-.58-2.12-1.23-3.13-1.91l-16.3-11a30.16,30.16,0,0,0-4.72-2.6l4.78-1.47q.72.43,1.41.9l16.3,11c3.27,2.21,8.24,5.27,13.63,6.34l22.5,4.47a15.37,15.37,0,0,1,10.12,7.12l.78,1.29A9.86,9.86,0,0,1,171.57,112.64ZM79.12,109.7a2.46,2.46,0,0,0-2.31-2.62,1.61,1.61,0,0,0-.31,0H68.86a2.47,2.47,0,0,0,0,4.93H76.5A2.47,2.47,0,0,0,79.12,109.7Z" transform="translate(-3 -0.03)"/><path class="cls-3" d="M171.5,6.65v48a1.22,1.22,0,0,1-1.22,1.22h-48a1.22,1.22,0,0,1-1.22-1.22V40.88a2.47,2.47,0,0,0-2.31-2.62l0-11.09a2.48,2.48,0,0,0,2.31-2.31V6.65a1.22,1.22,0,0,1,1.22-1.22h48A1.23,1.23,0,0,1,171.5,6.65ZM157.64,24.26V24c0-6.89-4.2-9.48-9.53-9.48h-8.45a1.85,1.85,0,0,0-2,1.62.13.13,0,0,0,0,.06V43.53c0,1.14,1.35,1.72,2.73,1.72s2.74-.58,2.74-1.72V33.8h4.7C153.32,33.8,157.64,31.15,157.64,24.26Z" transform="translate(-3 -0.03)"/><path class="cls-4" d="M157.64,24v.25c0,6.89-4.32,9.54-9.87,9.54h-4.7v9.73c0,1.14-1.36,1.72-2.74,1.72s-2.73-.58-2.73-1.72V16.21a.13.13,0,0,1,0-.06,1.85,1.85,0,0,1,2-1.62h8.45C153.44,14.53,157.64,17.12,157.64,24Zm-5.46.65v-.49c0-3.27-1.68-4.83-4.41-4.83h-4.7V29.49h4.7C150.5,29.49,152.18,27.94,152.18,24.66Z" transform="translate(-3 -0.03)"/><path class="cls-2" d="M156.52,123.9a11.42,11.42,0,1,1-19.12,0v-.07l.26-.38.13-.16.23-.3.21-.25.27-.2c.14-.15.28-.31.43-.46a11.44,11.44,0,0,1,16.15,0c.15.15.29.31.43.46l.18.21.22.25.22.3a1,1,0,0,1,.13.16c.09.13.18.25.26.38Zm-2.08,6.24a7.48,7.48,0,1,0-2.19,5.29A7.49,7.49,0,0,0,154.44,130.14Z" transform="translate(-3 -0.03)"/><path class="cls-1" d="M152.25,124.85a7.48,7.48,0,1,1-10.58,0A7.49,7.49,0,0,1,152.25,124.85Zm-3.49,7.1a2.56,2.56,0,1,0-3.61,0A2.56,2.56,0,0,0,148.76,132Z" transform="translate(-3 -0.03)"/><path class="cls-3" d="M152.18,24.66c0,3.28-1.68,4.83-4.41,4.83h-4.7V19.34h4.7c2.73,0,4.41,1.56,4.41,4.83Z" transform="translate(-3 -0.03)"/><circle class="cls-4" cx="143.95" cy="130.11" r="2.56"/><path class="cls-1" d="M124.78,93.4a7.17,7.17,0,0,1,3.72,6.32,3.69,3.69,0,0,1-3.67,3.67H57.25a1.61,1.61,0,0,1-.31,0,2.47,2.47,0,1,1,.31-4.93h8.19V80.36h-6.7a24.78,24.78,0,0,0-17.57,7.25,44.25,44.25,0,0,1-11,8A1.49,1.49,0,0,0,29.36,97a1.48,1.48,0,0,0,1.5,1.46H41.14a2.47,2.47,0,0,1,0,4.93H30.94a6.41,6.41,0,0,1-3-12.1,40.19,40.19,0,0,0,9.8-7.17,29.64,29.64,0,0,1,21-8.69H88.66a29.74,29.74,0,0,1,12,2.51,30.16,30.16,0,0,1,4.72,2.6l16.3,11C122.66,92.17,123.71,92.82,124.78,93.4Zm-54.41,5,52.8-.05a2.39,2.39,0,0,0-.77-.68c-1.2-.66-2.38-1.38-3.51-2.14l-16.3-11A24.79,24.79,0,0,0,88.66,80.3H70.37Z" transform="translate(-3 -0.03)"/><path class="cls-5" d="M123.17,98.35l-52.8.05V80.3H88.66a24.79,24.79,0,0,1,13.93,4.23l16.3,11c1.13.76,2.31,1.48,3.51,2.14A2.39,2.39,0,0,1,123.17,98.35Z" transform="translate(-3 -0.03)"/><path class="cls-4" d="M105.41,76.42l-4.78,1.47a29.74,29.74,0,0,0-12-2.51H58.74a29.64,29.64,0,0,0-21,8.69,40.19,40.19,0,0,1-9.8,7.17,6.41,6.41,0,0,0,3,12.1h10.2a2.48,2.48,0,0,0,2.31-2.62l11.18,0a2.46,2.46,0,0,0,2.31,2.62,1.61,1.61,0,0,0,.31,0h5L43.55,117.15h0a16.35,16.35,0,0,0-21.43,1.46c-.19.18-.36.37-.53.56l-.15.17a4.59,4.59,0,0,0-.36.41c0,.07-.11.13-.16.19l-.35.46-.11.14c-.31.42-.59.86-.86,1.31-.13.22-.25.45-.37.67a16.19,16.19,0,0,0-1.7,5.24l-7.68-3.41a2.29,2.29,0,0,1-1.36-2.09V98.41a6.51,6.51,0,0,1,5.16-6.35l3.54-.74A37.3,37.3,0,0,0,35.9,81.22a32.24,32.24,0,0,1,22.9-9.46H88.66A32.27,32.27,0,0,1,105.41,76.42Z" transform="translate(-3 -0.03)"/><path class="cls-1" d="M76.81,107.08A2.47,2.47,0,0,1,76.5,112H68.86a2.47,2.47,0,0,1,0-4.93H76.5A1.61,1.61,0,0,1,76.81,107.08Z" transform="translate(-3 -0.03)"/><path class="cls-5" d="M65.44,80.36v18.1H57.25a2.47,2.47,0,0,0-2.62,2.31l-11.18,0a2.48,2.48,0,0,0-2.31-2.31H30.86A1.48,1.48,0,0,1,29.36,97a1.49,1.49,0,0,1,.81-1.34,44.25,44.25,0,0,0,11-8,24.78,24.78,0,0,1,17.57-7.25Z" transform="translate(-3 -0.03)"/><path class="cls-2" d="M43.07,123.93a11.36,11.36,0,1,1-19.81,1.47.31.31,0,0,1,0-.1c0-.13.12-.25.18-.38l.09-.17.18-.32.12-.21.18-.28.16-.25.17-.24.2-.27.17-.21.25-.29a1.15,1.15,0,0,1,.14-.17l.39-.41.08-.07.34-.33.09-.08.35-.3a11.43,11.43,0,0,1,14.37,0l.37.32.07.06.42.4c.15.15.3.31.43.46l.18.21.22.25.22.3a1,1,0,0,1,.13.16c.09.13.18.25.26.38Zm-4.13,11.5A7.44,7.44,0,0,0,39,124.91l-.06-.06a7.48,7.48,0,1,0,0,10.58Z" transform="translate(-3 -0.03)"/><path class="cls-1" d="M39,124.91a7.52,7.52,0,1,1-.06-.06Zm-3.5,7a2.56,2.56,0,1,0-3.61,0A2.55,2.55,0,0,0,35.5,131.94Z" transform="translate(-3 -0.03)"/><path class="cls-4" d="M35.5,128.33a2.56,2.56,0,1,1-3.61,0A2.55,2.55,0,0,1,35.5,128.33Z" transform="translate(-3 -0.03)"/><path class="cls-6" d="M118.75,38.26a2.46,2.46,0,0,0-2.62,2.31,1.61,1.61,0,0,0,0,.31V54.65a6.16,6.16,0,0,0,6.15,6.14H141V90.53l-3.27-.65c-4.51-.9-8.91-3.62-11.83-5.6l-16.3-11a37.24,37.24,0,0,0-20.92-6.4H58.74A37.17,37.17,0,0,0,32.36,77.77a32.3,32.3,0,0,1-16.24,8.76l-3.54.74A11.49,11.49,0,0,0,3.5,98.41v23.87a7.22,7.22,0,0,0,4.28,6.59l9.82,4.36a16.34,16.34,0,0,0,31.78,1.35h81.85a16.34,16.34,0,0,0,31.46,0h4.67a9.15,9.15,0,0,0,9.14-9.14V112.65a14.82,14.82,0,0,0-2.13-7.64l-.77-1.29a20.35,20.35,0,0,0-13.39-9.41L153.84,93V60.79h16.47a6.15,6.15,0,0,0,6.19-6.11v-48A6.15,6.15,0,0,0,170.31.53h-48a6.17,6.17,0,0,0-6.15,6.15V24.86a2.47,2.47,0,0,0,4.93,0V6.65a1.22,1.22,0,0,1,1.22-1.22h48a1.23,1.23,0,0,1,1.19,1.22v48a1.22,1.22,0,0,1-1.22,1.22h-48a1.22,1.22,0,0,1-1.22-1.22V40.88A2.47,2.47,0,0,0,118.75,38.26Z" transform="translate(-3 -0.03)"/><polygon class="cls-7" points="116.91 146.47 116.91 146.65 42.58 215.39 24.58 190.81 24.6 190.79 70.67 146.47 116.91 146.47"/><path class="cls-3" d="M82.94,266.41l-37.36-51,74.33-68.74v-.18h40.77c2.73,0,5.1,1.37,7.1,4.09a17.15,17.15,0,0,1,0,19.38L97.13,266.41q-3,4.08-7.1,4.08C87.3,270.49,84.93,269.13,82.94,266.41Z" transform="translate(-3 -0.03)"/><path class="cls-8" d="M73.67,146.5,27.6,190.82l0,0L12.28,170a17.15,17.15,0,0,1,0-19.38c2-2.72,4.37-4.09,7.1-4.09Z" transform="translate(-3 -0.03)"/><path class="cls-9" d="M73.67,146.5H19.38c-2.73,0-5.1,1.37-7.1,4.09a17.15,17.15,0,0,0,0,19.38l15.3,20.87,18,24.58,37.36,51c2,2.72,4.36,4.08,7.09,4.08s5.1-1.36,7.1-4.08L167.78,170a17.15,17.15,0,0,0,0-19.38c-2-2.72-4.37-4.09-7.1-4.09h-87Z" transform="translate(-3 -0.03)"/></svg>