<svg id="Layer_1" data-name="Layer 1" xmlns="http://www.w3.org/2000/svg" viewBox="0 0 175.49 281.67"><defs><style>.cls-1,.cls-3{fill:#fdef96;}.cls-1,.cls-4,.cls-5{stroke:#7a7a7a;}.cls-1,.cls-4,.cls-5,.cls-6{stroke-miterlimit:10;}.cls-2,.cls-4{fill:#f7e174;}.cls-5,.cls-6{fill:none;stroke-width:5px;}.cls-6{stroke:#efd154;}.cls-7{fill:#2d333c;}.cls-8{fill:#1b1e23;}.cls-9{fill:#292929;}</style></defs><title>event</title><path class="cls-1" d="M172.17,100a4.61,4.61,0,0,1-2.85,8.77l-7.92-2.57a4.61,4.61,0,0,1,2.85-8.77Z" transform="translate(-0.37 -0.03)"/><path class="cls-2" d="M162,53.75a11.53,11.53,0,0,1-.2,16.29h0L134.12,97a2.32,2.32,0,0,0-.66,2l6.53,38.1a11.53,11.53,0,0,1-16.73,12.15l-34.21-18a2.28,2.28,0,0,0-2.15,0l-34.21,18A11.53,11.53,0,0,1,36,137.14l6.56-38.09a2.32,2.32,0,0,0-.36-1.64l2.08-.19,108-47.3h0l3.13.46A11.49,11.49,0,0,1,162,53.75Z" transform="translate(-0.37 -0.03)"/><path class="cls-3" d="M152.24,50l-108,47.3-2.08.19a2.6,2.6,0,0,0-.3-.36l-27.68-27a11.53,11.53,0,0,1,6.34-19.71l38.26-5.56a2.32,2.32,0,0,0,1.74-1.26L77.61,9A11.52,11.52,0,0,1,98.28,9l17.11,34.66a2.32,2.32,0,0,0,1.74,1.26Z" transform="translate(-0.37 -0.03)"/><path class="cls-4" d="M141.84,3.36a4.62,4.62,0,0,1,1,6.45h0L138,16.54a4.62,4.62,0,1,1-7.48-5.42h0l4.85-6.77a4.61,4.61,0,0,1,6.44-1Z" transform="translate(-0.37 -0.03)"/><path class="cls-1" d="M45.94,12a4.62,4.62,0,0,1-8,4.62h0L33.05,9.81A4.63,4.63,0,0,1,40.3,4.05l.22.3,4.85,6.77A4.78,4.78,0,0,1,45.94,12Z" transform="translate(-0.37 -0.03)"/><path class="cls-4" d="M17.45,100.4a4.61,4.61,0,0,1-2.93,5.81l-8,2.54A4.63,4.63,0,0,1,3.72,100l7.92-2.57h0a4.62,4.62,0,0,1,5.8,3Z" transform="translate(-0.37 -0.03)"/><path class="cls-5" d="M152.24,50l-35.11-5.1a2.32,2.32,0,0,1-1.74-1.26L98.28,9A11.52,11.52,0,0,0,77.61,9L60.52,43.56a2.32,2.32,0,0,1-1.74,1.26L20.52,50.38a11.53,11.53,0,0,0-6.39,19.67l27.68,27a2.6,2.6,0,0,1,.3.36,2.34,2.34,0,0,1,.41,1.64L36,137.15A11.53,11.53,0,0,0,52.72,149.3l34.21-18a2.28,2.28,0,0,1,2.15,0l34.21,18A11.53,11.53,0,0,0,140,137.15l-6.53-38.1a2.32,2.32,0,0,1,.66-2l27.66-27a11.54,11.54,0,0,0-6.39-19.67L152.25,50" transform="translate(-0.37 -0.03)"/><line class="cls-6" x1="151.87" y1="49.89" x2="151.88" y2="49.89"/><path class="cls-7" d="M168.59,154.86a17.77,17.77,0,0,1,0,20.09L95.33,275c-2.08,2.83-4.53,4.24-7.37,4.24s-5.28-1.41-7.35-4.24L41.87,222.09,119,150.8v-.18h42.28Q165.48,150.62,168.59,154.86Z" transform="translate(-0.37 -0.03)"/><polygon class="cls-8" points="118.58 150.59 118.58 150.77 41.5 222.06 22.82 196.57 22.86 196.55 70.63 150.59 118.58 150.59"/><path class="cls-9" d="M71,150.62l-47.77,46,0,0L7.33,175a17.8,17.8,0,0,1,0-20.09q3.11-4.25,7.37-4.24Z" transform="translate(-0.37 -0.03)"/><path class="cls-5" d="M71,150.62H14.7q-4.26,0-7.37,4.24a17.8,17.8,0,0,0,0,20.09L23.19,196.6l18.68,25.49L80.61,275q3.11,4.25,7.35,4.24c2.84,0,5.29-1.41,7.37-4.24l73.26-100a17.77,17.77,0,0,0,0-20.09q-3.12-4.25-7.36-4.24H71Z" transform="translate(-0.37 -0.03)"/></svg>