<svg id="Layer_1" data-name="Layer 1" xmlns="http://www.w3.org/2000/svg" viewBox="0 0 175.76 284.92"><defs><style>.cls-1{fill:#7a7a7a;}.cls-2{fill:#7a1c1c;}.cls-3{fill:#2d333c;}.cls-4{fill:#c1c1c1;}.cls-5{fill:#303030;}.cls-6{fill:#151516;}.cls-7{fill:#f3f3f3;}.cls-8{fill:#842525;}.cls-9{fill:#1b1e23;}.cls-10{fill:#292929;}.cls-11{fill:none;stroke:#7a7a7a;stroke-miterlimit:10;stroke-width:5px;}</style></defs><title>parking</title><path class="cls-1" d="M102.5,34.9a42.2,42.2,0,0,0-59.69,0l0,0a2.46,2.46,0,0,0,3.48,3.48h0a37.31,37.31,0,0,1,52.75,0,2.46,2.46,0,0,0,3.48-3.48Z" transform="translate(-3.5 -2.33)"/><path class="cls-1" d="M92.36,45.07a27.87,27.87,0,0,0-39.38,0,2.47,2.47,0,1,0,3.52,3.48h0a23,23,0,0,1,32.41,0,2.46,2.46,0,1,0,3.49-3.48h0Z" transform="translate(-3.5 -2.33)"/><path class="cls-1" d="M82.35,55.07a13.71,13.71,0,0,0-19.37,0,2.48,2.48,0,0,0,3.52,3.49h0a8.78,8.78,0,0,1,12.4,0,2.46,2.46,0,1,0,3.48-3.49Z" transform="translate(-3.5 -2.33)"/><path class="cls-1" d="M176.5,120.49V134a9.41,9.41,0,0,1-9.14,9.63h-4.67a16.8,16.8,0,0,1-11.31,11.92c-8.68,2.58-17.71-2.76-20.15-11.92H49.38a16.7,16.7,0,0,1-12.66,12.26c-8.86,1.78-17.42-4.34-19.12-13.68l-9.82-4.59a7.64,7.64,0,0,1-4.28-7V105.49a12,12,0,0,1,9.08-11.74L16.12,93a31.86,31.86,0,0,0,16.24-9.24A36.25,36.25,0,0,1,58.74,72.26H88.63A35.94,35.94,0,0,1,109.55,79l16.3,11.59c2.92,2.09,7.32,5,11.83,5.91l3.27.68V65.84H122.28a6.33,6.33,0,0,1-6.15-6.47V44.86a1.82,1.82,0,0,1,0-.33,2.51,2.51,0,0,1,2.62-2.43,2.55,2.55,0,0,1,2.31,2.76V59.37a1.26,1.26,0,0,0,1.22,1.28h48a1.26,1.26,0,0,0,1.22-1.28V8.78a1.26,1.26,0,0,0-1.19-1.28h-48a1.26,1.26,0,0,0-1.22,1.28V28a2.47,2.47,0,0,1-4.93,0V8.81a6.34,6.34,0,0,1,6.15-6.48h48a6.32,6.32,0,0,1,6.19,6.45V59.4a6.32,6.32,0,0,1-6.19,6.44H153.84v34l6.37,1.34a20.4,20.4,0,0,1,13.39,9.91l.77,1.36A16.28,16.28,0,0,1,176.5,120.49ZM171.57,134V120.48a10.8,10.8,0,0,0-1.42-5.37l-.78-1.36a15.43,15.43,0,0,0-10.12-7.51l-22.5-4.71c-5.39-1.12-10.36-4.35-13.63-6.68l-16.3-11.59c-.46-.33-.93-.64-1.41-1A31.08,31.08,0,0,0,88.66,77.4H58.8a31.42,31.42,0,0,0-22.9,10A36.73,36.73,0,0,1,17.19,98l-3.54.78a6.8,6.8,0,0,0-5.16,6.7v25.14a2.42,2.42,0,0,0,1.36,2.2l7.68,3.6a17.62,17.62,0,0,1,1.7-5.52c.12-.24.24-.48.37-.71a16,16,0,0,1,.86-1.38l.11-.15.35-.48.16-.2a4.94,4.94,0,0,1,.36-.44l.15-.18c.17-.2.34-.4.53-.59a15.73,15.73,0,0,1,21.43-1.53,17.29,17.29,0,0,1,1.69,1.53c.19.2.38.42.57.64l.08.1c.16.18.31.37.46.56A17.61,17.61,0,0,1,50,138.41h80.68a17.66,17.66,0,0,1,3.63-10.32V128l.44-.54.11-.14.48-.53a.34.34,0,0,0,.08-.09,16.07,16.07,0,0,1,8.35-4.72,16.6,16.6,0,0,1,3.22-.33,15.46,15.46,0,0,1,4,.52,16,16,0,0,1,7.57,4.53.34.34,0,0,0,.08.09l.48.53.11.14.44.54v.06a17.4,17.4,0,0,1,3.63,10.31h4.06A4.35,4.35,0,0,0,171.57,134ZM155,147.44a12.55,12.55,0,0,0,1.49-15.09v-.07c-.08-.14-.17-.27-.26-.41a1,1,0,0,0-.13-.16l-.22-.32-.22-.26-.18-.22c-.14-.16-.28-.33-.43-.49a11,11,0,0,0-16.15,0c-.15.16-.29.33-.43.49l-.27.21-.21.26-.23.32-.13.16-.26.4v.08a12.53,12.53,0,0,0,1.48,15.1A11,11,0,0,0,155,147.44Zm-6.12-48.65V65.84h-3V98.17ZM41.72,147.44a12.55,12.55,0,0,0,1.35-15.06v-.07c-.08-.14-.17-.27-.26-.4a.76.76,0,0,0-.13-.17l-.22-.32-.22-.26-.18-.22c-.13-.16-.28-.33-.43-.49l-.42-.42-.07-.06-.37-.34a11,11,0,0,0-14.37,0l-.35.32L26,130l-.34.35-.08.07-.39.43-.14.18-.25.31-.17.22-.2.28-.17.26-.16.26-.18.3-.12.22-.18.33-.09.18c-.06.14-.18.27-.18.4a.54.54,0,0,0,0,.11,12.51,12.51,0,0,0,2.31,13.5A11,11,0,0,0,41.72,147.44Z" transform="translate(-3.5 -2.33)"/><path class="cls-2" d="M171.57,120.48V134a4.35,4.35,0,0,1-4.21,4.44H163.3a17.4,17.4,0,0,0-3.63-10.31V128l-.44-.54-.11-.14-.48-.53a.34.34,0,0,1-.08-.09,16,16,0,0,0-7.57-4.53,15.46,15.46,0,0,0-4-.52,16.6,16.6,0,0,0-3.22.33,16.07,16.07,0,0,0-8.35,4.72.34.34,0,0,1-.08.09l-.48.53-.11.14-.44.54v.05a17.66,17.66,0,0,0-3.63,10.32H50a17.61,17.61,0,0,0-3.65-10.33c-.15-.19-.3-.38-.46-.56l-.08-.1c-.19-.22-.38-.44-.57-.64a17.29,17.29,0,0,0-1.69-1.53h0l18.71-14.5h62.57a3.79,3.79,0,0,0,3.67-3.86,7.61,7.61,0,0,0-3.72-6.66c-1.07-.62-2.12-1.3-3.13-2L105.35,86.6a30.17,30.17,0,0,0-4.72-2.74l4.78-1.55c.48.31,1,.62,1.41,1l16.3,11.59c3.27,2.33,8.24,5.56,13.63,6.68l22.5,4.71a15.43,15.43,0,0,1,10.12,7.51l.78,1.36A10.8,10.8,0,0,1,171.57,120.48Zm-92.45-3.1a2.56,2.56,0,0,0-2.31-2.76,1.61,1.61,0,0,0-.31,0H68.86a2.62,2.62,0,0,0,0,5.2H76.5A2.52,2.52,0,0,0,79.12,117.38Z" transform="translate(-3.5 -2.33)"/><path class="cls-3" d="M171.5,8.78V59.37a1.26,1.26,0,0,1-1.22,1.28h-48a1.26,1.26,0,0,1-1.22-1.28V44.86a2.55,2.55,0,0,0-2.31-2.76l0-11.69A2.55,2.55,0,0,0,121.09,28V8.78a1.26,1.26,0,0,1,1.22-1.28h48A1.26,1.26,0,0,1,171.5,8.78ZM157.64,27.34v-.26c0-7.26-4.2-10-9.53-10h-8.45a1.87,1.87,0,0,0-2,1.7.2.2,0,0,0,0,.07V47.65c0,1.2,1.35,1.81,2.73,1.81s2.74-.61,2.74-1.81V37.4h4.7C153.32,37.4,157.64,34.6,157.64,27.34Z" transform="translate(-3.5 -2.33)"/><path class="cls-4" d="M157.64,27.08v.26c0,7.26-4.32,10.06-9.87,10.06h-4.7V47.65c0,1.2-1.36,1.81-2.74,1.81s-2.73-.61-2.73-1.81V18.86a.2.2,0,0,1,0-.07,1.87,1.87,0,0,1,2-1.7h8.45C153.44,17.09,157.64,19.82,157.64,27.08Zm-5.46.68v-.51c0-3.45-1.68-5.09-4.41-5.09h-4.7V32.85h4.7C150.5,32.85,152.18,31.22,152.18,27.76Z" transform="translate(-3.5 -2.33)"/><path class="cls-5" d="M156.52,132.35A12.55,12.55,0,0,1,155,147.44a11,11,0,0,1-16.15,0,12.53,12.53,0,0,1-1.48-15.1v-.08l.26-.4.13-.16.23-.32.21-.26.27-.21c.14-.16.28-.33.43-.49a11,11,0,0,1,16.15,0c.15.16.29.33.43.49l.18.22.22.26.22.32a1,1,0,0,1,.13.16c.09.14.18.27.26.41Zm-2.08,6.58a8.13,8.13,0,0,0-2.19-5.58,7.21,7.21,0,0,0-10.58,0,8.19,8.19,0,0,0,0,11.15,7.21,7.21,0,0,0,10.58,0A8.13,8.13,0,0,0,154.44,138.93Z" transform="translate(-3.5 -2.33)"/><path class="cls-1" d="M152.25,133.35a8.19,8.19,0,0,1,0,11.15,7.21,7.21,0,0,1-10.58,0,8.19,8.19,0,0,1,0-11.15A7.21,7.21,0,0,1,152.25,133.35Zm-3.49,7.48a2.79,2.79,0,0,0,0-3.81,2.46,2.46,0,0,0-3.61,0,2.79,2.79,0,0,0,0,3.81A2.46,2.46,0,0,0,148.76,140.83Z" transform="translate(-3.5 -2.33)"/><path class="cls-3" d="M152.18,27.76c0,3.46-1.68,5.09-4.41,5.09h-4.7V22.16h4.7c2.73,0,4.41,1.64,4.41,5.09Z" transform="translate(-3.5 -2.33)"/><ellipse class="cls-6" cx="143.45" cy="136.59" rx="2.56" ry="2.69"/><path class="cls-1" d="M124.78,100.21a7.61,7.61,0,0,1,3.72,6.66,3.79,3.79,0,0,1-3.67,3.86H56.94A2.55,2.55,0,0,1,54.63,108a2.51,2.51,0,0,1,2.62-2.43h8.19V86.46h-6.7A24.16,24.16,0,0,0,41.17,94.1a44.48,44.48,0,0,1-11,8.44,1.58,1.58,0,0,0-.81,1.41,1.52,1.52,0,0,0,1.5,1.54H41.14a2.54,2.54,0,0,1,2.31,2.43,2.57,2.57,0,0,1-2.31,2.76H30.94A6.38,6.38,0,0,1,25.2,107a6.94,6.94,0,0,1,2.74-9.11,40.22,40.22,0,0,0,9.8-7.56,28.85,28.85,0,0,1,21-9.15H88.66a28.42,28.42,0,0,1,12,2.64,30.17,30.17,0,0,1,4.72,2.74l16.3,11.59C122.66,98.91,123.71,99.59,124.78,100.21Zm-54.41,5.27,52.8-.06a2.49,2.49,0,0,0-.77-.71c-1.2-.7-2.38-1.46-3.51-2.26l-16.3-11.59A23.91,23.91,0,0,0,88.66,86.4H70.37Z" transform="translate(-3.5 -2.33)"/><path class="cls-7" d="M123.17,105.42l-52.8.06V86.4H88.66a23.91,23.91,0,0,1,13.93,4.46l16.3,11.59c1.13.8,2.31,1.56,3.51,2.26A2.49,2.49,0,0,1,123.17,105.42Z" transform="translate(-3.5 -2.33)"/><path class="cls-8" d="M105.41,82.31l-4.78,1.55a28.42,28.42,0,0,0-12-2.64H58.74a28.85,28.85,0,0,0-21,9.15,40.22,40.22,0,0,1-9.8,7.56A6.94,6.94,0,0,0,25.2,107a6.38,6.38,0,0,0,5.74,3.64h10.2a2.57,2.57,0,0,0,2.31-2.76l11.18,0a2.55,2.55,0,0,0,2.31,2.76h5.32l-18.71,14.5h0a15.73,15.73,0,0,0-21.43,1.53c-.19.19-.36.39-.53.59l-.15.18a4.94,4.94,0,0,0-.36.44l-.16.2-.35.48-.11.15a16,16,0,0,0-.86,1.38c-.13.23-.25.47-.37.71a17.62,17.62,0,0,0-1.7,5.52l-7.68-3.6a2.42,2.42,0,0,1-1.36-2.2V105.49a6.8,6.8,0,0,1,5.16-6.7L17.19,98A36.73,36.73,0,0,0,35.9,87.37a31.42,31.42,0,0,1,22.9-10H88.66A31.08,31.08,0,0,1,105.41,82.31Z" transform="translate(-3.5 -2.33)"/><path class="cls-1" d="M76.81,114.62a2.56,2.56,0,0,1,2.31,2.76,2.52,2.52,0,0,1-2.62,2.44H68.86a2.62,2.62,0,0,1,0-5.2H76.5A1.61,1.61,0,0,1,76.81,114.62Z" transform="translate(-3.5 -2.33)"/><path class="cls-7" d="M65.44,86.46v19.08H57.25A2.51,2.51,0,0,0,54.63,108l-11.18,0a2.54,2.54,0,0,0-2.31-2.43H30.86a1.52,1.52,0,0,1-1.5-1.54,1.58,1.58,0,0,1,.81-1.41,44.48,44.48,0,0,0,11-8.44,24.16,24.16,0,0,1,17.57-7.64Z" transform="translate(-3.5 -2.33)"/><path class="cls-5" d="M43.07,132.38a12.55,12.55,0,0,1-1.35,15.06,11,11,0,0,1-16.15,0,12.51,12.51,0,0,1-2.31-13.5.54.54,0,0,1,0-.11c0-.13.12-.26.18-.4l.09-.18.18-.33.12-.22.18-.3.16-.26.17-.26.2-.28.17-.22.25-.31.14-.18.39-.43.08-.07L26,130l.09-.08.35-.32a11,11,0,0,1,14.37,0l.37.34.07.06.42.42c.15.16.3.33.43.49l.18.22.22.26.22.32a.76.76,0,0,1,.13.17c.09.13.18.26.26.4ZM38.94,144.5A8.15,8.15,0,0,0,39,133.41l-.06-.06a7.21,7.21,0,0,0-10.58,0,8.19,8.19,0,0,0,0,11.15A7.21,7.21,0,0,0,38.94,144.5Z" transform="translate(-3.5 -2.33)"/><path class="cls-1" d="M39,133.41a8.15,8.15,0,0,1-.06,11.09,7.21,7.21,0,0,1-10.58,0,8.19,8.19,0,0,1,0-11.15,7.21,7.21,0,0,1,10.58,0Zm-3.5,7.41a2.78,2.78,0,0,0,0-3.8,2.45,2.45,0,0,0-3.61,0,2.76,2.76,0,0,0-.75,1.91,2.73,2.73,0,0,0,.75,1.89A2.45,2.45,0,0,0,35.5,140.82Z" transform="translate(-3.5 -2.33)"/><path class="cls-6" d="M35.5,137a2.78,2.78,0,0,1,0,3.8,2.45,2.45,0,0,1-3.61,0,2.73,2.73,0,0,1-.75-1.89,2.76,2.76,0,0,1,.75-1.91A2.45,2.45,0,0,1,35.5,137Z" transform="translate(-3.5 -2.33)"/><path class="cls-3" d="M173.65,160.41a17.78,17.78,0,0,1,0,20.1l-73.26,100q-3.12,4.23-7.37,4.23t-7.35-4.23L46.93,227.64,124,156.35v-.18h42.28Q170.54,156.17,173.65,160.41Z" transform="translate(-3.5 -2.33)"/><polygon class="cls-9" points="120.51 153.84 120.51 154.02 43.43 225.31 24.75 199.82 24.78 199.8 72.56 153.84 120.51 153.84"/><path class="cls-10" d="M76.06,156.17l-47.78,46,0,0L12.39,180.51a17.82,17.82,0,0,1,0-20.1q3.11-4.24,7.37-4.24Z" transform="translate(-3.5 -2.33)"/><path class="cls-11" d="M76.06,156.17H19.76q-4.26,0-7.37,4.24a17.82,17.82,0,0,0,0,20.1l15.86,21.64,18.68,25.49,38.74,52.88q3.1,4.23,7.35,4.23t7.37-4.23l73.26-100a17.78,17.78,0,0,0,0-20.1q-3.12-4.24-7.36-4.24H76.06Z" transform="translate(-3.5 -2.33)"/></svg>