<?xml version="1.0" encoding="utf-8"?>
<!-- Generator: Adobe Illustrator 22.1.0, SVG Export Plug-In . SVG Version: 6.00 Build 0)  -->
<svg version="1.1" id="Layer_1" xmlns="http://www.w3.org/2000/svg" xmlns:xlink="http://www.w3.org/1999/xlink" x="0px" y="0px"
	 viewBox="0 0 166.5 282.7" style="enable-background:new 0 0 166.5 282.7;" xml:space="preserve">
<style type="text/css">
	.st0{fill:#E0E02B;}
	.st1{fill:#E0DC3D;stroke:#E0DC3D;stroke-width:2;stroke-miterlimit:10;}
	.st2{fill:#DBD456;}
	.st3{fill:none;stroke:#76797D;stroke-width:5;stroke-miterlimit:10;}
	.st4{fill:#EABA86;}
	.st5{fill:#704D24;}
	.st6{fill:#CACBCC;}
	.st7{fill:#E2E2E2;}
	.st8{fill:#76797D;}
</style>
<title>przychodniaY</title>
<path class="st0" d="M161,160.3c4,5.8,4,13.5,0,19.4l-70.7,96.4c-2,2.7-4.4,4.1-7.1,4.1c-2.7,0-5.1-1.4-7.1-4.1l-37.4-51l74.4-68.7
	v-0.2h40.8C156.7,156.2,159,157.6,161,160.3z"/>
<polygon class="st1" points="113.1,156.2 113.1,156.4 38.8,225.1 20.8,200.5 20.8,200.5 66.9,156.2 "/>
<path class="st2" d="M66.9,156.2l-46.1,44.3l0,0L5.5,179.7c-4-5.8-4-13.5,0-19.4c2-2.7,4.4-4.1,7.1-4.1H66.9z"/>
<path class="st3" d="M66.9,156.2H12.6c-2.7,0-5.1,1.4-7.1,4.1c-4,5.8-4,13.5,0,19.4l15.3,20.9l18,24.6l37.4,51
	c2,2.7,4.4,4.1,7.1,4.1c2.7,0,5.1-1.4,7.1-4.1l70.6-96.4c4-5.8,4-13.5,0-19.4c-2-2.7-4.4-4.1-7.1-4.1L66.9,156.2L66.9,156.2z"/>
<path class="st4" d="M115,29.5c0.8,2.8,1.2,5.8,1.2,8.7c0,18.1-14.8,45.9-33.1,45.9S50,56.3,50,38.2c0-0.4,0-0.8,0.1-1.2l11.6-8.1
	c6.9-4.8,16-5.2,23.3-1C85,27.9,99.2,38.7,115,29.5z"/>
<path class="st5" d="M113.2,24.6c-12.7,8.7-25.6-1.1-25.6-1.1c-9-5.2-20.3-4.8-28.8,1.2L51,30.1c4.4-17.7,22.3-28.4,40-24
	C100.9,8.5,109,15.3,113.2,24.6z"/>
<circle class="st6" cx="113.7" cy="119.7" r="5.1"/>
<path class="st7" d="M128.2,94.1c16.9,14.5,25.1,36.8,21.5,58.8H16.5c-3.8-23.1,5.4-46.5,24-60.7c1.1,7.1,3.2,14.1,6.3,20.6
	c-8,5.1-11.5,15-8.4,24l4.2,12l9.6-3.4l-1.7-4.8l-4.8,1.7l-2.6-7.3c-2.8-8,1.4-16.7,9.4-19.5c8-2.8,16.7,1.4,19.5,9.4l2.5,7.2
	l-4.8,1.7l1.7,4.8L81,135l-4.2-12c-3.7-10.4-15-16-25.5-12.6c-3.3-6.8-5.4-14.1-6.3-21.7c5.8-3.7,12.2-6.4,18.9-8
	c5.6,5.1,12,8.3,19.1,8.3s13.5-3.2,19.1-8.3c7.8,1.9,15.1,5.3,21.7,9.9c-1.5,6.7-4,13.2-7.4,19.2c-0.9-0.3-1.8-0.4-2.7-0.4
	c-5.7,0-10.3,4.5-10.3,10.2s4.5,10.3,10.2,10.3c5.7,0,10.3-4.5,10.3-10.2c0-2.8-1.1-5.4-3-7.3C124.1,106.6,126.6,100.5,128.2,94.1z"
	/>
<path class="st8" d="M106.3,76.7c34,9.9,56.1,45.1,47.7,81.3H12.2c-2.4-10.6-8.3-62.4,47.8-81.3c-9.3-10.8-15.1-26.6-15.1-38.5
	C44.9,17.1,62,0,83.1,0s38.2,17.1,38.2,38.2C121.3,50.1,115.5,65.9,106.3,76.7z M149.8,152.9c3.6-22-4.6-44.3-21.5-58.8
	c-1.6,6.4-4.1,12.6-7.5,18.3c4,4,4,10.4,0.1,14.4c-4,4-10.4,4-14.4,0.1c-4-4-4-10.4-0.1-14.4c1.9-1.9,4.5-3,7.2-3
	c0.9,0,1.8,0.2,2.7,0.4c3.5-6,6-12.4,7.5-19.2c-6.5-4.7-13.9-8-21.7-10c-5.6,5.1-12,8.3-19.1,8.3S69.6,85.8,64,80.7
	c-6.7,1.6-13,4.3-18.9,8c0.8,7.5,3,14.9,6.3,21.7c10.5-3.4,21.8,2.2,25.5,12.6l4.2,12l-9.6,3.4l-1.7-4.8l4.8-1.7l-2.5-7.2
	c-2.8-8-11.5-12.2-19.5-9.4s-12.2,11.5-9.4,19.5l2.5,7.2l4.8-1.7l1.7,4.8l-9.6,3.4l-4.2-12c-3.2-9,0.3-18.9,8.4-24
	c-3.1-6.5-5.3-13.4-6.3-20.6c-18.6,14.3-27.8,37.7-23.9,60.8H149.8z M118.8,119.8c0-2.8-2.3-5.1-5.1-5.1s-5.1,2.3-5.1,5.1
	c0,2.8,2.3,5.1,5.1,5.1l0,0C116.5,124.9,118.8,122.6,118.8,119.8C118.8,119.7,118.8,119.7,118.8,119.8L118.8,119.8z M116.2,38.2
	c0-2.9-0.4-5.9-1.2-8.7c-15.8,9.2-30-1.6-30-1.6c-7.3-4.2-16.4-3.8-23.3,1L50,37c0,0.4-0.1,0.8-0.1,1.2C50,56.3,64.8,84,83.1,84
	S116.2,56.3,116.2,38.2z M87.6,23.4c0,0,12.9,9.8,25.6,1.1C105.8,7.9,86.3,0.4,69.6,7.9C60.4,12,53.5,20.2,51.1,30.1l7.7-5.4
	C67.3,18.7,78.6,18.2,87.6,23.4z"/>
</svg>
