<svg id="Layer_1" data-name="Layer 1" xmlns="http://www.w3.org/2000/svg" viewBox="0 0 462.76 754.29"><defs><style>.cls-1{fill:#353535;}.cls-2{fill:#424242;}.cls-3{fill:#2d333c;}.cls-4{fill:#1b1e23;}.cls-5{fill:#1e1e1e;}.cls-6{fill:#292929;}.cls-7{opacity:0.68;}.cls-8{fill:#b7b7b7;}</style></defs><title>logoNight</title><polygon class="cls-1" points="7.5 200.14 7.5 375.92 28.86 367.37 101.79 294.44 7.5 200.14"/><polygon class="cls-1" points="122.57 38.5 95.07 11 7.5 46.03 7.5 80.8 122.57 195.88 122.57 38.5"/><polygon class="cls-2" points="229.98 166.25 229.98 145.91 122.57 38.5 122.57 195.88 161.46 234.76 229.98 166.25"/><polygon class="cls-3" points="229.98 303.28 229.98 285.6 221.14 294.44 229.98 303.28"/><polygon class="cls-4" points="299.82 215.75 229.98 285.6 229.98 303.28 280.83 354.13 337.38 329.88 337.38 253.31 299.82 215.75"/><polygon class="cls-1" points="337.38 58.85 337.38 0 243.6 40.19 299.82 96.41 337.38 58.85"/><polygon class="cls-1" points="240.15 156.08 229.98 145.91 229.98 166.25 240.15 156.08"/><polygon class="cls-2" points="377.51 18.73 337.38 0 337.38 58.85 377.51 18.73"/><polygon class="cls-3" points="452.46 249.05 452.46 63.12 359.49 156.08 452.46 249.05"/><polygon class="cls-3" points="337.38 329.88 452.46 375.92 452.46 368.39 337.38 253.31 337.38 329.88"/><polygon class="cls-5" points="122.57 273.66 122.57 195.88 7.5 80.8 7.5 200.14 101.79 294.44 122.57 273.66"/><polygon class="cls-6" points="166.75 348.82 229.98 375.92 229.98 303.28 221.14 294.44 166.75 348.82"/><polygon class="cls-6" points="122.57 195.88 122.57 273.66 161.46 234.76 122.57 195.88"/><polygon class="cls-5" points="229.98 375.92 280.83 354.13 229.98 303.28 229.98 375.92"/><polygon class="cls-5" points="122.57 0 95.07 11 122.57 38.5 122.57 0"/><polygon class="cls-6" points="229.98 46.03 122.57 0 122.57 38.5 229.98 145.91 229.98 46.03"/><polygon class="cls-5" points="229.98 145.91 240.15 156.08 299.82 96.41 243.6 40.19 229.98 46.03 229.98 145.91"/><polygon class="cls-5" points="337.38 253.31 337.38 178.19 299.82 215.75 337.38 253.31"/><polygon class="cls-6" points="359.49 156.08 337.38 178.19 337.38 253.31 452.46 368.39 452.46 249.05 359.49 156.08"/><polygon class="cls-5" points="122.57 315.22 101.79 294.44 28.86 367.37 122.57 329.88 122.57 315.22"/><polygon class="cls-6" points="122.57 329.88 148.24 340.89 122.57 315.22 122.57 329.88"/><polygon class="cls-6" points="161.46 234.76 221.14 294.44 229.98 285.6 229.98 166.25 161.46 234.76"/><polygon class="cls-5" points="337.38 58.85 299.82 96.41 337.38 133.97 337.38 58.85"/><polygon class="cls-5" points="229.98 166.25 229.98 285.6 299.82 215.75 240.15 156.08 229.98 166.25"/><polygon class="cls-6" points="337.38 133.97 359.49 156.08 452.46 63.12 452.46 53.7 377.51 18.73 337.38 58.85 337.38 133.97"/><polygon class="cls-5" points="101.79 294.44 122.57 315.22 122.57 273.66 101.79 294.44"/><polygon class="cls-6" points="161.46 234.76 122.57 273.66 122.57 315.22 148.24 340.89 166.75 348.82 221.14 294.44 161.46 234.76"/><polygon class="cls-5" points="299.82 96.41 240.15 156.08 299.82 215.75 337.38 178.19 337.38 133.97 299.82 96.41"/><polygon class="cls-6" points="337.38 178.19 359.49 156.08 337.38 133.97 337.38 178.19"/><g class="cls-7"><path class="cls-8" d="M122.64,212.37V177.79l-25,33.5a6.78,6.78,0,0,1-10,0L62.7,177.79v34.58H52.35v-48.9a4,4,0,0,1,1.76-3.62,7.86,7.86,0,0,1,4.39-1.15,7.47,7.47,0,0,1,3.23.58,5.94,5.94,0,0,1,2.17,1.88l28.88,39.35,29.11-39.35a6.38,6.38,0,0,1,2.06-1.88,6.52,6.52,0,0,1,3-.58,7.86,7.86,0,0,1,4.39,1.15,4,4,0,0,1,1.76,3.62v48.9Z" transform="translate(-35.5 -12)"/><path class="cls-8" d="M193.83,200.28H158.42l-7.28,12.09H138l29.7-48.51a13.53,13.53,0,0,1,3.23-3.7,8.66,8.66,0,0,1,5.4-1.46,8.51,8.51,0,0,1,5.32,1.46,13.53,13.53,0,0,1,3.23,3.7l29.56,48.51H201.25Zm-30.08-9H188.5l-12.38-20.71Z" transform="translate(-35.5 -12)"/><path class="cls-8" d="M230.88,197.35v15h-11.4V159.85h41a39.84,39.84,0,0,1,9.15.89,13.29,13.29,0,0,1,5.93,2.93,11.13,11.13,0,0,1,3.19,5.27,28.73,28.73,0,0,1,.93,7.85v4.55a28.19,28.19,0,0,1-.9,7.77,9.82,9.82,0,0,1-3.11,4.93,13.06,13.06,0,0,1-5.89,2.58,48.76,48.76,0,0,1-9.3.73Zm37.36-20.09c0-2.83-.59-4.75-1.76-5.78s-3.29-1.54-6.34-1.54H230.88v17.94h29.41c3,0,5.07-.47,6.23-1.42s1.72-2.81,1.72-5.59Z" transform="translate(-35.5 -12)"/><path class="cls-8" d="M298.17,197.35v15h-11.4V159.85h41a39.84,39.84,0,0,1,9.15.89,13.25,13.25,0,0,1,5.92,2.93,11,11,0,0,1,3.19,5.27,28.31,28.31,0,0,1,.94,7.85v4.55a28.19,28.19,0,0,1-.9,7.77,9.82,9.82,0,0,1-3.11,4.93,13.06,13.06,0,0,1-5.89,2.58,48.76,48.76,0,0,1-9.3.73Zm37.36-20.09c0-2.83-.59-4.75-1.76-5.78s-3.29-1.54-6.34-1.54H298.17v17.94h29.41q4.5,0,6.22-1.42t1.73-5.59Z" transform="translate(-35.5 -12)"/><path class="cls-8" d="M393.89,212.37l-28.51-25.64v25.64H354.06V159.85h11.32V185l27.91-25.11h15.38l-29.26,25.49,30.08,27Z" transform="translate(-35.5 -12)"/><path class="cls-8" d="M466.2,200.28H430.79l-7.27,12.09H410.39l29.71-48.51a13.5,13.5,0,0,1,3.22-3.7,8.66,8.66,0,0,1,5.4-1.46,8.54,8.54,0,0,1,5.33,1.46,13.5,13.5,0,0,1,3.22,3.7l29.56,48.51h-13.2Zm-30.08-9h24.76L448.5,170.56Z" transform="translate(-35.5 -12)"/></g><path class="cls-3" d="M489.67,422.71a49.18,49.18,0,0,1,0,55.53L287.23,754.58q-8.61,11.71-20.35,11.71t-20.32-11.71l-107-146.1,213-197V411H469.32Q481.05,411,489.67,422.71Z" transform="translate(-35.5 -12)"/><polygon class="cls-4" points="317 399 317 399.5 104.02 596.48 52.42 526.06 52.5 526 184.5 399 317 399"/><path class="cls-6" d="M220,411,88,538l-.08.06L44.09,478.24a49.18,49.18,0,0,1,0-55.53Q52.65,411,64.44,411Z" transform="translate(-35.5 -12)"/></svg>