<svg id="Layer_1" data-name="Layer 1" xmlns="http://www.w3.org/2000/svg" viewBox="0 0 462.76 754.29"><defs><style>.cls-1{fill:#baccb2;}.cls-2{fill:#ccd6c8;}.cls-3{fill:#ccd1d0;}.cls-4{fill:#a5a8a7;}.cls-5{fill:#c4c4c4;}.cls-6{fill:#e8e8e8;}.cls-7{fill:#e0e0df;}.cls-8{opacity:0.68;}.cls-9{fill:#2d2c28;}</style></defs><title>logoMorning</title><polygon class="cls-1" points="7.5 200.14 7.5 375.92 28.86 367.37 101.79 294.44 7.5 200.14"/><polygon class="cls-1" points="122.57 38.5 95.07 11 7.5 46.03 7.5 80.8 122.57 195.88 122.57 38.5"/><polygon class="cls-2" points="229.98 166.25 229.98 145.91 122.57 38.5 122.57 195.88 161.46 234.76 229.98 166.25"/><polygon class="cls-3" points="229.98 303.28 229.98 285.6 221.14 294.44 229.98 303.28"/><polygon class="cls-4" points="299.82 215.75 229.98 285.6 229.98 303.28 280.83 354.13 337.38 329.88 337.38 253.31 299.82 215.75"/><polygon class="cls-1" points="337.38 58.85 337.38 0 243.6 40.19 299.82 96.41 337.38 58.85"/><polygon class="cls-1" points="240.15 156.08 229.98 145.91 229.98 166.25 240.15 156.08"/><polygon class="cls-2" points="377.51 18.73 337.38 0 337.38 58.85 377.51 18.73"/><polygon class="cls-3" points="452.46 249.05 452.46 63.12 359.49 156.08 452.46 249.05"/><polygon class="cls-3" points="337.38 329.88 452.46 375.92 452.46 368.39 337.38 253.31 337.38 329.88"/><polygon class="cls-5" points="122.57 273.66 122.57 195.88 7.5 80.8 7.5 200.14 101.79 294.44 122.57 273.66"/><polygon class="cls-6" points="166.75 348.82 229.98 375.92 229.98 303.28 221.14 294.44 166.75 348.82"/><polygon class="cls-6" points="122.57 195.88 122.57 273.66 161.46 234.76 122.57 195.88"/><polygon class="cls-5" points="229.98 375.92 280.83 354.13 229.98 303.28 229.98 375.92"/><polygon class="cls-7" points="122.57 0 95.07 11 122.57 38.5 122.57 0"/><polygon class="cls-6" points="229.98 46.03 122.57 0 122.57 38.5 229.98 145.91 229.98 46.03"/><polygon class="cls-5" points="229.98 145.91 240.15 156.08 299.82 96.41 243.6 40.19 229.98 46.03 229.98 145.91"/><polygon class="cls-5" points="337.38 253.31 337.38 178.19 299.82 215.75 337.38 253.31"/><polygon class="cls-6" points="359.49 156.08 337.38 178.19 337.38 253.31 452.46 368.39 452.46 249.05 359.49 156.08"/><polygon class="cls-5" points="122.57 315.22 101.79 294.44 28.86 367.37 122.57 329.88 122.57 315.22"/><polygon class="cls-6" points="122.57 329.88 148.24 340.89 122.57 315.22 122.57 329.88"/><polygon class="cls-6" points="161.46 234.76 221.14 294.44 229.98 285.6 229.98 166.25 161.46 234.76"/><polygon class="cls-5" points="337.38 58.85 299.82 96.41 337.38 133.97 337.38 58.85"/><polygon class="cls-5" points="229.98 166.25 229.98 285.6 299.82 215.75 240.15 156.08 229.98 166.25"/><polygon class="cls-6" points="337.38 133.97 359.49 156.08 452.46 63.12 452.46 53.7 377.51 18.73 337.38 58.85 337.38 133.97"/><polygon class="cls-5" points="101.79 294.44 122.57 315.22 122.57 273.66 101.79 294.44"/><polygon class="cls-6" points="161.46 234.76 122.57 273.66 122.57 315.22 148.24 340.89 166.75 348.82 221.14 294.44 161.46 234.76"/><polygon class="cls-5" points="299.82 96.41 240.15 156.08 299.82 215.75 337.38 178.19 337.38 133.97 299.82 96.41"/><polygon class="cls-6" points="337.38 178.19 359.49 156.08 337.38 133.97 337.38 178.19"/><g class="cls-8"><path class="cls-9" d="M121.72,212.37V178.22L97.05,211.3a6.68,6.68,0,0,1-9.93,0l-24.6-33.08v34.15H52.3V164.08A4,4,0,0,1,54,160.5a7.73,7.73,0,0,1,4.33-1.14,7.44,7.44,0,0,1,3.19.57,6,6,0,0,1,2.15,1.86l28.52,38.87L121,161.79a6.34,6.34,0,0,1,2-1.86,6.52,6.52,0,0,1,3-.57,7.76,7.76,0,0,1,4.33,1.14,4,4,0,0,1,1.74,3.58v48.29Z" transform="translate(-35.5 -12)"/><path class="cls-9" d="M192,200.43h-35l-7.19,11.94h-13l29.33-47.91a13.18,13.18,0,0,1,3.19-3.65,8.46,8.46,0,0,1,5.33-1.45,8.32,8.32,0,0,1,5.26,1.45,13.18,13.18,0,0,1,3.19,3.65l29.19,47.91h-13Zm-29.71-8.9h24.45l-12.23-20.46Z" transform="translate(-35.5 -12)"/><path class="cls-9" d="M228.63,197.54v14.83H217.36V160.5h40.46a39,39,0,0,1,9,.88,13,13,0,0,1,5.85,2.89,11,11,0,0,1,3.15,5.21,28,28,0,0,1,.92,7.75v4.49a28.06,28.06,0,0,1-.88,7.68,9.75,9.75,0,0,1-3.08,4.87,13,13,0,0,1-5.82,2.55,48.46,48.46,0,0,1-9.18.72Zm36.89-19.85q0-4.19-1.74-5.7t-6.26-1.53H228.63v17.72h29c3,0,5-.46,6.15-1.4s1.7-2.78,1.7-5.52Z" transform="translate(-35.5 -12)"/><path class="cls-9" d="M295.08,197.54v14.83H283.82V160.5h40.45a38.94,38.94,0,0,1,9,.88,13.08,13.08,0,0,1,5.86,2.89,10.91,10.91,0,0,1,3.14,5.21,28,28,0,0,1,.93,7.75v4.49a28,28,0,0,1-.89,7.68,9.74,9.74,0,0,1-3.07,4.87,13,13,0,0,1-5.82,2.55,48.5,48.5,0,0,1-9.19.72ZM332,177.69q0-4.19-1.74-5.7T324,170.46h-28.9v17.72h29.05c3,0,5-.46,6.15-1.4s1.7-2.78,1.7-5.52Z" transform="translate(-35.5 -12)"/><path class="cls-9" d="M389.62,212.37,361.47,187v25.33H350.28V160.5h11.19v24.79L389,160.5h15.18l-28.89,25.17L405,212.37Z" transform="translate(-35.5 -12)"/><path class="cls-9" d="M461,200.43h-35l-7.19,11.94h-13l29.34-47.91a13.31,13.31,0,0,1,3.18-3.65,8.51,8.51,0,0,1,5.34-1.45,8.36,8.36,0,0,1,5.26,1.45,13.31,13.31,0,0,1,3.18,3.65l29.19,47.91h-13Zm-29.71-8.9h24.45l-12.23-20.46Z" transform="translate(-35.5 -12)"/></g><path class="cls-3" d="M489.67,422.71a49.18,49.18,0,0,1,0,55.53L287.23,754.58q-8.61,11.71-20.35,11.71t-20.32-11.71l-107-146.1,213-197V411H469.32Q481.05,411,489.67,422.71Z" transform="translate(-35.5 -12)"/><polygon class="cls-4" points="317 399 317 399.5 104.02 596.48 52.42 526.06 52.5 526 184.5 399 317 399"/><path class="cls-7" d="M220,411,88,538l-.08.06L44.09,478.24a49.18,49.18,0,0,1,0-55.53Q52.65,411,64.44,411Z" transform="translate(-35.5 -12)"/></svg>