<svg id="Layer_1" data-name="Layer 1" xmlns="http://www.w3.org/2000/svg" viewBox="0 0 175.76 284.92"><defs><style>.cls-1{fill:#c1c1c1;}.cls-2{fill:#041823;}.cls-3{fill:#842525;}.cls-4{fill:#303030;}.cls-5{fill:#f3f3f3;}.cls-6{fill:#151516;}.cls-7{fill:#7a1c1c;}.cls-8{fill:#021019;}.cls-9{fill:none;stroke:#c1c1c1;stroke-miterlimit:10;stroke-width:5px;}</style></defs><title>parking</title><path class="cls-1" d="M102.5,28.36a40.7,40.7,0,0,0-59.69,0h0a2.7,2.7,0,0,0,0,3.67,2.38,2.38,0,0,0,3.48,0h0A36,36,0,0,1,99,32a2.38,2.38,0,0,0,3.48,0A2.7,2.7,0,0,0,102.5,28.36Z" transform="translate(-3.5 -2.33)"/><path class="cls-1" d="M92.36,39.08a26.88,26.88,0,0,0-39.38,0,2.71,2.71,0,0,0,0,3.69,2.39,2.39,0,0,0,3.5,0h0a22.17,22.17,0,0,1,32.41,0,2.38,2.38,0,0,0,3.49,0,2.7,2.7,0,0,0,0-3.67h0Z" transform="translate(-3.5 -2.33)"/><path class="cls-1" d="M82.35,49.62a13.22,13.22,0,0,0-19.37,0,2.7,2.7,0,0,0,0,3.69,2.38,2.38,0,0,0,3.5,0h0a8.47,8.47,0,0,1,12.4,0,2.38,2.38,0,0,0,3.49,0,2.7,2.7,0,0,0,0-3.67Z" transform="translate(-3.5 -2.33)"/><path class="cls-1" d="M143.07,22.15v10.7h4.7c2.73,0,4.41-1.63,4.41-5.09v-.52c0-3.44-1.68-5.09-4.41-5.09Zm0,15.24V47.65c0,1.2-1.36,1.81-2.74,1.81s-2.73-.61-2.73-1.81V18.85a.13.13,0,0,1,0-.06,1.88,1.88,0,0,1,2-1.71h8.45c5.33,0,9.53,2.73,9.53,10v.27c0,7.26-4.32,10.05-9.87,10.05Z" transform="translate(-3.5 -2.33)"/><path class="cls-1" d="M148.91,98.79V65.84h-3V98.17ZM137.4,132.34a12.53,12.53,0,0,0,1.48,15.1,11,11,0,0,0,16.15,0,12.55,12.55,0,0,0,1.49-15.09v-.08c-.08-.14-.17-.26-.26-.4l-.13-.17-.22-.31-.22-.27-.18-.22-.43-.48a11,11,0,0,0-16.15,0l-.43.48-.27.21-.21.27-.23.31-.13.17-.26.4ZM23.26,133.93a12.51,12.51,0,0,0,2.31,13.5,11,11,0,0,0,16.15,0,12.55,12.55,0,0,0,1.35-15.06v-.08l-.26-.4-.13-.17-.22-.31-.22-.27-.18-.22-.43-.48-.42-.42-.07-.07-.37-.33a11,11,0,0,0-14.37,0l-.35.31L26,130l-.34.34-.08.08-.39.43-.14.18-.25.31-.17.22-.2.28-.17.25-.16.27-.18.29-.12.22-.18.34-.09.18c-.06.14-.18.26-.18.4A.37.37,0,0,0,23.26,133.93Zm-14.77-3.3a2.42,2.42,0,0,0,1.36,2.2l7.68,3.59a17.71,17.71,0,0,1,1.7-5.52c.12-.23.24-.47.37-.7a16,16,0,0,1,.86-1.38l.11-.15.35-.49a1.75,1.75,0,0,0,.16-.2,4.82,4.82,0,0,1,.36-.43l.15-.18c.17-.2.34-.4.53-.59a15.77,15.77,0,0,1,21.43-1.55,17.52,17.52,0,0,1,1.69,1.55l.57.63.08.11c.16.18.31.37.46.56A17.59,17.59,0,0,1,50,138.41h80.68a17.63,17.63,0,0,1,3.63-10.32V128l.44-.54.11-.14.48-.54a.3.3,0,0,0,.08-.08,16.07,16.07,0,0,1,8.35-4.72,15.85,15.85,0,0,1,3.22-.33,15.46,15.46,0,0,1,4,.52,16,16,0,0,1,7.57,4.53l.08.08c.16.18.33.36.48.54l.11.14.44.54v.06a17.38,17.38,0,0,1,3.63,10.31h4.06a4.35,4.35,0,0,0,4.21-4.44V120.48a10.84,10.84,0,0,0-1.42-5.38l-.78-1.36a15.45,15.45,0,0,0-10.12-7.5l-22.5-4.71c-5.39-1.13-10.36-4.35-13.63-6.68l-16.3-11.59c-.46-.33-.93-.65-1.41-1A31,31,0,0,0,88.66,77.4H58.8a31.38,31.38,0,0,0-22.9,10A36.8,36.8,0,0,1,17.19,98l-3.54.78a6.79,6.79,0,0,0-5.16,6.69Zm-5,0V105.48a12,12,0,0,1,9.08-11.74L16.12,93a31.84,31.84,0,0,0,16.24-9.23A36.26,36.26,0,0,1,58.74,72.25H88.63A35.88,35.88,0,0,1,109.55,79l16.3,11.59c2.92,2.09,7.32,5,11.83,5.9l3.27.69V65.84H122.28a6.33,6.33,0,0,1-6.15-6.47V44.85a1.82,1.82,0,0,1,0-.33,2.52,2.52,0,0,1,2.62-2.43,2.56,2.56,0,0,1,2.31,2.76V59.37a1.25,1.25,0,0,0,1.22,1.28h48a1.25,1.25,0,0,0,1.22-1.28V8.78a1.26,1.26,0,0,0-1.19-1.29h-48a1.26,1.26,0,0,0-1.22,1.29V28a2.47,2.47,0,0,1-4.93,0V8.81a6.34,6.34,0,0,1,6.15-6.48h48a6.32,6.32,0,0,1,6.19,6.45V59.4a6.32,6.32,0,0,1-6.19,6.44H153.84v34l6.37,1.34a20.39,20.39,0,0,1,13.39,9.92l.77,1.36a16.23,16.23,0,0,1,2.13,8V134a9.4,9.4,0,0,1-9.14,9.63h-4.67a16.82,16.82,0,0,1-11.31,11.92c-8.68,2.57-17.71-2.76-20.15-11.92H49.38a16.71,16.71,0,0,1-12.66,12.26c-8.86,1.78-17.42-4.34-19.12-13.68l-9.82-4.6A7.63,7.63,0,0,1,3.5,130.64Z" transform="translate(-3.5 -2.33)"/><path class="cls-2" d="M143.07,32.85V22.15h4.7c2.73,0,4.41,1.65,4.41,5.09v.52c0,3.46-1.68,5.09-4.41,5.09Z" transform="translate(-3.5 -2.33)"/><path class="cls-1" d="M31.14,138.92a2.75,2.75,0,0,0,.75,1.9,2.46,2.46,0,0,0,3.61,0,2.79,2.79,0,0,0,0-3.81,2.46,2.46,0,0,0-3.61,0A2.8,2.8,0,0,0,31.14,138.92Zm7.8,5.58a7.23,7.23,0,0,1-10.58,0,8.19,8.19,0,0,1,0-11.15,7.21,7.21,0,0,1,10.58,0l.06.06A8.15,8.15,0,0,1,38.94,144.5Z" transform="translate(-3.5 -2.33)"/><path class="cls-3" d="M8.49,130.63V105.48a6.79,6.79,0,0,1,5.16-6.69L17.19,98A36.8,36.8,0,0,0,35.9,87.37a31.38,31.38,0,0,1,22.9-10H88.66a31,31,0,0,1,16.75,4.91l-4.78,1.54a28.57,28.57,0,0,0-12-2.64H58.74a28.9,28.9,0,0,0-21,9.16,40.22,40.22,0,0,1-9.8,7.56A6.93,6.93,0,0,0,25.2,107a6.37,6.37,0,0,0,5.74,3.65h10.2a2.57,2.57,0,0,0,2.31-2.77l11.18.06a2.55,2.55,0,0,0,2.31,2.76h5.32L43.55,125.23a15.77,15.77,0,0,0-21.43,1.55c-.19.19-.36.39-.53.59l-.15.18a4.82,4.82,0,0,0-.36.43,1.75,1.75,0,0,1-.16.2l-.35.49-.11.15a16,16,0,0,0-.86,1.38c-.13.23-.25.47-.37.7a17.71,17.71,0,0,0-1.7,5.52l-7.68-3.59A2.42,2.42,0,0,1,8.49,130.63Z" transform="translate(-3.5 -2.33)"/><path class="cls-4" d="M28.36,133.35a8.19,8.19,0,0,0,0,11.15,7.23,7.23,0,0,0,10.58,0A8.15,8.15,0,0,0,39,133.41l-.06-.06A7.21,7.21,0,0,0,28.36,133.35Zm13.36,14.09a11,11,0,0,1-16.15,0,12.51,12.51,0,0,1-2.31-13.5.37.37,0,0,1,0-.11c0-.14.12-.26.18-.4l.09-.18.18-.34.12-.22.18-.29.16-.27.17-.25.2-.28.17-.22.25-.31.14-.18.39-.43.08-.08L26,130l.09-.09.35-.31a11,11,0,0,1,14.37,0l.37.33.07.07.42.42.43.48.18.22.22.27.22.31.13.17.26.4v.08A12.55,12.55,0,0,1,41.72,147.44Z" transform="translate(-3.5 -2.33)"/><path class="cls-1" d="M68.86,114.62H76.5a1.61,1.61,0,0,1,.31,0,2.55,2.55,0,0,1,2.31,2.76,2.52,2.52,0,0,1-2.62,2.44H68.86a2.62,2.62,0,0,1,0-5.2Z" transform="translate(-3.5 -2.33)"/><path class="cls-5" d="M123.17,105.42l-52.8,0V86.4H88.66a23.9,23.9,0,0,1,13.93,4.45l16.3,11.6c1.13.8,2.31,1.56,3.51,2.25A2.4,2.4,0,0,1,123.17,105.42Z" transform="translate(-3.5 -2.33)"/><path class="cls-6" d="M145.15,140.83a2.81,2.81,0,0,1,0-3.82,2.48,2.48,0,0,1,3.61,0,2.81,2.81,0,0,1,0,3.82A2.48,2.48,0,0,1,145.15,140.83Z" transform="translate(-3.5 -2.33)"/><path class="cls-4" d="M141.67,144.49a7.22,7.22,0,0,0,10.58,0,8.19,8.19,0,0,0,0-11.15,7.21,7.21,0,0,0-10.58,0A8.18,8.18,0,0,0,141.67,144.49ZM155,147.44a11,11,0,0,1-16.15,0,12.53,12.53,0,0,1-1.48-15.1v-.08l.26-.4.13-.17.23-.31.21-.27.27-.21.43-.48a11,11,0,0,1,16.15,0l.43.48.18.22.22.27.22.31.13.17c.09.14.18.26.26.4v.08A12.55,12.55,0,0,1,155,147.44Z" transform="translate(-3.5 -2.33)"/><path class="cls-1" d="M70.37,105.47l52.8,0a2.4,2.4,0,0,0-.77-.72c-1.2-.69-2.38-1.45-3.51-2.25l-16.3-11.6A23.9,23.9,0,0,0,88.66,86.4H70.37ZM25.2,107a6.93,6.93,0,0,1,2.74-9.1,40.22,40.22,0,0,0,9.8-7.56,28.9,28.9,0,0,1,21-9.16H88.66a28.57,28.57,0,0,1,12,2.64,29.46,29.46,0,0,1,4.72,2.75l16.3,11.59a36.93,36.93,0,0,0,3.13,2,7.63,7.63,0,0,1,3.72,6.66,3.78,3.78,0,0,1-3.67,3.87H56.94A2.55,2.55,0,0,1,54.63,108a2.5,2.5,0,0,1,2.62-2.43h8.19V86.46h-6.7A24.12,24.12,0,0,0,41.17,94.1a44.44,44.44,0,0,1-11,8.43,1.58,1.58,0,0,0-.81,1.42,1.51,1.51,0,0,0,1.5,1.53H41.14a2.62,2.62,0,0,1,0,5.2H30.94A6.37,6.37,0,0,1,25.2,107Z" transform="translate(-3.5 -2.33)"/><path class="cls-2" d="M143.07,47.65V37.39h4.7c5.55,0,9.87-2.79,9.87-10v-.27c0-7.26-4.2-10-9.53-10h-8.45a1.88,1.88,0,0,0-2,1.71.13.13,0,0,0,0,.06v28.8c0,1.2,1.35,1.81,2.73,1.81S143.07,48.85,143.07,47.65Zm27.21,13h-48a1.25,1.25,0,0,1-1.22-1.28V44.85a2.56,2.56,0,0,0-2.31-2.76l0-11.69A2.54,2.54,0,0,0,121.09,28V8.78a1.26,1.26,0,0,1,1.22-1.29h48a1.26,1.26,0,0,1,1.19,1.29V59.37A1.25,1.25,0,0,1,170.28,60.65Z" transform="translate(-3.5 -2.33)"/><path class="cls-1" d="M152.25,144.5a7.22,7.22,0,0,1-10.58,0,8.18,8.18,0,0,1,0-11.14,7.21,7.21,0,0,1,10.58,0,8.19,8.19,0,0,1,0,11.15Zm-7.1-7.49a2.81,2.81,0,0,0,0,3.82,2.48,2.48,0,0,0,3.61,0,2.81,2.81,0,0,0,0-3.82A2.48,2.48,0,0,0,145.15,137Z" transform="translate(-3.5 -2.33)"/><path class="cls-7" d="M76.5,114.62H68.86a2.62,2.62,0,0,0,0,5.2H76.5a2.52,2.52,0,0,0,2.62-2.44,2.55,2.55,0,0,0-2.31-2.76A1.61,1.61,0,0,0,76.5,114.62Zm-14.24-3.89h62.57a3.78,3.78,0,0,0,3.67-3.87,7.63,7.63,0,0,0-3.72-6.66,36.93,36.93,0,0,1-3.13-2L105.35,86.6a29.46,29.46,0,0,0-4.72-2.75l4.78-1.54c.48.3,1,.62,1.41,1l16.3,11.59c3.27,2.33,8.24,5.55,13.63,6.68l22.5,4.71a15.45,15.45,0,0,1,10.12,7.5l.78,1.36a10.84,10.84,0,0,1,1.42,5.38V134a4.35,4.35,0,0,1-4.21,4.44H163.3a17.38,17.38,0,0,0-3.63-10.31V128l-.44-.54-.11-.14c-.15-.18-.32-.36-.48-.54l-.08-.08a16,16,0,0,0-7.57-4.53,15.46,15.46,0,0,0-4-.52,15.85,15.85,0,0,0-3.22.33,16.07,16.07,0,0,0-8.35,4.72.3.3,0,0,1-.08.08l-.48.54-.11.14-.44.54v.05a17.63,17.63,0,0,0-3.63,10.32H50a17.59,17.59,0,0,0-3.65-10.33c-.15-.19-.3-.38-.46-.56l-.08-.11-.57-.63a17.52,17.52,0,0,0-1.69-1.55l18.71-14.49Z" transform="translate(-3.5 -2.33)"/><path class="cls-6" d="M31.89,140.82a2.75,2.75,0,0,1-.75-1.9,2.8,2.8,0,0,1,.75-1.91,2.46,2.46,0,0,1,3.61,0,2.79,2.79,0,0,1,0,3.81A2.46,2.46,0,0,1,31.89,140.82Z" transform="translate(-3.5 -2.33)"/><path class="cls-5" d="M41.14,105.48H30.86a1.51,1.51,0,0,1-1.5-1.53,1.58,1.58,0,0,1,.81-1.42,44.44,44.44,0,0,0,11-8.43,24.12,24.12,0,0,1,17.57-7.64h6.7v19.08H57.25A2.5,2.5,0,0,0,54.63,108l-11.18-.06A2.55,2.55,0,0,0,41.14,105.48Z" transform="translate(-3.5 -2.33)"/><path class="cls-8" d="M12.39,180.51a17.82,17.82,0,0,1,0-20.1q3.11-4.24,7.37-4.24H166.29q4.25,0,7.36,4.24a17.78,17.78,0,0,1,0,20.1l-73.26,100q-3.12,4.23-7.37,4.23t-7.36-4.23L49.4,231,30.69,205.48Z" transform="translate(-3.5 -2.33)"/><path class="cls-9" d="M49.4,231l36.26,49.5q3.12,4.23,7.36,4.23t7.37-4.23l73.26-100a17.78,17.78,0,0,0,0-20.1q-3.12-4.24-7.36-4.24H19.76q-4.26,0-7.37,4.24a17.82,17.82,0,0,0,0,20.1l18.3,25Z" transform="translate(-3.5 -2.33)"/></svg>