<svg id="Layer_1" data-name="Layer 1" xmlns="http://www.w3.org/2000/svg" viewBox="0 0 166.49 283.3"><defs><style>.cls-1{fill:#d31818;}.cls-2{fill:#c62222;stroke:#c62222;stroke-width:2px;}.cls-2,.cls-4,.cls-8{stroke-miterlimit:10;}.cls-3{fill:#bc2b2b;}.cls-4,.cls-8{fill:none;stroke:#7a7a7a;}.cls-4{stroke-width:5px;}.cls-5{fill:#e4e6ea;}.cls-6{fill:#e01e43;}.cls-7{fill:#dbdb2c;}.cls-8{stroke-width:3px;}</style></defs><title>clubR</title><path class="cls-1" d="M161,162.38a17.15,17.15,0,0,1,0,19.38L90.34,278.15c-2,2.72-4.37,4.09-7.1,4.09s-5.09-1.37-7.07-4.09l-37.38-51,74.38-68.77v-.17h40.77Q158,158.26,161,162.38Z" transform="translate(0 -1.46)"/><polygon class="cls-2" points="113.12 156.79 113.12 156.97 38.8 225.71 20.79 201.13 20.82 201.12 66.88 156.79 113.12 156.79"/><path class="cls-3" d="M66.88,158.25,20.79,202.57h0L5.49,181.72a17.18,17.18,0,0,1,0-19.38c2-2.73,4.37-4.1,7.1-4.09Z" transform="translate(0 -1.46)"/><path class="cls-4" d="M66.88,158.25H12.59c-2.73,0-5.11,1.36-7.1,4.09a17.18,17.18,0,0,0,0,19.38l15.3,20.87,18,24.58,37.36,51c2,2.72,4.36,4.09,7.09,4.09s5.09-1.37,7.1-4.09L161,181.74a17.15,17.15,0,0,0,0-19.38q-3-4.1-7.1-4.09h-87Z" transform="translate(0 -1.46)"/><path class="cls-5" d="M145.42,3.46a2.93,2.93,0,0,1,.81,4.07L136.07,22.7c3.3,2.21,5.22,4.73,5.22,7.55a6.26,6.26,0,0,1-.15,1.31c-.93,5.35-7.14,16-18.55,31.93A4.71,4.71,0,0,1,121,65.63Q110.71,79.85,95.2,99.25a12.5,12.5,0,0,1-6.69,4.3v32.28c9.39.21,32.25,1.6,32.25,10.23,0,9.77-29.3,10.26-35.18,10.26s-35.18-.49-35.18-10.26c0-8.63,22.87-10,32.25-10.23V103.66a12.5,12.5,0,0,1-6.86-4.18C69,91.4,57.92,78,48.09,65.15a4.61,4.61,0,0,1-1.18-1.55c-2.59-3.42-5.07-6.77-7.35-10a24.74,24.74,0,1,1,12-37.81,160.34,160.34,0,0,1,32.54-3.17c17.69,0,35.76,2.61,46.73,7.29l10.5-15.69A2.94,2.94,0,0,1,145.42,3.46Zm-10,26.79c0-.75-.91-1.71-2.56-2.75l-4.59,6.84C133.15,32.82,135.42,31.26,135.42,30.25Zm-15.56,6.11,7.65-11.43c-8.5-3.24-23.51-6.4-43.39-6.4a159.75,159.75,0,0,0-29.6,2.64c0,.07,0,.15.08.23.24.62.46,1.25.65,1.9,0,.15.08.3.12.45.16.59.31,1.19.43,1.79.06.3.09.59.14.88.07.48.16.95.2,1.44q.12,1.2.12,2.4A23.75,23.75,0,0,1,56,33.53c0,.34-.11.66-.17,1a22.09,22.09,0,0,1-.51,2.28c-.06.2-.08.4-.14.6a230.12,230.12,0,0,0,28.92,1.65C99.92,39.05,111.63,37.89,119.86,36.36Zm-.53,21.57c5.63-7.92,9.58-14,12.17-18.53a60.5,60.5,0,0,1-8.13,2.25L113.77,56A23.58,23.58,0,0,1,119.33,57.93Zm-11.86-3.08L115.39,43A246.25,246.25,0,0,1,84.11,44.9,231.53,231.53,0,0,1,52.81,43v0l-2.14-.33-3.92-.61,0,0c-1.32-.25-2.56-.52-3.75-.8a56.21,56.21,0,0,1-5.8-1.62c.44.71.89,1.44,1.37,2.19.13.18.26.38.38.58.48.74,1,1.48,1.48,2.24l.57.85,1.58,2.3.43.61.15.22c2.12,3,4.45,6.21,6.91,9.48,4.51-2.31,14.45-4.36,35.5-4.36A171.16,171.16,0,0,1,107.47,54.85Zm7.4,7.41a43.65,43.65,0,0,0-4.63-1l-1.63,2.43A50.87,50.87,0,0,0,114.87,62.26Zm-3.76,6.92-1.36.27c-1.72.3-3.58.57-5.53.8L88.68,93.44a2.93,2.93,0,0,1-4.06.81,2.94,2.94,0,0,1-.81-4.07l12.9-19.25c-3.63.23-7.39.37-11.13.37s-17-.16-26.94-2.12c8,10.23,16.21,20.08,21.64,26.53A6.67,6.67,0,0,0,85.4,98.1h.09a6.7,6.7,0,0,0,5.13-2.51C98.68,85.51,105.45,76.76,111.11,69.18Zm3.33,76.88c-2.45-1.63-11.29-4.08-25.92-4.37V145a2.94,2.94,0,0,1-5.87,0v-3.32c-14.63.3-23.47,2.74-25.92,4.37,2.61,1.74,12.46,4.4,28.83,4.4h0C102,150.46,111.83,147.8,114.44,146.06ZM100.86,64.72l2.89-4.31c-5-.5-11.1-.84-18.17-.84-14.48,0-25.54,1.36-30.66,2.69,5.36,1.55,17.11,3.17,30.66,3.17C91.36,65.43,96.47,65.15,100.86,64.72ZM50.4,30.25a18.12,18.12,0,0,0-.16-2.33c0-.17-.05-.33-.07-.5a19.74,19.74,0,0,0-.42-2,2.68,2.68,0,0,0-.07-.27,19.18,19.18,0,0,0-2-4.54A18.86,18.86,0,1,0,31.53,49.13,18.44,18.44,0,0,0,36,48.58c-.76-1.12-1.44-2.15-2.08-3.14l-.13-.21-.09-.13C27.83,35.92,27,32.33,27,30.25h.35a2.94,2.94,0,0,1,2.17-1.95,2.86,2.86,0,0,1,3.32,1.95h0a.37.37,0,0,0,0,.09h0s.35,1.11,3.33,2.53l.34.16.59.26.82.33.29.11c.36.13.74.27,1.15.4l.18.06c.43.15.89.29,1.37.43l.2.06,1.53.42.35.09,1.6.39.73.16,1.49.32c.79.16,1.62.31,2.51.47A18.86,18.86,0,0,0,50,33.77q.08-.35.12-.69A19,19,0,0,0,50.4,30.25Z" transform="translate(0 -1.46)"/><path class="cls-5" d="M127.51,24.93l-7.65,11.43c-8.23,1.53-19.94,2.69-35.74,2.69A230.12,230.12,0,0,1,55.2,37.4c.06-.2.08-.4.14-.6a22.09,22.09,0,0,0,.51-2.28c.06-.33.13-.65.17-1a23.75,23.75,0,0,0,.24-3.27q0-1.2-.12-2.4c0-.49-.13-1-.2-1.44,0-.29-.08-.58-.14-.88-.12-.6-.27-1.2-.43-1.79,0-.15-.07-.3-.12-.45-.19-.65-.41-1.28-.65-1.9,0-.08-.05-.16-.08-.23a159.75,159.75,0,0,1,29.6-2.64C104,18.53,119,21.69,127.51,24.93Z" transform="translate(0 -1.46)"/><path class="cls-5" d="M115.39,43l-7.92,11.83a171.16,171.16,0,0,0-21.89-1.14c-21,0-31,2-35.5,4.36-2.46-3.27-4.79-6.47-6.91-9.48L43,48.37l-.43-.61L41,45.46l-.57-.85c-.51-.76-1-1.5-1.48-2.24-.12-.2-.25-.4-.38-.58-.48-.75-.93-1.48-1.37-2.19A56.21,56.21,0,0,0,43,41.22c1.19.28,2.43.55,3.75.8l0,0,3.92.61L52.8,43v0a231.53,231.53,0,0,0,31.3,1.92A246.25,246.25,0,0,0,115.39,43Z" transform="translate(0 -1.46)"/><path class="cls-6" d="M109.75,69.45l1.36-.27c-5.66,7.58-12.43,16.33-20.49,26.41a6.7,6.7,0,0,1-5.13,2.51H85.4a6.67,6.67,0,0,1-5.12-2.39c-5.43-6.45-13.59-16.3-21.64-26.53,10,2,23.06,2.12,26.94,2.12s7.5-.14,11.13-.37L83.81,90.18a2.93,2.93,0,0,0,2.43,4.56,2.9,2.9,0,0,0,2.44-1.3l15.54-23.19C106.17,70,108,69.75,109.75,69.45Z" transform="translate(0 -1.46)"/><path class="cls-5" d="M88.52,141.69c14.63.29,23.47,2.74,25.92,4.37-2.61,1.74-12.47,4.4-28.86,4.4h0l0-2.52A2.94,2.94,0,0,0,88.52,145Z" transform="translate(0 -1.46)"/><path class="cls-6" d="M103.75,60.41l-2.89,4.31c-4.39.43-9.5.71-15.28.71-13.55,0-25.3-1.62-30.66-3.17C60,60.93,71.1,59.57,85.58,59.57,92.65,59.57,98.79,59.91,103.75,60.41Z" transform="translate(0 -1.46)"/><path class="cls-5" d="M85.58,147.94l0,2.52c-16.37,0-26.22-2.66-28.83-4.4,2.45-1.63,11.29-4.07,25.92-4.37V145A2.93,2.93,0,0,0,85.58,147.94Z" transform="translate(0 -1.46)"/><path class="cls-7" d="M50.24,27.92a18.12,18.12,0,0,1,.16,2.33,19,19,0,0,1-.24,2.83q0,.35-.12.69a18.86,18.86,0,0,1-.72,2.75c-.89-.16-1.72-.31-2.51-.47l-1.49-.32-.73-.16L43,35.18l-.35-.09-1.53-.42-.2-.06c-.48-.14-.94-.28-1.37-.43l-.18-.06c-.41-.13-.79-.27-1.15-.4l-.29-.11-.82-.33L36.51,33l-.34-.16c-3-1.42-3.33-2.51-3.33-2.53h0a.37.37,0,0,1,0-.09h0a2.86,2.86,0,0,0-3.32-1.95,2.94,2.94,0,0,0-2.17,1.95H27c0,2.08.88,5.67,6.79,14.85l.09.13.13.21c.64,1,1.32,2,2.08,3.14a18.44,18.44,0,0,1-4.51.55A18.88,18.88,0,1,1,47.72,20.61a19.18,19.18,0,0,1,2,4.54,2.68,2.68,0,0,1,.07.27,19.74,19.74,0,0,1,.42,2C50.19,27.59,50.22,27.75,50.24,27.92Z" transform="translate(0 -1.46)"/><path class="cls-8" d="M145.42,3.46a2.94,2.94,0,0,0-4.07.8L130.85,20c-11-4.68-29-7.29-46.73-7.29a160.34,160.34,0,0,0-32.54,3.17,24.75,24.75,0,1,0-12,37.81c2.28,3.19,4.76,6.54,7.35,10a4.61,4.61,0,0,0,1.18,1.55C57.92,78,69,91.4,75.79,99.48a12.5,12.5,0,0,0,6.86,4.18v32.17c-9.38.21-32.25,1.6-32.25,10.23,0,9.77,29.31,10.26,35.18,10.26s35.18-.49,35.18-10.26c0-8.63-22.86-10-32.25-10.23V103.55a12.5,12.5,0,0,0,6.69-4.3Q110.74,79.82,121,65.63a4.71,4.71,0,0,0,1.56-2.14c11.41-15.9,17.62-26.58,18.55-31.93a6.26,6.26,0,0,0,.15-1.31c0-2.82-1.92-5.34-5.22-7.55L146.23,7.53A2.93,2.93,0,0,0,145.42,3.46Z" transform="translate(0 -1.46)"/><path class="cls-8" d="M54.52,21.17a159.75,159.75,0,0,1,29.6-2.64c19.88,0,34.89,3.16,43.39,6.4l-7.65,11.43c-8.23,1.53-19.94,2.69-35.74,2.69A230.12,230.12,0,0,1,55.2,37.4c.06-.2.08-.4.14-.6a22.09,22.09,0,0,0,.51-2.28c.06-.33.13-.65.17-1a23.75,23.75,0,0,0,.24-3.27q0-1.2-.12-2.4c0-.49-.13-1-.2-1.44,0-.29-.08-.58-.14-.88-.12-.6-.27-1.2-.43-1.79,0-.15-.07-.3-.12-.45-.19-.65-.41-1.28-.65-1.9C54.57,21.32,54.55,21.24,54.52,21.17Z" transform="translate(0 -1.46)"/><path class="cls-8" d="M119.33,57.93A23.58,23.58,0,0,0,113.77,56l9.6-14.34a60.5,60.5,0,0,0,8.13-2.25C128.91,43.91,125,50,119.33,57.93Z" transform="translate(0 -1.46)"/><path class="cls-8" d="M110.24,61.26a43.65,43.65,0,0,1,4.63,1,50.87,50.87,0,0,1-6.26,1.43Z" transform="translate(0 -1.46)"/><path class="cls-8" d="M100.86,64.72c-4.39.43-9.5.71-15.28.71-13.55,0-25.3-1.62-30.66-3.17C60,60.93,71.1,59.57,85.58,59.57c7.07,0,13.21.34,18.17.84Z" transform="translate(0 -1.46)"/><path class="cls-8" d="M107.47,54.85a171.16,171.16,0,0,0-21.89-1.14c-21,0-31,2-35.5,4.36-2.46-3.27-4.79-6.47-6.91-9.48L43,48.37l-.43-.61L41,45.46l-.57-.85c-.51-.76-1-1.5-1.48-2.24-.12-.2-.25-.4-.38-.58-.48-.75-.93-1.48-1.37-2.19A56.21,56.21,0,0,0,43,41.22c1.19.28,2.43.55,3.75.8l0,0,3.92.61L52.8,43v0a231.53,231.53,0,0,0,31.3,1.92A246.25,246.25,0,0,0,115.39,43Z" transform="translate(0 -1.46)"/><path class="cls-8" d="M31.53,49.13A18.88,18.88,0,1,1,47.72,20.61a19.18,19.18,0,0,1,2,4.54,2.68,2.68,0,0,1,.07.27,19.74,19.74,0,0,1,.42,2c0,.17,0,.33.07.5a18.12,18.12,0,0,1,.16,2.33,19,19,0,0,1-.24,2.83q0,.35-.12.69a18.86,18.86,0,0,1-.72,2.75c-.89-.16-1.72-.31-2.51-.47l-1.49-.32-.73-.16L43,35.18l-.35-.09-1.53-.42-.2-.06c-.48-.14-.94-.28-1.37-.43l-.18-.06c-.41-.13-.79-.27-1.15-.4l-.29-.11-.82-.33L36.51,33l-.34-.16c-3-1.42-3.33-2.51-3.33-2.53h0a.37.37,0,0,1,0-.09h0a2.86,2.86,0,0,0-3.32-1.95,2.94,2.94,0,0,0-2.17,1.95H27c0,2.08.88,5.67,6.79,14.85l.09.13.13.21c.64,1,1.32,2,2.08,3.14A18.44,18.44,0,0,1,31.53,49.13Z" transform="translate(0 -1.46)"/><path class="cls-8" d="M85.58,147.94A2.94,2.94,0,0,0,88.52,145v-3.32c14.63.29,23.47,2.74,25.92,4.37-2.61,1.74-12.47,4.4-28.86,4.4h0c-16.37,0-26.22-2.66-28.83-4.4,2.45-1.63,11.29-4.07,25.92-4.37V145A2.93,2.93,0,0,0,85.58,147.94Z" transform="translate(0 -1.46)"/><path class="cls-8" d="M90.62,95.59a6.7,6.7,0,0,1-5.13,2.51H85.4a6.67,6.67,0,0,1-5.12-2.39c-5.43-6.45-13.59-16.3-21.64-26.53,10,2,23.06,2.12,26.94,2.12s7.5-.14,11.13-.37L83.81,90.18a2.93,2.93,0,0,0,2.43,4.56,2.9,2.9,0,0,0,2.44-1.3l15.54-23.19c2-.23,3.81-.5,5.53-.8l1.36-.27C105.45,76.76,98.68,85.51,90.62,95.59Z" transform="translate(0 -1.46)"/><path class="cls-8" d="M135.42,30.25c0,1-2.27,2.57-7.15,4.09l4.59-6.84C134.51,28.54,135.42,29.5,135.42,30.25Z" transform="translate(0 -1.46)"/></svg>