<?xml version="1.0" encoding="utf-8"?>
<!-- Generator: Adobe Illustrator 22.1.0, SVG Export Plug-In . SVG Version: 6.00 Build 0)  -->
<svg version="1.1" id="Layer_1" xmlns="http://www.w3.org/2000/svg" xmlns:xlink="http://www.w3.org/1999/xlink" x="0px" y="0px"
	 viewBox="0 0 166.5 278.4" style="enable-background:new 0 0 166.5 278.4;" xml:space="preserve">
<style type="text/css">
	.st0{fill:#E0E02B;}
	.st1{fill:#E0DC3D;stroke:#E0DC3D;stroke-width:2;stroke-miterlimit:10;}
	.st2{fill:#DBD456;}
	.st3{fill:none;stroke:#76797D;stroke-width:5;stroke-miterlimit:10;}
	.st4{fill:#76797D;}
	.st5{fill:#B2222A;}
	.st6{fill:#BF2B39;}
</style>
<title>sorY</title>
<path class="st0" d="M161,156c4,5.8,4,13.5,0,19.4l-70.7,96.4c-2,2.7-4.4,4.1-7.1,4.1c-2.7,0-5.1-1.4-7.1-4.1l-37.4-51l74.4-68.7
	v-0.2h40.8C156.7,151.9,159,153.3,161,156z"/>
<polygon class="st1" points="113.1,151.9 113.1,152.1 38.8,220.8 20.8,196.3 20.8,196.2 66.9,151.9 "/>
<path class="st2" d="M66.9,151.9l-46.1,44.3l0,0L5.5,175.4c-4-5.8-4-13.5,0-19.4c2-2.7,4.4-4.1,7.1-4.1H66.9z"/>
<path class="st3" d="M66.9,151.9H12.6c-2.7,0-5.1,1.4-7.1,4.1c-4,5.8-4,13.5,0,19.4l15.3,20.9l18,24.6l37.4,51
	c2,2.7,4.4,4.1,7.1,4.1c2.7,0,5.1-1.4,7.1-4.1l70.6-96.4c4-5.8,4-13.5,0-19.4c-2-2.7-4.4-4.1-7.1-4.1L66.9,151.9L66.9,151.9z"/>
<path class="st4" d="M149.8,14.2c18.9,18.9,18.9,49.6,0,68.5c0,0,0,0,0,0l-66.6,66.6L18.6,84.7H30l12.7,12.7l40.5,40.5L144.1,77
	c15.8-15.8,15.8-41.4,0-57.1c-7.6-7.6-17.8-11.8-28.5-11.8c-9.7,0-19.1,3.6-26.3,10.1l-5.9,5.5l-5.9-5.5C60.8,3.5,35.4,5,20.7,21.6
	C11.3,32.2,8.2,47,12.6,60.5H4.2C-2.6,34.7,12.8,8.4,38.5,1.6c15.8-4.2,32.6,0,44.7,11C102.3-4.8,131.6-4.1,149.8,14.2z"/>
<path class="st5" d="M144.1,19.9c15.8,15.8,15.8,41.3,0,57.1l-60.9,60.9L42.7,97.4l16.2-28.9l8.3,37.2c0.4,1.8,2,3.1,3.8,3.2h0.1
	c1.8,0,3.4-1.2,3.9-2.9l12.6-44l4,11.8c0.5,1.7,2.1,2.8,3.8,2.8h32.3c2.2,0,4-1.8,4-4s-1.8-4-4-4H98.3l-7.2-21.4
	c-0.5-1.7-2.1-2.9-3.9-2.8c-1.8,0-3.3,1.2-3.8,2.9L71.6,88.5L65,59l18.2-35.3l5.9-5.5C105.1,4,129.2,4.8,144.1,19.9L144.1,19.9z"/>
<path class="st4" d="M11.7,68.5h24.4l15.1-37.8c0.8-2.1,3-3.1,5.1-2.4c1.3,0.5,2.3,1.6,2.6,3L65,59l6.6,29.5l11.8-41.2
	c0.5-1.7,2-2.9,3.8-2.9c1.8-0.1,3.4,1,3.9,2.8l7.2,21.5h29.4c2.2,0,4,1.8,4,4s-1.8,4-4,4H95.3c-1.7,0-3.3-1.1-3.8-2.8l-4-11.8
	l-12.6,44c-0.5,1.7-2.1,2.9-3.9,2.9h-0.1c-1.8-0.1-3.4-1.4-3.8-3.2l-8.3-37.2l-5-22.7L42.5,74.1c-0.6,1.5-2.1,2.6-3.8,2.5H6.5
	c-2.2,0-4-1.8-4-4s1.8-4,4-4L11.7,68.5z"/>
<path class="st6" d="M83.2,23.7L65,59l-6.1-27.6c-0.4-2.2-2.5-3.6-4.6-3.3c-1.4,0.3-2.6,1.3-3.1,2.6L36.1,68.5H11.7l-2.3-8.1h3.1
	C5.8,39.4,17.4,16.8,38.5,10c13.5-4.3,28.3-1.2,38.9,8.2L83.2,23.7z"/>
<path class="st6" d="M53.8,45.8l5,22.7L42.7,97.4L30,84.7h-7.5l-6-8.1h22.2c1.7,0,3.1-1,3.8-2.5L53.8,45.8z"/>
</svg>
