<svg id="Layer_1" data-name="Layer 1" xmlns="http://www.w3.org/2000/svg" viewBox="0 0 172.48 279.82"><defs><style>.cls-1{fill:#d31818;}.cls-2{fill:#c62222;stroke:#c62222;stroke-width:2px;}.cls-2,.cls-4{stroke-miterlimit:10;}.cls-3{fill:#bc2b2b;}.cls-4{fill:none;stroke:#c1c1c1;stroke-width:5px;}.cls-5{fill:#c1c1c1;}.cls-6{fill:#b2222a;}.cls-7{fill:#bf2b39;}</style></defs><title>sorR</title><path class="cls-1" d="M166.87,152.94a17.77,17.77,0,0,1,0,20.09l-73.26,100c-2.08,2.83-4.54,4.25-7.37,4.24s-5.28-1.42-7.35-4.24L40.15,220.17l77.13-71.29v-.18h42.28Q163.76,148.7,166.87,152.94Z" transform="translate(0 0)"/><polygon class="cls-2" points="117.22 148.7 117.22 148.88 40.13 220.17 21.46 194.68 21.5 194.66 69.27 148.7 117.22 148.7"/><path class="cls-3" d="M69.28,148.7l-47.77,46h0L5.61,173.08a17.8,17.8,0,0,1,0-20.09c2.07-2.83,4.53-4.25,7.37-4.24Z" transform="translate(0 0)"/><path class="cls-4" d="M69.28,148.7H13q-4.26,0-7.37,4.24a17.8,17.8,0,0,0,0,20.09l15.87,21.65,18.67,25.49,38.74,52.91c2.07,2.83,4.52,4.25,7.35,4.24s5.28-1.42,7.37-4.24l73.26-100a17.77,17.77,0,0,0,0-20.09c-2.08-2.83-4.53-4.25-7.36-4.24H69.28Z" transform="translate(0 0)"/><path class="cls-5" d="M153,14.2a48.48,48.48,0,0,1,0,68.54L86.4,149.31,21.78,84.7H33.21L45.92,97.41,86.4,137.89,147.28,77A40.39,40.39,0,0,0,118.71,8.08,40,40,0,0,0,92.28,18.14l-5.9,5.52-5.9-5.51A40.13,40.13,0,0,0,15.73,60.46H7.33A48.18,48.18,0,0,1,86.4,12.6,48.1,48.1,0,0,1,153,14.2Z" transform="translate(0 0)"/><path class="cls-6" d="M147.28,19.91a40.42,40.42,0,0,1,0,57.11L86.4,137.89,45.92,97.41,62.07,68.54l8.27,37.22a4.05,4.05,0,0,0,3.82,3.16h.12A4,4,0,0,0,78.16,106L90.74,62l3.94,11.86a4,4,0,0,0,3.83,2.76h32.31a4,4,0,1,0,0-8.08h-29.4L94.28,47.08a3.83,3.83,0,0,0-3.92-2.76,4,4,0,0,0-3.79,2.93L74.77,88.46,68.21,59,86.4,23.66l5.88-5.52A40,40,0,0,1,147.28,19.91Z" transform="translate(0 0)"/><path class="cls-5" d="M14.87,68.53H39.28l15.1-37.84a4,4,0,0,1,7.69.62L68.21,59l6.56,29.51L86.56,47.23a4,4,0,0,1,3.79-2.93,3.82,3.82,0,0,1,3.93,2.78l7.15,21.47h29.4a4,4,0,0,1,0,8.08H98.51a4,4,0,0,1-3.83-2.76L90.74,62,78.16,106a4,4,0,0,1-3.88,2.92h-.12a4.05,4.05,0,0,1-3.82-3.16L62.07,68.54l-5-22.71L45.72,74.08A4,4,0,0,1,42,76.62H9.67a4,4,0,1,1,0-8.08Z" transform="translate(0 0)"/><path class="cls-7" d="M86.4,23.66,68.21,59,62.07,31.31a4,4,0,0,0-7.69-.62L39.28,68.53H14.87l-2.25-8.07h3.11A40.11,40.11,0,0,1,80.5,18.15Z" transform="translate(0 0)"/><path class="cls-7" d="M57,45.83l5,22.71L45.92,97.41,33.21,84.7H25.74l-6-8.09H42a4,4,0,0,0,3.75-2.53Z" transform="translate(0 0)"/></svg>