<?xml version="1.0" encoding="utf-8"?>
<!-- Generator: Adobe Illustrator 22.1.0, SVG Export Plug-In . SVG Version: 6.00 Build 0)  -->
<svg version="1.1" id="Layer_1" xmlns="http://www.w3.org/2000/svg" xmlns:xlink="http://www.w3.org/1999/xlink" x="0px" y="0px"
	 viewBox="0 0 177.4 280.3" style="enable-background:new 0 0 177.4 280.3;" xml:space="preserve">
<style type="text/css">
	.st0{fill:#FDEF96;stroke:#76797D;stroke-width:3;stroke-miterlimit:10;}
	.st1{fill:#F7E174;}
	.st2{fill:#FDEF96;}
	.st3{fill:#F7E174;stroke:#76797D;stroke-width:3;stroke-miterlimit:10;}
	.st4{fill:#F7E174;stroke:#76797D;stroke-width:2;stroke-miterlimit:10;}
	.st5{fill:none;stroke:#76797D;stroke-width:5;stroke-miterlimit:10;}
	.st6{fill:none;stroke:#EFD154;stroke-width:5;stroke-miterlimit:10;}
	.st7{fill:#D31818;}
	.st8{fill:#C62222;stroke:#C62222;stroke-width:2;stroke-miterlimit:10;}
	.st9{fill:#BC2B2B;}
</style>
<title>eventR</title>
<path class="st0" d="M172.7,100c2.4,0.8,3.7,3.4,3,5.8c-0.8,2.4-3.4,3.7-5.8,3l0,0l-7.9-2.6c-2.4-0.8-3.7-3.4-3-5.8
	c0.8-2.4,3.4-3.7,5.8-3L172.7,100z"/>
<path class="st1" d="M162.5,53.8c4.4,4.5,4.4,11.8-0.2,16.3c0,0,0,0,0,0l0,0l-27.7,27c-0.5,0.5-0.8,1.3-0.7,2l6.5,38.1
	c1.1,6.3-3.1,12.2-9.4,13.3c-2.5,0.4-5.1,0-7.3-1.2l-34.2-18c-0.7-0.4-1.5-0.4-2.2,0l-34.2,18c-5.6,3-12.6,0.8-15.6-4.8
	c-1.2-2.2-1.6-4.8-1.2-7.3L43,99c0.1-0.6,0-1.2-0.4-1.6l2.1-0.2l108-47.3l0,0l3.1,0.5C158.4,50.7,160.7,51.9,162.5,53.8z"/>
<path class="st2" d="M152.7,50l-108,47.3l-2.1,0.2c-0.1-0.1-0.2-0.2-0.3-0.4l-27.7-27c-4.6-4.4-4.7-11.7-0.2-16.3
	c1.8-1.8,4.1-3,6.6-3.4l38.3-5.6c0.8-0.1,1.4-0.6,1.7-1.3L78.1,9c2.8-5.7,9.7-8.1,15.4-5.3c2.3,1.1,4.1,3,5.3,5.3l17.1,34.7
	c0.3,0.7,1,1.2,1.7,1.3L152.7,50z"/>
<path class="st3" d="M142.4,3.4c2.1,1.5,2.5,4.4,1,6.5l0,0l-4.9,6.7c-1.5,2.1-4.4,2.5-6.4,1c-2.1-1.5-2.5-4.4-1-6.4l0,0l4.9-6.8
	C137.4,2.3,140.3,1.8,142.4,3.4L142.4,3.4z"/>
<path class="st0" d="M46.4,12c1.2,2.2,0.4,5-1.8,6.3c-2.2,1.2-4.9,0.5-6.2-1.7l0,0l-4.9-6.8c-1.5-2.1-1.1-5,1-6.5
	c2.1-1.5,5-1.1,6.5,1l4.8,6.8C46.1,11.4,46.3,11.7,46.4,12z"/>
<path class="st4" d="M17.9,100.4c0.8,2.4-0.5,5-2.9,5.8l-8,2.5c-2.5,0.6-5-1-5.6-3.5c-0.5-2.2,0.7-4.5,2.7-5.3l7.9-2.6l0,0
	C14.6,96.6,17.2,98,17.9,100.4L17.9,100.4z"/>
<path class="st5" d="M152.7,50l-35.1-5.1c-0.8-0.1-1.4-0.6-1.7-1.3L98.8,9C96,3.3,89.1,0.9,83.4,3.7c-2.3,1.1-4.1,3-5.2,5.2L61,43.6
	c-0.3,0.7-1,1.2-1.7,1.3L21,50.4c-6.3,0.9-10.7,6.8-9.8,13.1c0.4,2.5,1.5,4.8,3.4,6.6l27.7,27c0.1,0.1,0.2,0.2,0.3,0.4
	c0.3,0.5,0.4,1.1,0.4,1.6l-6.5,38.1c-1.1,6.3,3.1,12.2,9.4,13.3c2.5,0.4,5.1,0,7.3-1.2l34.2-18c0.7-0.4,1.5-0.4,2.2,0l34.2,18
	c5.6,3,12.6,0.8,15.6-4.8c1.2-2.2,1.6-4.8,1.2-7.3l-6.5-38.1c-0.1-0.7,0.1-1.5,0.7-2l27.7-27c4.6-4.5,4.6-11.8,0.2-16.3
	c-1.8-1.8-4.1-3-6.6-3.4L152.7,50"/>
<line class="st6" x1="152.7" y1="49.9" x2="152.8" y2="49.9"/>
<path class="st7" d="M166.2,157.9c4,5.8,4,13.5,0,19.4l-70.7,96.4c-2,2.7-4.4,4.1-7.1,4.1c-2.7,0-5.1-1.4-7.1-4.1l-37.4-51
	l74.4-68.7v-0.2h40.8C161.9,153.8,164.2,155.2,166.2,157.9z"/>
<polygon class="st8" points="118.3,153.8 118.3,154 44,222.7 26,198.1 26,198.1 72.1,153.8 "/>
<path class="st9" d="M72.1,153.8L26,198.1l0,0l-15.3-20.8c-4-5.8-4-13.5,0-19.4c2-2.7,4.4-4.1,7.1-4.1H72.1z"/>
<path class="st5" d="M72.1,153.8H17.8c-2.7,0-5.1,1.4-7.1,4.1c-4,5.8-4,13.5,0,19.4L26,198.1l18,24.6l37.4,51c2,2.7,4.4,4.1,7.1,4.1
	c2.7,0,5.1-1.4,7.1-4.1l70.7-96.4c4-5.8,4-13.5,0-19.4c-2-2.7-4.4-4.1-7.1-4.1L72.1,153.8L72.1,153.8z"/>
</svg>
