<svg id="Layer_1" data-name="Layer 1" xmlns="http://www.w3.org/2000/svg" viewBox="0 0 175.32 281.67"><defs><style>.cls-1,.cls-3{fill:#fdef96;}.cls-1,.cls-4,.cls-5{stroke:#687787;}.cls-1,.cls-4,.cls-5,.cls-6,.cls-9{stroke-miterlimit:10;}.cls-2,.cls-4{fill:#f7e174;}.cls-5,.cls-6{fill:none;stroke-width:5px;}.cls-6{stroke:#efd154;}.cls-7{fill:#4eb73e;}.cls-8{fill:#35a82c;}.cls-9{fill:#43af37;stroke:#43af37;stroke-width:2px;}</style></defs><title>eventG</title><path class="cls-1" d="M171.8,100a4.61,4.61,0,0,1-2.85,8.77L161,106.17a4.61,4.61,0,0,1,2.85-8.77Z" transform="translate(-0.17 -0.04)"/><path class="cls-2" d="M161.63,53.72a11.53,11.53,0,0,1-.2,16.29h0L133.75,97a2.32,2.32,0,0,0-.66,2l6.53,38.1a11.53,11.53,0,0,1-16.73,12.15l-34.21-18a2.28,2.28,0,0,0-2.15,0l-34.21,18a11.53,11.53,0,0,1-16.69-12.11L42.19,99a2.32,2.32,0,0,0-.36-1.64l2.08-.19,108-47.3h0l3.13.46A11.49,11.49,0,0,1,161.63,53.72Z" transform="translate(-0.17 -0.04)"/><path class="cls-3" d="M151.87,50l-108,47.3-2.08.19a2.6,2.6,0,0,0-.3-.36l-27.68-27a11.53,11.53,0,0,1,6.34-19.71l38.26-5.56a2.32,2.32,0,0,0,1.74-1.26L77.24,9A11.52,11.52,0,0,1,97.91,9L115,43.63a2.32,2.32,0,0,0,1.74,1.26Z" transform="translate(-0.17 -0.04)"/><path class="cls-4" d="M141.47,3.33a4.63,4.63,0,0,1,1,6.45h0l-4.84,6.73A4.62,4.62,0,1,1,130,11.27l.13-.18h0L135,4.32a4.61,4.61,0,0,1,6.44-1Z" transform="translate(-0.17 -0.04)"/><path class="cls-1" d="M45.57,12a4.62,4.62,0,0,1-8,4.62h0L32.68,9.78A4.63,4.63,0,0,1,39.93,4l.22.3L45,11.09A5.1,5.1,0,0,1,45.57,12Z" transform="translate(-0.17 -0.04)"/><path class="cls-4" d="M17.08,100.37a4.61,4.61,0,0,1-2.93,5.81l-8,2.54A4.63,4.63,0,0,1,3.35,100l7.92-2.57h0a4.62,4.62,0,0,1,5.8,3Z" transform="translate(-0.17 -0.04)"/><path class="cls-5" d="M151.87,50l-35.11-5.1A2.32,2.32,0,0,1,115,43.61L97.91,9A11.52,11.52,0,0,0,77.24,9L60.15,43.53a2.32,2.32,0,0,1-1.74,1.26L20.15,50.35A11.53,11.53,0,0,0,13.76,70L41.44,97a2.6,2.6,0,0,1,.3.36A2.34,2.34,0,0,1,42.15,99l-6.52,38.1a11.53,11.53,0,0,0,16.72,12.15l34.21-18a2.28,2.28,0,0,1,2.15,0l34.21,18a11.53,11.53,0,0,0,16.71-12.15L133.1,99a2.32,2.32,0,0,1,.66-2l27.66-27A11.54,11.54,0,0,0,155,50.35L151.88,50" transform="translate(-0.17 -0.04)"/><line class="cls-6" x1="151.7" y1="49.85" x2="151.71" y2="49.85"/><path class="cls-7" d="M70.63,150.59l-47.77,46h0L7,175a17.82,17.82,0,0,1,0-20.1c2.07-2.82,4.54-4.23,7.37-4.23Z" transform="translate(-0.17 -0.04)"/><path class="cls-8" d="M168.22,175,95,275c-2.08,2.83-4.54,4.25-7.37,4.24s-5.28-1.42-7.35-4.24L41.5,222.06l77.13-71.29v-.18h42.28c2.83,0,5.29,1.41,7.36,4.23A17.77,17.77,0,0,1,168.22,175Z" transform="translate(-0.17 -0.04)"/><polygon class="cls-9" points="118.41 150.73 41.33 222.02 22.65 196.53 22.68 196.51 70.46 150.55 118.41 150.55 118.41 150.73"/><path class="cls-5" d="M70.63,150.59H14.33C11.5,150.59,9,152,7,154.82a17.82,17.82,0,0,0,0,20.1l15.87,21.65L41.5,222.06,80.24,275c2.07,2.83,4.52,4.25,7.35,4.24S92.87,277.79,95,275l73.26-100a17.78,17.78,0,0,0,0-20.1c-2.07-2.82-4.53-4.23-7.36-4.23H70.63Z" transform="translate(-0.17 -0.04)"/></svg>