<?xml version="1.0" encoding="utf-8"?>
<!-- Generator: Adobe Illustrator 22.1.0, SVG Export Plug-In . SVG Version: 6.00 Build 0)  -->
<svg version="1.1" id="Layer_1" xmlns="http://www.w3.org/2000/svg" xmlns:xlink="http://www.w3.org/1999/xlink" x="0px" y="0px"
	 viewBox="0 0 174 273" style="enable-background:new 0 0 174 273;" xml:space="preserve">
<style type="text/css">
	.st0{fill:#76797D;}
	.st1{fill:#303030;}
	.st2{fill:#CCD1D0;}
	.st3{fill:#151516;}
	.st4{fill:#F3F3F3;}
	.st5{fill:none;stroke:#76797D;stroke-miterlimit:10;}
	.st6{fill:#43AF37;stroke:#43AF37;stroke-width:3;stroke-miterlimit:10;}
	.st7{fill:#35A82C;}
	.st8{fill:#4EB73E;}
	.st9{fill:none;stroke:#76797D;stroke-width:5;stroke-miterlimit:10;}
</style>
<title>parkingG</title>
<path class="st0" d="M99.5,25.2C83,8.7,56.3,8.7,39.8,25.2c0,0,0,0,0,0l0,0c-1,1-1,2.5,0,3.5s2.5,1,3.5,0l0,0l0,0
	c14.6-14.6,38.2-14.6,52.8,0c1,1,2.5,1,3.5,0S100.5,26.2,99.5,25.2L99.5,25.2z"/>
<path class="st0" d="M89.4,35.4c-10.9-10.8-28.5-10.8-39.4,0c-1,1-1,2.5,0,3.5s2.5,1,3.5,0l0,0c9-8.9,23.4-8.9,32.4,0
	c0.9,1,2.5,1.1,3.5,0.1c1-0.9,1.1-2.5,0.2-3.5L89.4,35.4L89.4,35.4L89.4,35.4z"/>
<path class="st0" d="M79.3,45.4C74,40,65.3,40,60,45.4c-0.9,1-0.9,2.6,0.1,3.5c1,0.9,2.4,0.9,3.4,0l0,0c3.4-3.4,9-3.4,12.4,0
	c1,1,2.5,1,3.5,0C80.4,47.9,80.4,46.3,79.3,45.4L79.3,45.4z"/>
<path class="st0" d="M173.5,112.6v12.8c0,5-4.1,9.1-9.1,9.1h-4.7c-2.4,8.7-11.5,13.7-20.2,11.3c-5.5-1.5-9.8-5.8-11.3-11.3H46.4
	c-2.4,8.7-11.5,13.8-20.2,11.3c-6-1.7-10.5-6.6-11.6-12.7l-9.8-4.4c-2.6-1.2-4.3-3.7-4.3-6.6V98.4c0-5.4,3.8-10,9.1-11.1l3.5-0.7
	c6.1-1.3,11.8-4.3,16.2-8.8c7-7,16.5-10.9,26.4-10.9h29.9c7.5,0,14.7,2.2,20.9,6.4l16.3,11c2.9,2,7.3,4.7,11.8,5.6l3.3,0.7V60.8
	h-18.7c-3.4,0-6.1-2.7-6.2-6.1V40.8c0-0.1,0-0.2,0-0.3c0-1.4,1.1-2.5,2.5-2.4c1.4,0,2.5,1.1,2.4,2.5c0,0.1,0,0.1,0,0.2v13.8
	c0,0.7,0.5,1.2,1.2,1.2l0,0h48c0.7,0,1.2-0.5,1.2-1.2c0,0,0,0,0,0l0,0v-48c0-0.7-0.5-1.2-1.2-1.2h-48c-0.7,0-1.2,0.5-1.2,1.2
	c0,0,0,0,0,0l0,0v18.2c-0.1,1.4-1.3,2.4-2.6,2.3c-1.2-0.1-2.2-1.1-2.3-2.3V6.7c0-3.4,2.8-6.1,6.2-6.2h48c3.4,0,6.2,2.7,6.2,6.1
	c0,0,0,0,0,0l0,0v48c0,3.4-2.8,6.1-6.2,6.1c0,0,0,0,0,0h-16.5V93l6.4,1.3c5.6,1.1,10.4,4.5,13.4,9.4l0.8,1.3
	C172.8,107.3,173.5,109.9,173.5,112.6z M168.6,125.4v-12.8c0-1.8-0.5-3.6-1.4-5.1l-0.8-1.3c-2.2-3.7-5.9-6.3-10.1-7.1l-22.5-4.5
	c-5.4-1.1-10.4-4.1-13.6-6.3l-16.3-11c-0.5-0.3-0.9-0.6-1.4-0.9c-5.1-3.1-10.8-4.7-16.8-4.7H55.8c-8.6,0-16.8,3.4-22.9,9.5
	c-5.1,5.1-11.6,8.6-18.7,10.1L10.6,92c-3,0.6-5.2,3.3-5.2,6.3v23.9c0,0.9,0.5,1.7,1.4,2.1l7.7,3.4c0.3-1.8,0.8-3.6,1.7-5.2
	c0.1-0.2,0.2-0.4,0.4-0.7c0.3-0.4,0.5-0.9,0.9-1.3l0.1-0.1l0.4-0.5c0-0.1,0.1-0.1,0.2-0.2c0.1-0.1,0.2-0.3,0.4-0.4l0.1-0.2
	c0.2-0.2,0.3-0.4,0.5-0.6c6.4-6.3,16.7-6.3,23.1,0l0.6,0.6l0.1,0.1c0.2,0.2,0.3,0.3,0.5,0.5c2.3,2.8,3.6,6.2,3.7,9.8h80.7
	c0.1-3.6,1.4-7,3.6-9.8l0,0l0.4-0.5l0.1-0.1l0.5-0.5c0,0,0.1,0,0.1-0.1c2.3-2.3,5.2-3.8,8.4-4.5c1.1-0.2,2.1-0.3,3.2-0.3
	c4.3,0,8.5,1.7,11.6,4.8l0.1,0.1c0.2,0.2,0.3,0.3,0.5,0.5l0.1,0.1l0.4,0.5v0.1c2.3,2.8,3.5,6.2,3.6,9.8h4.1
	C166.7,129.6,168.6,127.7,168.6,125.4C168.6,125.4,168.6,125.4,168.6,125.4L168.6,125.4z M152,138.2c3.8-3.8,4.4-9.8,1.5-14.3v-0.1
	c-0.1-0.1-0.2-0.3-0.3-0.4c0-0.1-0.1-0.1-0.1-0.2l-0.2-0.3l-0.2-0.3l-0.2-0.2c-0.1-0.2-0.3-0.3-0.4-0.5c-4.5-4.4-11.7-4.4-16.1,0
	c-0.1,0.2-0.3,0.3-0.4,0.5l-0.3,0.2L135,123l-0.2,0.3l-0.1,0.2l-0.3,0.4v0.1c-3.4,5.3-1.9,12.4,3.4,15.8
	C142.3,142.5,148.2,141.9,152,138.2z M145.9,92V60.8h-3v30.7L145.9,92z M38.7,138.2c3.8-3.9,4.3-9.8,1.3-14.3v-0.1
	c-0.1-0.1-0.2-0.3-0.3-0.4c0-0.1-0.1-0.1-0.1-0.2l-0.2-0.3l-0.2-0.3l-0.2-0.2c-0.1-0.2-0.3-0.3-0.4-0.5l-0.4-0.4l-0.1-0.1l-0.4-0.3
	c-4.2-3.4-10.2-3.4-14.4,0l-0.4,0.3l-0.1,0.1l-0.3,0.3l-0.1,0.1l-0.4,0.4c-0.1,0.1-0.1,0.1-0.1,0.2l-0.3,0.3l-0.2,0.2l-0.2,0.3
	l-0.2,0.2l-0.2,0.3l-0.2,0.3l-0.1,0.2l-0.2,0.3l-0.1,0.2c-0.1,0.1-0.2,0.3-0.2,0.4c0,0,0,0.1,0,0.1c-2.6,5.7-0.1,12.5,5.7,15.1
	C30.3,142.5,35.4,141.6,38.7,138.2L38.7,138.2z"/>
<path class="st1" d="M168.6,112.6v12.8c0,2.3-1.9,4.2-4.2,4.2h-4.1c-0.1-3.6-1.4-7-3.6-9.8v-0.1l-0.4-0.5l-0.1-0.1
	c-0.1-0.2-0.3-0.3-0.5-0.5l-0.1-0.1c-3.1-3.1-7.2-4.8-11.6-4.8c-1.1,0-2.2,0.1-3.2,0.3c-3.2,0.6-6.1,2.2-8.4,4.5c0,0,0,0.1-0.1,0.1
	l-0.5,0.5l-0.1,0.1l-0.4,0.5l0,0c-2.3,2.8-3.5,6.2-3.6,9.8H47c-0.1-3.6-1.4-7-3.7-9.8c-0.2-0.2-0.3-0.4-0.5-0.5l-0.1-0.1l-0.6-0.6
	c-0.5-0.5-1.1-1-1.7-1.5l0,0l18.7-13.7h62.6c2,0,3.7-1.6,3.7-3.7c0-2.6-1.4-5.1-3.7-6.3c-1.1-0.6-2.1-1.2-3.1-1.9l-16.3-11
	c-1.5-1-3.1-1.9-4.7-2.6l4.8-1.5c0.5,0.3,1,0.6,1.4,0.9l16.3,11c3.3,2.2,8.2,5.3,13.6,6.3l22.5,4.5c4.2,0.9,7.9,3.4,10.1,7.1
	l0.8,1.3C168.1,109.1,168.6,110.8,168.6,112.6z M76.1,109.7c0.1-1.4-0.9-2.5-2.3-2.6c0,0,0,0,0,0h-8c-1.4,0.1-2.4,1.3-2.3,2.6
	c0.1,1.2,1.1,2.2,2.3,2.3h7.7C74.9,112.1,76,111,76.1,109.7z"/>
<path class="st2" d="M168.5,6.6v48c0,0.7-0.5,1.2-1.2,1.2l0,0h-48c-0.7,0-1.2-0.5-1.2-1.2c0,0,0,0,0,0l0,0V40.8
	c0.1-1.4-0.9-2.5-2.3-2.6V27.1c1.2-0.1,2.2-1.1,2.3-2.3V6.6c0-0.7,0.5-1.2,1.2-1.2l0,0h48C167.9,5.4,168.5,6,168.5,6.6z M154.6,24.2
	V24c0-6.9-4.2-9.5-9.5-9.5h-8.4c-1-0.1-1.9,0.6-2,1.6v27.4c0,1.1,1.4,1.7,2.7,1.7s2.7-0.6,2.7-1.7v-9.7h4.7
	C150.3,33.8,154.6,31.1,154.6,24.2z"/>
<path class="st3" d="M154.6,24v0.3c0,6.9-4.3,9.5-9.9,9.5h-4.7v9.7c0,1.1-1.4,1.7-2.7,1.7s-2.7-0.6-2.7-1.7V16.1c0.1-1,1-1.7,2-1.6
	h8.4C150.4,14.5,154.6,17.1,154.6,24z M149.2,24.6v-0.5c0-3.3-1.7-4.8-4.4-4.8h-4.7v10.1h4.7C147.5,29.5,149.2,27.9,149.2,24.6
	L149.2,24.6z"/>
<path class="st1" d="M153.5,123.9c3.5,5.3,2,12.4-3.3,15.8s-12.4,2-15.8-3.3c-2.5-3.8-2.5-8.7,0-12.5v-0.1l0.3-0.4l0.1-0.2l0.2-0.3
	l0.2-0.3l0.3-0.2c0.1-0.2,0.3-0.3,0.4-0.5c4.5-4.4,11.7-4.4,16.1,0c0.1,0.2,0.3,0.3,0.4,0.5l0.2,0.2l0.2,0.3l0.2,0.3
	c0,0,0.1,0.1,0.1,0.2C153.3,123.6,153.4,123.7,153.5,123.9L153.5,123.9z M151.4,130.1c0-4.1-3.4-7.5-7.5-7.5s-7.5,3.4-7.5,7.5
	c0,4.1,3.4,7.5,7.5,7.5c2,0,3.9-0.8,5.3-2.2C150.7,134,151.4,132.1,151.4,130.1z"/>
<path class="st0" d="M149.3,124.8c2.9,2.9,2.9,7.7,0,10.6c-2.9,2.9-7.7,2.9-10.6,0c-2.9-2.9-2.9-7.7,0-10.6
	C141.6,121.9,146.3,121.9,149.3,124.8C149.2,124.8,149.2,124.8,149.3,124.8z M145.8,131.9c1-1,1-2.6,0-3.6c-1-1-2.6-1-3.6,0
	c-1,1-1,2.6,0,3.6c0,0,0,0,0,0l0,0C143.1,132.9,144.7,132.9,145.8,131.9L145.8,131.9z"/>
<path class="st2" d="M149.2,24.6c0,3.3-1.7,4.8-4.4,4.8h-4.7V19.3h4.7c2.7,0,4.4,1.6,4.4,4.8V24.6z"/>
<circle class="st3" cx="143.9" cy="130.1" r="2.6"/>
<path class="st0" d="M121.8,93.4c2.3,1.3,3.7,3.7,3.7,6.3c0,2-1.6,3.7-3.7,3.7H54.3c-0.1,0-0.2,0-0.3,0c-1.4,0-2.5-1.1-2.4-2.5
	c0-1.4,1.1-2.5,2.5-2.4c0.1,0,0.1,0,0.2,0h8.2V80.3h-6.7c-6.6,0-12.9,2.6-17.6,7.3c-3.2,3.2-6.9,5.9-11,8c-0.5,0.3-0.8,0.8-0.8,1.4
	c0,0.8,0.7,1.5,1.5,1.5c0,0,0,0,0,0h10.3c1.4,0.1,2.4,1.3,2.3,2.6c-0.1,1.2-1.1,2.2-2.3,2.3H27.9c-3.5,0-6.4-2.8-6.5-6.4
	c0-2.4,1.3-4.6,3.5-5.7c3.6-1.9,6.9-4.3,9.8-7.2c5.6-5.6,13.1-8.7,21-8.7h29.9c4.1,0,8.2,0.8,12,2.5c1.6,0.7,3.2,1.6,4.7,2.6
	l16.3,11C119.7,92.1,120.7,92.8,121.8,93.4z M67.4,98.4l52.8-0.1c-0.2-0.3-0.5-0.5-0.8-0.7c-1.2-0.7-2.4-1.4-3.5-2.1l-16.3-11
	c-4.1-2.8-9-4.2-13.9-4.2H67.4L67.4,98.4z"/>
<path class="st4" d="M120.2,98.3l-52.8,0.1V80.3h18.3c5,0,9.8,1.5,13.9,4.2l16.3,11c1.1,0.8,2.3,1.5,3.5,2.1
	C119.7,97.8,120,98,120.2,98.3z"/>
<path class="st3" d="M102.4,76.4l-4.8,1.5c-3.8-1.7-7.9-2.5-12-2.5H55.7c-7.9,0-15.4,3.1-21,8.7c-2.9,2.9-6.2,5.3-9.8,7.2
	c-3.1,1.6-4.4,5.5-2.7,8.6c1.1,2.1,3.3,3.5,5.7,3.5h10.2c1.4-0.1,2.4-1.3,2.3-2.6h11.2c-0.1,1.4,0.9,2.5,2.3,2.6c0,0,0,0,0,0h5.3
	l-18.7,13.8l0,0c-6.5-4.9-15.7-4.3-21.4,1.5c-0.2,0.2-0.4,0.4-0.5,0.6l-0.1,0.2c-0.1,0.1-0.2,0.3-0.4,0.4c0,0.1-0.1,0.1-0.2,0.2
	l-0.4,0.5l-0.1,0.1c-0.3,0.4-0.6,0.9-0.9,1.3c-0.1,0.2-0.3,0.4-0.4,0.7c-0.9,1.6-1.4,3.4-1.7,5.2l-7.7-3.4c-0.8-0.4-1.4-1.2-1.4-2.1
	V98.4c0-3.1,2.1-5.7,5.2-6.4l3.5-0.7c7.1-1.5,13.6-5,18.7-10.1c6.1-6.1,14.3-9.5,22.9-9.5h29.9C91.6,71.7,97.4,73.3,102.4,76.4z"/>
<path class="st0" d="M73.8,107.1c1.4,0.1,2.4,1.3,2.3,2.6s-1.3,2.4-2.6,2.3h-7.6c-1.4-0.1-2.4-1.3-2.3-2.6c0.1-1.2,1.1-2.2,2.3-2.3
	h7.6C73.6,107.1,73.7,107,73.8,107.1z"/>
<path class="st4" d="M62.4,80.3v18.1h-8.2c-1.4-0.1-2.5,0.9-2.6,2.3H40.5c-0.1-1.2-1.1-2.2-2.3-2.3H27.9c-0.8,0-1.5-0.6-1.5-1.4l0,0
	c0-0.6,0.3-1.1,0.8-1.3c4.1-2.1,7.8-4.8,11-8c4.7-4.7,11-7.3,17.6-7.3L62.4,80.3z"/>
<path class="st1" d="M40.1,123.9c3.4,5.2,2,12.3-3.3,15.7c-5.2,3.4-12.3,2-15.7-3.3c-2.2-3.3-2.5-7.4-0.8-11c0,0,0-0.1,0-0.1
	c0-0.1,0.1-0.3,0.2-0.4l0.1-0.2l0.2-0.3l0.1-0.2l0.2-0.3l0.2-0.3l0.2-0.2l0.2-0.3l0.2-0.2l0.3-0.3c0-0.1,0.1-0.1,0.1-0.2l0.4-0.4
	l0.1-0.1l0.3-0.3l0.1-0.1l0.4-0.3c4.2-3.4,10.2-3.4,14.4,0l0.4,0.3l0.1,0.1l0.4,0.4c0.2,0.2,0.3,0.3,0.4,0.5l0.2,0.2l0.2,0.3
	l0.2,0.3c0,0,0.1,0.1,0.1,0.2C39.9,123.6,39.9,123.7,40.1,123.9L40.1,123.9z M35.9,135.4c2.9-2.9,2.9-7.6,0.1-10.5l-0.1-0.1
	c-2.9-2.9-7.7-2.9-10.6,0s-2.9,7.7,0,10.6C28.3,138.3,33,138.3,35.9,135.4z"/>
<path class="st0" d="M36,124.9c2.9,3,2.9,7.7-0.1,10.6c-3,2.9-7.7,2.9-10.6-0.1s-2.9-7.7,0.1-10.6C28.3,121.9,33,121.9,36,124.9
	L36,124.9z M32.5,131.9c1-1,1-2.6,0-3.6c-1-1-2.6-1-3.6,0s-1,2.6,0,3.6c0,0,0,0,0,0l0,0C29.9,132.9,31.5,132.9,32.5,131.9
	C32.5,131.9,32.5,131.9,32.5,131.9L32.5,131.9L32.5,131.9z"/>
<path class="st3" d="M32.5,128.3c1,1,1,2.6,0,3.6c-1,1-2.6,1-3.6,0s-1-2.6,0-3.6c0,0,0,0,0,0l0,0C29.9,127.3,31.5,127.3,32.5,128.3
	C32.5,128.3,32.5,128.3,32.5,128.3L32.5,128.3z"/>
<path class="st5" d="M115.8,38.2c-1.4-0.1-2.5,0.9-2.6,2.3c0,0,0,0,0,0l0,0c0,0.1,0,0.2,0,0.3v13.8c0,3.4,2.8,6.1,6.2,6.1H138v29.7
	l-3.3-0.7c-4.5-0.9-8.9-3.6-11.8-5.6l-16.3-11c-6.2-4.2-13.5-6.4-20.9-6.4H55.7c-9.9,0-19.4,3.9-26.4,10.9
	c-4.4,4.4-10.1,7.5-16.2,8.8l-3.5,0.7c-5.3,1.1-9,5.8-9.1,11.1v23.9c0,2.8,1.7,5.4,4.3,6.6l9.8,4.4c1.7,8.9,10.3,14.7,19.1,13
	c6.1-1.2,11-5.7,12.7-11.6h81.8c2.4,8.7,11.5,13.7,20.2,11.3c5.5-1.5,9.8-5.8,11.3-11.3h4.7c5,0,9.1-4.1,9.1-9.1v-12.8
	c0-2.7-0.7-5.3-2.1-7.6l-0.8-1.3c-2.9-4.9-7.8-8.3-13.4-9.4l-6.4-1.3V60.8h16.5c3.4,0,6.2-2.7,6.2-6.1c0,0,0,0,0,0l0,0v-48
	c0-3.4-2.8-6.1-6.1-6.1h-48c-3.4,0-6.1,2.8-6.2,6.2v18.2c0.1,1.4,1.3,2.4,2.6,2.3c1.2-0.1,2.2-1.1,2.3-2.3V6.6
	c0-0.7,0.5-1.2,1.2-1.2l0,0h48c0.7,0,1.2,0.6,1.2,1.2v48c0,0.7-0.5,1.2-1.2,1.2l0,0h-48c-0.7,0-1.2-0.5-1.2-1.2c0,0,0,0,0,0l0,0
	V40.8C118.2,39.5,117.1,38.3,115.8,38.2C115.8,38.2,115.8,38.2,115.8,38.2z"/>
<polygon class="st6" points="116.9,146.5 116.9,146.6 42.6,215.4 24.6,190.8 24.6,190.8 70.7,146.5 "/>
<path class="st7" d="M164.8,150.6c4,5.8,4,13.5,0,19.4l-70.7,96.4c-2,2.7-4.4,4.1-7.1,4.1c-2.7,0-5.1-1.4-7.1-4.1l-37.4-51
	l74.3-68.7v-0.2h40.8C160.4,146.5,162.8,147.8,164.8,150.6z"/>
<path class="st8" d="M70.7,146.5l-46.1,44.3l0,0L9.3,170c-4-5.8-4-13.5,0-19.4c2-2.7,4.4-4.1,7.1-4.1L70.7,146.5z"/>
<path class="st9" d="M70.7,146.5H16.4c-2.7,0-5.1,1.4-7.1,4.1c-4,5.8-4,13.5,0,19.4l15.3,20.9l18,24.6l37.4,51
	c2,2.7,4.4,4.1,7.1,4.1s5.1-1.4,7.1-4.1l70.7-96.4c4-5.8,4-13.5,0-19.4c-2-2.7-4.4-4.1-7.1-4.1L70.7,146.5L70.7,146.5z"/>
</svg>
