<svg id="Layer_1" data-name="Layer 1" xmlns="http://www.w3.org/2000/svg" viewBox="0 0 172.48 270.61"><defs><style>.cls-1{fill:#687787;}.cls-2{fill:#9d9d9e;}.cls-3{fill:#b0b3b7;}.cls-4{fill:#afafaf;}.cls-5,.cls-9{fill:none;}.cls-5{stroke:#9d9d9e;stroke-width:0.25px;}.cls-5,.cls-7,.cls-9{stroke-miterlimit:10;}.cls-6{fill:#35a82c;}.cls-7{fill:#43af37;stroke:#43af37;stroke-width:2px;}.cls-8{fill:#4eb73e;}.cls-9{stroke:#687787;stroke-width:5px;}</style></defs><title>foodG</title><path class="cls-1" d="M144.11,28.26c4-5.08,4.68-11.47,2-18.5a33.75,33.75,0,0,0-5-8.77,2.76,2.76,0,1,0-4.24,3.54h0c.1.12,9.61,11.77,2.89,20.33-9.64,12.3.64,28.52,1.09,29.2a2.76,2.76,0,0,0,4.63-3C145.44,50.93,136.94,37.45,144.11,28.26Z" transform="translate(0.01 0)"/><path class="cls-1" d="M28,28.26c4-5.08,4.68-11.47,2-18.5A33.31,33.31,0,0,0,25,1a2.76,2.76,0,0,0-4.24,3.54h0c.1.12,9.61,11.77,2.9,20.33-9.65,12.3.64,28.52,1.08,29.2a2.76,2.76,0,0,0,4.63-3C29.27,50.93,20.78,37.45,28,28.26Z" transform="translate(0.01 0)"/><path class="cls-1" d="M45.47,28.26c4-5.08,4.68-11.47,2-18.5a34.15,34.15,0,0,0-5-8.76,2.76,2.76,0,0,0-4.2,3.53h0c.1.12,9.61,11.77,2.89,20.33-9.64,12.3.64,28.52,1.09,29.2A2.76,2.76,0,0,0,47,51.22l-.1-.16C46.76,50.93,38.27,37.45,45.47,28.26Z" transform="translate(0.01 0)"/><path class="cls-1" d="M124.44,28.26c4-5.08,4.68-11.47,2-18.5a33.31,33.31,0,0,0-5-8.77,2.76,2.76,0,0,0-4.23,3.54c.09.12,9.6,11.77,2.89,20.33-9.65,12.3.64,28.52,1.08,29.2a2.77,2.77,0,0,0,5.09-1.47,2.82,2.82,0,0,0-.45-1.52C125.77,50.93,117.27,37.45,124.44,28.26Z" transform="translate(0.01 0)"/><path class="cls-1" d="M168.44,124.46v3a7.14,7.14,0,0,1-7.17,7.08H7.52a7.13,7.13,0,0,1-7.08-7.08v-3a7.14,7.14,0,0,1,7.17-7.08H13.4C15.51,84.17,40.94,57,74.32,52.22a11.58,11.58,0,0,1-1.82-6.39c0-1.32.54-3.76,4.59-5.21a25.06,25.06,0,0,1,14.8,0c4,1.45,4.59,3.89,4.59,5.21a11.59,11.59,0,0,1-1.92,6.41,71.26,71.26,0,0,1,48.58,29.83l.14.2a2.42,2.42,0,0,1-.79,3.33h0a2.49,2.49,0,0,1-3.2-.52l-.19-.27A66.36,66.36,0,0,0,88.79,56.47h-.72l-1.35-.06H82l-2,.1a66.12,66.12,0,0,0-58.26,44.22,64.46,64.46,0,0,0-3.37,16.59h8.1a2.43,2.43,0,0,1,0,4.86H7.59a2.21,2.21,0,0,0-2.23,2.19v0h0v3a2.22,2.22,0,0,0,2.24,2.2H161.27a2.21,2.21,0,0,0,2.23-2.19v0h0v-3a2.22,2.22,0,0,0-2.24-2.2H37.94a2.43,2.43,0,1,1,0-4.86H150.52a64.26,64.26,0,0,0-6-23.12,2.44,2.44,0,0,1,1.11-2.93,2.48,2.48,0,0,1,3.35.93,69.38,69.38,0,0,1,6.44,25.17h5.85A7.13,7.13,0,0,1,168.44,124.46ZM87.34,51.63a7,7,0,0,0,3.1-5.7c-.46-.57-2.91-1.57-7-1.57s-6.54,1-7,1.57a7,7,0,0,0,3.07,5.64h6.43Z" transform="translate(0.01 0)"/><path class="cls-2" d="M163.52,127.41a2.21,2.21,0,0,1-2.2,2.22H7.61a2.22,2.22,0,0,1-2.25-2.19h0v-3a2.21,2.21,0,0,1,2.2-2.22H26.49a2.43,2.43,0,1,0,0-4.86h-8.1a64.46,64.46,0,0,1,3.37-16.59L129.58,73.91a66.29,66.29,0,0,1,9.51,10.91l.19.27,5.25,7.54a2.38,2.38,0,0,0,0,1.58,64.26,64.26,0,0,1,6,23.12H37.94a2.43,2.43,0,0,0,0,4.86H161.27a2.22,2.22,0,0,1,2.25,2.19h0v3Z" transform="translate(0.01 0)"/><path class="cls-3" d="M129.58,73.91,21.76,100.74A66.12,66.12,0,0,1,80,56.52l2-.1H86.7l1.35.06h.71A66.7,66.7,0,0,1,129.58,73.91Z" transform="translate(0.01 0)"/><path class="cls-4" d="M90.44,45.93a7,7,0,0,1-3.1,5.7l-1.4-.06H79.51a7,7,0,0,1-3.07-5.64c.46-.56,2.91-1.57,7-1.57S89.94,45.36,90.44,45.93Z" transform="translate(0.01 0)"/><path class="cls-5" d="M139.27,85.09a2.49,2.49,0,0,0,3.2.52,2.43,2.43,0,0,0,.81-3.33h0l-.14-.2A71.31,71.31,0,0,0,94.56,52.24a11.59,11.59,0,0,0,1.92-6.41c0-1.32-.59-3.76-4.59-5.21a25.06,25.06,0,0,0-14.8,0c-4,1.45-4.59,3.89-4.59,5.21a11.58,11.58,0,0,0,1.82,6.39C40.94,57,15.51,84.22,13.4,117.41H7.61a7.14,7.14,0,0,0-7.17,7.08v3a7.13,7.13,0,0,0,7.08,7.08" transform="translate(0.01 0)"/><path class="cls-5" d="M161.27,134.54a7.14,7.14,0,0,0,7.17-7.08v-3a7.14,7.14,0,0,0-7.17-7.08h-5.83A69.38,69.38,0,0,0,149,92.21a2.48,2.48,0,0,0-3.35-.93,2.44,2.44,0,0,0-1.11,2.93,64.26,64.26,0,0,1,6,23.12H37.94a2.43,2.43,0,0,0,0,4.86H161.27a2.22,2.22,0,0,1,2.25,2.19h0v3a2.21,2.21,0,0,1-2.2,2.22H7.61a2.22,2.22,0,0,1-2.25-2.19h0v-3a2.21,2.21,0,0,1,2.2-2.22H26.49a2.43,2.43,0,1,0,0-4.86h-8.1a64.46,64.46,0,0,1,3.37-16.59A66.12,66.12,0,0,1,80,56.52l2-.1H86.7l1.35.06h.71a66.36,66.36,0,0,1,50.31,28.34" transform="translate(0.01 0)"/><polyline class="cls-5" points="7.53 134.57 7.61 134.57 159.37 134.54"/><path class="cls-5" d="M83.44,44.36c4.09,0,6.54,1,7,1.57a7,7,0,0,1-3.1,5.7l-1.4-.06H79.51a7,7,0,0,1-3.07-5.64C76.94,45.37,79.35,44.36,83.44,44.36Z" transform="translate(0.01 0)"/><line class="cls-5" x1="21.77" y1="100.74" x2="129.59" y2="73.91"/><path class="cls-5" d="M139.09,84.82l.19.27,5.25,7.54" transform="translate(0.01 0)"/><path class="cls-6" d="M166.86,143.72a17.77,17.77,0,0,1,0,20.09l-73.26,100q-3.12,4.24-7.37,4.24t-7.35-4.24L40.14,211l77.13-71.34v-.18h42.28C162.33,139.48,164.79,140.89,166.86,143.72Z" transform="translate(0.01 0)"/><polygon class="cls-7" points="117.22 139.48 117.22 139.66 40.16 210.95 21.48 185.47 21.5 185.44 69.28 139.48 117.22 139.48"/><path class="cls-8" d="M69.27,139.48l-47.77,46h0L5.6,163.81a17.8,17.8,0,0,1,0-20.09c2.07-2.83,4.54-4.24,7.37-4.24Z" transform="translate(0.01 0)"/><path class="cls-9" d="M69.27,139.48H13c-2.83,0-5.3,1.41-7.37,4.24a17.8,17.8,0,0,0,0,20.09l15.87,21.65L40.14,211l38.74,52.87q3.11,4.25,7.35,4.24c2.83,0,5.28-1.41,7.37-4.24l73.26-100a17.77,17.77,0,0,0,0-20.09c-2.07-2.83-4.53-4.24-7.36-4.24H69.27Z" transform="translate(0.01 0)"/></svg>