<svg id="Layer_1" data-name="Layer 1" xmlns="http://www.w3.org/2000/svg" viewBox="0 0 166.49 284.76"><defs><style>.cls-1{fill:#d31818;}.cls-2{fill:#c62222;stroke:#c62222;stroke-width:2px;}.cls-2,.cls-4{stroke-miterlimit:10;}.cls-3{fill:#bc2b2b;}.cls-4{fill:none;stroke:#76797d;stroke-width:5px;}.cls-5{fill:#76797d;}.cls-6{fill:#35a03a;}.cls-7{fill:#2c6b26;}.cls-8{fill:#d8a35d;}.cls-9{fill:#caccce;}.cls-10{fill:#2a2a2b;}</style></defs><title>officeR</title><path class="cls-1" d="M161,162.38a17.15,17.15,0,0,1,0,19.38L90.34,278.15c-2,2.72-4.37,4.09-7.1,4.09s-5.09-1.37-7.07-4.09l-37.38-51,74.38-68.77v-.17h40.77Q158,158.26,161,162.38Z" transform="translate(0 0)"/><polygon class="cls-2" points="113.12 158.25 113.12 158.43 38.8 227.17 20.79 202.59 20.82 202.58 66.88 158.25 113.12 158.25"/><path class="cls-3" d="M66.88,158.25,20.79,202.57h0L5.49,181.72a17.18,17.18,0,0,1,0-19.38c2-2.73,4.37-4.1,7.1-4.09Z" transform="translate(0 0)"/><path class="cls-4" d="M66.88,158.25H12.59c-2.73,0-5.11,1.36-7.1,4.09a17.18,17.18,0,0,0,0,19.38l15.3,20.87,18,24.58,37.36,51c2,2.72,4.36,4.09,7.09,4.09s5.09-1.37,7.1-4.09L161,181.74a17.15,17.15,0,0,0,0-19.38q-3-4.1-7.1-4.09h-87Z" transform="translate(0 0)"/><path class="cls-5" d="M153,84.78a23.57,23.57,0,0,1-24.44,40.31,22.89,22.89,0,0,1-2.16-1.48v13.77a21.37,21.37,0,0,1,12.53,6.5,15.82,15.82,0,0,1,21,14.94,3.17,3.17,0,0,1-3.17,3.17H5.56a3.15,3.15,0,0,1-3.16-3.16h0V143.65a3.15,3.15,0,0,1,3.15-3.17h9.33V86.06a3.17,3.17,0,0,1,6.33,0v54.42H35.94v-32.9a3.15,3.15,0,0,1,3.12-3.2h43a23.49,23.49,0,0,1,2.57-10.12h-.51A3.17,3.17,0,0,1,81,91.09V75.94a3.17,3.17,0,0,1,3.16-3.17H94.43a29.81,29.81,0,0,1,2.64-6.34H84.2A3.15,3.15,0,0,1,81,63.27h0V48.09a3.15,3.15,0,0,1,3.16-3.16H96.86A3.15,3.15,0,0,1,100,48.07v14a30.16,30.16,0,0,1,8.52-7.18V6.38H21.21V60.75a3.17,3.17,0,0,1-6.33,0V3.16A3.15,3.15,0,0,1,18,0H111.7a3.15,3.15,0,0,1,3.16,3.14v49.1A30,30,0,0,1,153.26,81,29.22,29.22,0,0,1,153,84.78ZM158,105a17.36,17.36,0,0,0-9.84-15.57,3.15,3.15,0,0,1-1.74-3.5,24.23,24.23,0,0,0,.49-4.81,23.67,23.67,0,1,0-46.85,4.81,3.17,3.17,0,0,1-1.75,3.5,17.26,17.26,0,1,0,21.76,25.13V99.16l-9.87-9.87a3.16,3.16,0,1,1,4.47-4.48h0l5.4,5.4V82.52a3.17,3.17,0,0,1,6.33-.36,2.16,2.16,0,0,1,0,.36V97.07l7.18-7.18a3.17,3.17,0,1,1,4.48,4.49L126.43,106v8.46A17.25,17.25,0,0,0,158.07,105Zm-34.8,50.72h29.83a9.5,9.5,0,0,0-12.14-5.78,9.86,9.86,0,0,0-1.37.61,3.16,3.16,0,0,1-4.05-.87,15.34,15.34,0,0,0-27.29,6Zm-3.13-18.29V123.61a24,24,0,0,1-5.23,3v12.19A21.66,21.66,0,0,1,120.1,137.38Zm-11.56,3.09V128.38a22.25,22.25,0,0,1-2.82.18,23.47,23.47,0,0,1-12.83-3.81v15.73Zm-3.3,6.33H8.73v8.86h93.06a21.66,21.66,0,0,1,3.45-8.85ZM93.7,60.12V51.26H87.37v8.86Zm-.37,19h-6V88h2a23.58,23.58,0,0,1,4.12-3.18,31.16,31.16,0,0,1-.23-3.74c0-.68.07-1.32.11-2Zm-6.77,61.36V118.69a23.48,23.48,0,0,1-3.71-8H67.58v29.79Zm-25.31,0V110.74h-19v29.74Z" transform="translate(0 0)"/><path class="cls-6" d="M148.19,89.38a17.26,17.26,0,1,1-21.76,25.13v-8.46l11.66-11.67a3.16,3.16,0,1,0-4.48-4.47h0l-7.18,7.18V82.52a3.17,3.17,0,0,0-6.33-.36,2.16,2.16,0,0,0,0,.36v7.69l-5.4-5.4a3.16,3.16,0,0,0-4.47,4.48l9.87,9.87v15.32a17.26,17.26,0,1,1-21.76-25.1,3.17,3.17,0,0,0,1.75-3.5,23.67,23.67,0,1,1,46.85-4.81,24.23,24.23,0,0,1-.49,4.81A3.15,3.15,0,0,0,148.19,89.38Z" transform="translate(0 0)"/><path class="cls-7" d="M153.1,155.67H108.25a15.34,15.34,0,0,1,27.29-6,3.16,3.16,0,0,0,4.05.87,9.51,9.51,0,0,1,12.9,3.8,9.86,9.86,0,0,1,.61,1.37Z" transform="translate(0 0)"/><path class="cls-8" d="M108.54,128.38v12.1H92.89V124.73a23.47,23.47,0,0,0,12.83,3.81A24.24,24.24,0,0,0,108.54,128.38Z" transform="translate(0 0)"/><path class="cls-8" d="M108.54,6.38V54.91A30.16,30.16,0,0,0,100,62.09v-14a3.15,3.15,0,0,0-3.14-3.16H84.2A3.15,3.15,0,0,0,81,48.09h0V63.28a3.15,3.15,0,0,0,3.16,3.16H97.07a29.81,29.81,0,0,0-2.64,6.34H84.2A3.17,3.17,0,0,0,81,76V91.12a3.17,3.17,0,0,0,3.16,3.17h.51a23.5,23.5,0,0,0-2.57,10.09h-43A3.15,3.15,0,0,0,36,107.54h0v32.9H21.21V86.06a3.15,3.15,0,0,0-3.16-3.16h0V76.57a3.17,3.17,0,0,0,0-6.33V63.91a3.15,3.15,0,0,0,3.17-3.15h0V6.38ZM100,35.49V20.25a3.15,3.15,0,0,0-3.15-3.17H84.2A3.17,3.17,0,0,0,81,20.25V35.44A3.18,3.18,0,0,0,84.2,38.6H96.86A3.15,3.15,0,0,0,100,35.44ZM74.71,91.12V75.94a3.17,3.17,0,0,0-3.16-3.17H58.89a3.15,3.15,0,0,0-3.16,3.16h0V91.12a3.15,3.15,0,0,0,3.15,3.17H71.55A3.17,3.17,0,0,0,74.71,91.12Zm0-27.84V48.09a3.15,3.15,0,0,0-3.16-3.16H58.89a3.15,3.15,0,0,0-3.16,3.14V63.28a3.15,3.15,0,0,0,3.14,3.16H71.55A3.15,3.15,0,0,0,74.71,63.28Zm0-27.84V20.25a3.17,3.17,0,0,0-3.16-3.17H58.89a3.15,3.15,0,0,0-3.16,3.16h0V35.44a3.15,3.15,0,0,0,3.16,3.16H71.55A3.18,3.18,0,0,0,74.71,35.44ZM49.4,91.12V75.94a3.17,3.17,0,0,0-3.16-3.17H33.58a3.17,3.17,0,0,0-3.17,3.17V91.12a3.17,3.17,0,0,0,3.17,3.17H46.24A3.17,3.17,0,0,0,49.4,91.12Zm0-27.84V48.09a3.15,3.15,0,0,0-3.16-3.16H33.58a3.15,3.15,0,0,0-3.17,3.15h0V63.28a3.15,3.15,0,0,0,3.16,3.16H46.24a3.15,3.15,0,0,0,3.16-3.16Zm0-27.84V20.25a3.17,3.17,0,0,0-3.16-3.17H33.58a3.17,3.17,0,0,0-3.17,3.17V35.44a3.17,3.17,0,0,0,3.17,3.16H46.24A3.18,3.18,0,0,0,49.4,35.44Z" transform="translate(0 0)"/><path class="cls-8" d="M8.73,146.81h96.51a21.65,21.65,0,0,0-3.42,8.86H8.73Z" transform="translate(0 0)"/><path class="cls-5" d="M100,20.25V35.44a3.15,3.15,0,0,1-3.16,3.16H84.2A3.18,3.18,0,0,1,81,35.44V20.25a3.17,3.17,0,0,1,3.16-3.17H96.86A3.15,3.15,0,0,1,100,20.24Zm-6.32,12V23.38H87.37v8.86Z" transform="translate(0 0)"/><rect class="cls-9" x="87.37" y="51.26" width="6.33" height="8.86"/><rect class="cls-9" x="87.37" y="23.41" width="6.33" height="8.86"/><path class="cls-9" d="M87.37,79.1h6c0,.64-.06,1.29-.06,1.94a31.16,31.16,0,0,0,.23,3.74A23.58,23.58,0,0,0,89.42,88h-2Z" transform="translate(0 0)"/><path class="cls-10" d="M86.56,118.69v21.79h-19V110.74H82.85A23.71,23.71,0,0,0,86.56,118.69Z" transform="translate(0 0)"/><path class="cls-5" d="M74.71,75.94V91.12a3.17,3.17,0,0,1-3.16,3.17H58.89a3.15,3.15,0,0,1-3.16-3.16h0V75.94a3.15,3.15,0,0,1,3.15-3.17H71.55A3.17,3.17,0,0,1,74.71,75.94Zm-6.33,12V79.1H62.06V88Z" transform="translate(0 0)"/><path class="cls-5" d="M74.71,48.09V63.28a3.15,3.15,0,0,1-3.16,3.16H58.89a3.15,3.15,0,0,1-3.16-3.14V48.09a3.15,3.15,0,0,1,3.14-3.16H71.55A3.15,3.15,0,0,1,74.71,48.09Zm-6.33,12V51.26H62.06v8.86Z" transform="translate(0 0)"/><path class="cls-5" d="M74.71,20.25V35.44a3.18,3.18,0,0,1-3.16,3.16H58.89a3.15,3.15,0,0,1-3.16-3.16V20.25a3.15,3.15,0,0,1,3.15-3.17H71.55A3.17,3.17,0,0,1,74.71,20.25Zm-6.33,12V23.38H62.06v8.86Z" transform="translate(0 0)"/><rect class="cls-9" x="62.06" y="79.1" width="6.32" height="8.86"/><rect class="cls-9" x="62.06" y="51.26" width="6.32" height="8.86"/><rect class="cls-9" x="62.06" y="23.41" width="6.32" height="8.86"/><rect class="cls-10" x="42.27" y="110.74" width="18.98" height="29.74"/><path class="cls-5" d="M49.4,75.94V91.12a3.17,3.17,0,0,1-3.16,3.17H33.58a3.17,3.17,0,0,1-3.17-3.17V75.94a3.17,3.17,0,0,1,3.17-3.17H46.24A3.17,3.17,0,0,1,49.4,75.94Zm-6.33,12V79.1H36.79V88Z" transform="translate(0 0)"/><path class="cls-5" d="M49.4,48.09V63.28a3.15,3.15,0,0,1-3.16,3.16H33.58a3.15,3.15,0,0,1-3.17-3.15h0V48.09a3.15,3.15,0,0,1,3.16-3.16H46.24A3.15,3.15,0,0,1,49.4,48.09Zm-6.33,12V51.26H36.79v8.86Z" transform="translate(0 0)"/><path class="cls-5" d="M49.4,20.25V35.44a3.18,3.18,0,0,1-3.16,3.16H33.58a3.17,3.17,0,0,1-3.17-3.16V20.25a3.17,3.17,0,0,1,3.17-3.17H46.24A3.17,3.17,0,0,1,49.4,20.25Zm-6.33,12V23.38H36.79v8.86Z" transform="translate(0 0)"/><rect class="cls-9" x="36.74" y="79.1" width="6.33" height="8.86"/><rect class="cls-9" x="36.74" y="51.26" width="6.33" height="8.86"/><rect class="cls-9" x="36.74" y="23.41" width="6.33" height="8.86"/><path class="cls-5" d="M20.28,71.17a3.15,3.15,0,1,1-4.45,0A3.1,3.1,0,0,1,18,70.24,3.18,3.18,0,0,1,20.28,71.17Z" transform="translate(0 0)"/></svg>