<?xml version="1.0" encoding="utf-8"?>
<!-- Generator: Adobe Illustrator 22.1.0, SVG Export Plug-In . SVG Version: 6.00 Build 0)  -->
<svg version="1.1" id="Layer_1" xmlns="http://www.w3.org/2000/svg" xmlns:xlink="http://www.w3.org/1999/xlink" x="0px" y="0px"
	 viewBox="0 0 169.4 269.6" style="enable-background:new 0 0 169.4 269.6;" xml:space="preserve">
<style type="text/css">
	.st0{fill:#D1AEA1;}
	.st1{fill:#E5D389;}
	.st2{fill:#EFD154;}
	.st3{fill:#506835;}
	.st4{fill:#759B51;}
	.st5{fill:#E5D2CC;}
	.st6{fill:#D8C4BC;}
	.st7{fill:none;stroke:#76797D;stroke-width:2;stroke-miterlimit:10;}
	.st8{fill:none;}
	.st9{fill:none;stroke:#687787;stroke-width:2;stroke-miterlimit:10;}
	.st10{fill:#DBD456;}
	.st11{fill:#E0E02B;}
	.st12{fill:#E0DC3D;stroke:#E0DC3D;stroke-width:2;stroke-miterlimit:10;}
	.st13{fill:none;stroke:#76797D;stroke-width:5;stroke-miterlimit:10;}
</style>
<title>beachY</title>
<path class="st0" d="M162.5,128.7v5.9H58.7c-0.2-0.5-0.3-1.1-0.4-1.6c-0.1-0.7-0.5-1.3-0.9-1.7c0.2-0.5,0.5-0.9,0.7-1.4
	c0.2-0.4,0.2-0.8,0.2-1.2H162.5z"/>
<path class="st1" d="M156.2,86.3c0,13.1-10.6,23.8-23.8,23.8s-23.8-10.6-23.8-23.8l0,0c0-13.1,10.6-23.7,23.7-23.7l0,0l0,0
	C145.6,62.6,156.2,73.2,156.2,86.3z"/>
<path class="st2" d="M132.5,56.7c16.4,0,29.7,13.3,29.7,29.7S148.9,116,132.5,116s-29.7-13.3-29.7-29.7S116.1,56.7,132.5,56.7
	L132.5,56.7z M132.5,110.1c13.1,0,23.8-10.6,23.8-23.8s-10.6-23.8-23.8-23.8l0,0c-13.1,0-23.7,10.6-23.7,23.8l0,0l0,0
	C108.7,99.5,119.4,110.1,132.5,110.1z"/>
<path class="st3" d="M113.8,44.5c0,1.7-1.3,3-3,3H89.9l2.4,2.4c8.8,8.8,11,22.3,5.4,33.5c-0.4,0.9-1.2,1.5-2.2,1.6
	c-0.2,0-0.3,0-0.5,0c-0.8,0-1.5-0.3-2.1-0.9L65.5,56.7c-3.3,30.9-13.1,60.9-28.6,87.8l-8.4,2.6c0.8-1.4,1.7-2.7,2.5-4.1l0,0
	c10.7-18.3,18.7-38,23.6-58.6l0,0c2.7-10.9,4.5-22,5.4-33.2l-2.6-2.5L54,52.1c-1,14.1-3.7,28-8.2,41.3l0,0
	c-6,17.8-14.9,34.5-26.4,49.4c-1.2,1.6-2.5,3.1-3.7,4.7c-0.3,0.3-0.8,0.4-1.1,0.1l-3.9-3.2c0.6-0.7,1.2-1.5,1.8-2.2l4-5.1
	c17.1-22.9,27.8-50,31-78.4L21.7,84.1c-0.6,0.6-1.3,0.9-2.1,0.9c-0.2,0-0.3,0-0.5,0c-0.9-0.2-1.7-0.8-2.2-1.6
	c-5.6-11.2-3.4-24.7,5.4-33.5l2.4-2.4H4c-1.7,0-3-1.4-3-3c0-0.3,0-0.6,0.1-0.9c3.9-11.8,15-19.8,27.5-19.8h3.9L17.7,8.8
	c-0.2-0.2-0.4-0.5-0.6-0.8c-0.7-1.5-0.1-3.2,1.3-3.9l0,0C29.7-1.5,43.2,0.7,52,9.5l2.9,2.8c0.9,0.9,1.8,1.9,2.5,3
	c0.8-1.1,1.6-2.1,2.6-3l2.8-2.8c8.8-8.8,22.3-11,33.5-5.4c0.3,0.2,0.5,0.3,0.8,0.6c1.1,1.2,1.1,3,0,4.2L82.2,23.7h3.8
	c12.5,0,23.6,8,27.5,19.9C113.7,43.9,113.8,44.2,113.8,44.5z M81.7,41.5h24.6c-4.1-7.3-11.8-11.9-20.2-11.9h-4
	c-7.5,0-14.4,3.6-18.8,9.7C69.5,38,76,38.8,81.7,41.5z M94.1,76.8c2.3-8.1,0.1-16.7-5.9-22.7l-2.8-2.8c-5.9-5.9-14.6-8.1-22.7-5.7
	L94.1,76.8L94.1,76.8z M72.1,25.5L89.7,7.8C81.6,5.5,72.9,7.8,67,13.7l-2.9,2.8c-5.2,5.3-7.5,12.7-6.1,20l0,0
	C61.4,31.5,66.3,27.6,72.1,25.5L72.1,25.5z M20.7,76.8l31.4-31.2c-2.2-0.6-4.4-0.9-6.6-0.9c-6,0-11.8,2.4-16,6.6l-2.9,2.8
	C20.6,60,18.4,68.7,20.7,76.8z M51.7,30.9c0.2-3.4,0.9-6.8,2.3-9.9c-0.9-1.6-2.1-3.1-3.4-4.5l-2.8-2.8c-5.9-6-14.7-8.2-22.7-5.9
	l17.6,17.7C46,26.8,49,28.6,51.7,30.9L51.7,30.9z M33.1,41.5c5.7-2.7,12.2-3.5,18.4-2.2c-4.3-6.1-11.3-9.7-18.8-9.7h-4
	c-8.4,0-16.1,4.5-20.2,11.9H33.1z"/>
<path class="st4" d="M106.3,41.5H81.7C76,38.8,69.5,38,63.3,39.3c4.3-6.1,11.3-9.7,18.8-9.7h4C94.5,29.6,102.2,34.2,106.3,41.5z"/>
<path class="st4" d="M88.2,54.1c5.9,5.9,8.2,14.6,5.9,22.7l0,0L62.7,45.6c8-2.4,16.7-0.2,22.6,5.7L88.2,54.1z"/>
<path class="st4" d="M89.7,7.8L72.1,25.5c-5.7,2.1-10.6,5.9-14,11l0,0c-1.4-7.3,0.9-14.7,6.1-20l2.9-2.8C72.9,7.8,81.6,5.5,89.7,7.8
	z"/>
<path class="st5" d="M57.4,48.7l2.6,2.5c-0.9,11.2-2.7,22.3-5.4,33.2l0,0l-8.8,9C50.3,80.1,53,66.2,54,52.1L57.4,48.7z"/>
<path class="st6" d="M45.8,93.4l8.8-9C49.6,105,41.7,124.7,31,143l0,0l-11.6-0.2l0,0C30.9,127.9,39.8,111.2,45.8,93.4L45.8,93.4z"/>
<path class="st4" d="M52.1,45.6L20.7,76.8c-2.3-8.1-0.1-16.7,5.9-22.7l2.9-2.8c4.2-4.2,10-6.6,16-6.6C47.7,44.6,49.9,45,52.1,45.6z"
	/>
<path class="st4" d="M54,21c-1.3,3.1-2.1,6.5-2.2,9.9l0,0c-2.6-2.3-5.7-4.1-9-5.4L25.1,7.8c8.1-2.3,16.8-0.1,22.7,5.9l2.8,2.8
	C51.9,17.9,53.1,19.4,54,21z"/>
<path class="st4" d="M51.5,39.3c-6.2-1.3-12.7-0.5-18.4,2.2H8.5c4.1-7.3,11.8-11.9,20.2-11.9h4C40.1,29.7,47.1,33.3,51.5,39.3z"/>
<path class="st7" d="M54.6,84.5C49.6,105,41.7,124.7,31,143"/>
<path class="st7" d="M45.8,93.4C50.3,80,53,66.2,54,52.1l3.4-3.4l2.6,2.5c-0.9,11.2-2.7,22.3-5.4,33.2"/>
<path class="st7" d="M31,143c-0.8,1.4-1.6,2.8-2.5,4.1l8.4-2.6c15.5-27,25.2-56.9,28.5-87.8l27.6,27.4c0.6,0.5,1.3,0.9,2.1,0.9
	c0.2,0,0.3,0,0.5,0c0.9-0.2,1.7-0.7,2.2-1.6c5.6-11.2,3.4-24.7-5.4-33.5l-2.4-2.4h20.9c1.7,0,3-1.3,3-3c0-0.3-0.1-0.6-0.1-0.9
	c-3.9-11.9-15.1-19.9-27.6-19.9h-3.8L97.1,8.8c1.1-1.2,1.1-3,0-4.2c-0.2-0.2-0.5-0.4-0.8-0.6C85.1-1.5,71.6,0.7,62.8,9.5L60,12.3
	c-0.9,0.9-1.8,1.9-2.6,3c-0.8-1.1-1.6-2.1-2.5-3L52,9.5c-8.8-8.9-22.3-11-33.5-5.4c-1.4,0.7-2,2.5-1.3,3.9l0,0
	c0.2,0.3,0.4,0.6,0.6,0.8l14.8,14.9h-3.9c-12.5,0-23.6,8-27.5,19.8c-0.5,1.6,0.4,3.3,2,3.8c0.3,0.1,0.6,0.1,0.9,0.1h20.8l-2.4,2.4
	c-8.8,8.8-11,22.3-5.4,33.5c0.4,0.9,1.2,1.4,2.2,1.6c0.2,0,0.3,0,0.5,0c0.8,0,1.5-0.3,2.1-0.9l25.7-25.5
	c-3.2,28.4-13.9,55.5-31,78.4l-4,5.1c-0.6,0.8-1.2,1.5-1.8,2.2l3.9,3.2c0.3,0.3,0.8,0.2,1.1-0.1c1.3-1.5,2.5-3.1,3.7-4.7
	c11.5-14.8,20.4-31.5,26.4-49.4"/>
<path class="st7" d="M102.8,86.4c0,16.4,13.3,29.7,29.7,29.7s29.7-13.3,29.7-29.7s-13.3-29.7-29.7-29.7l0,0
	C116.1,56.7,102.8,70,102.8,86.4C102.8,86.3,102.8,86.4,102.8,86.4z"/>
<path class="st7" d="M132.5,62.6c13.1,0,23.8,10.6,23.8,23.7s-10.6,23.8-23.7,23.8c-13.1,0-23.8-10.6-23.8-23.7l0,0
	C108.7,73.3,119.3,62.6,132.5,62.6L132.5,62.6L132.5,62.6z"/>
<path class="st7" d="M8.5,41.5c4.1-7.3,11.8-11.9,20.2-11.9h4c7.5,0,14.5,3.6,18.8,9.7c-6.2-1.3-12.7-0.5-18.4,2.2L8.5,41.5z"/>
<path class="st7" d="M20.7,76.8c-2.3-8.1-0.1-16.7,5.9-22.7l2.9-2.8c4.2-4.2,10-6.6,16-6.6c2.2,0,4.4,0.3,6.6,0.9L20.7,76.8z"/>
<path class="st7" d="M51.7,30.9c-2.6-2.3-5.7-4.1-9-5.4L25.1,7.8c8.1-2.3,16.8-0.1,22.7,5.9l2.8,2.8c1.3,1.3,2.4,2.8,3.4,4.5
	C52.7,24.1,51.9,27.5,51.7,30.9L51.7,30.9z"/>
<path class="st7" d="M58,36.5c-1.4-7.3,0.9-14.7,6.1-20l2.9-2.8c5.9-5.9,14.6-8.2,22.7-5.9L72.1,25.5C66.4,27.6,61.5,31.5,58,36.5
	L58,36.5z"/>
<path class="st7" d="M94,76.8L62.7,45.6c8-2.4,16.7-0.2,22.6,5.7l2.8,2.8C94.1,60,96.4,68.7,94,76.8L94,76.8z"/>
<path class="st7" d="M81.7,41.5C76,38.8,69.5,38,63.3,39.3c4.3-6.1,11.3-9.7,18.8-9.7h4c8.4,0,16.1,4.5,20.2,11.9H81.7z"/>
<path class="st7" d="M58.3,128.7c0,0.4-0.1,0.8-0.2,1.2c-0.2,0.5-0.4,0.9-0.7,1.4c0.5,0.5,0.8,1.1,0.9,1.7c0.1,0.5,0.2,1.1,0.4,1.6
	h103.8v-5.9H58.3z"/>
<polyline class="st7" points="45.8,93.4 45.8,93.4 54.6,84.5 54.6,84.4 "/>
<line class="st8" x1="27.4" y1="143" x2="15.8" y2="142.8"/>
<line class="st9" x1="27.5" y1="143" x2="27.4" y2="143"/>
<path class="st10" d="M69.8,143.1l-46.1,44.3l0,0L8.4,166.5c-4-5.8-4-13.5,0-19.4c2-2.7,4.4-4.1,7.1-4.1L69.8,143.1z"/>
<path class="st11" d="M163.9,166.6L93.2,263c-2,2.7-4.4,4.1-7.1,4.1c-2.7,0-5.1-1.4-7.1-4.1l-37.4-51l74.3-68.7v-0.2h40.8
	c2.7,0,5.1,1.4,7.1,4.1C167.9,153,167.9,160.7,163.9,166.6z"/>
<polygon class="st12" points="116,143.3 41.7,212 23.7,187.4 23.7,187.4 69.8,143.1 116,143.1 "/>
<path class="st13" d="M69.8,143.1H15.5c-2.7,0-5.1,1.4-7.1,4.1c-4,5.8-4,13.5,0,19.4l15.3,20.9l18,24.6L79,263
	c2,2.7,4.4,4.1,7.1,4.1c2.7,0,5.1-1.4,7.1-4.1l70.7-96.4c4-5.8,4-13.5,0-19.4c-2-2.7-4.4-4.1-7.1-4.1L69.8,143.1L69.8,143.1z"/>
</svg>
