<svg id="Layer_1" data-name="Layer 1" xmlns="http://www.w3.org/2000/svg" viewBox="0 0 175.76 284.92"><defs><style>.cls-1{fill:#7a7a7a;}.cls-2{fill:#7a1c1c;}.cls-3{fill:#2d333c;}.cls-4{fill:#c1c1c1;}.cls-5{fill:#303030;}.cls-6{fill:#151516;}.cls-7{fill:#f3f3f3;}.cls-8{fill:#842525;}.cls-9{fill:#e0e02b;}.cls-10{fill:#e0dc3d;stroke:#e0dc3d;stroke-width:2px;}.cls-10,.cls-12{stroke-miterlimit:10;}.cls-11{fill:#dbd456;}.cls-12{fill:none;stroke:#7a7a7a;stroke-width:5px;}</style></defs><title>parkingY</title><path class="cls-1" d="M99,32.57a42.2,42.2,0,0,0-59.68,0h0a2.46,2.46,0,1,0,3.48,3.48h0a37.31,37.31,0,0,1,52.75,0A2.46,2.46,0,1,0,99,32.57Z" transform="translate(0 0)"/><path class="cls-1" d="M88.86,42.74a27.87,27.87,0,0,0-39.38,0A2.47,2.47,0,1,0,53,46.22h0a23,23,0,0,1,32.41,0,2.46,2.46,0,1,0,3.49-3.48h0Z" transform="translate(0 0)"/><path class="cls-1" d="M78.85,52.74a13.71,13.71,0,0,0-19.37,0A2.48,2.48,0,0,0,63,56.23h0a8.78,8.78,0,0,1,12.4,0,2.46,2.46,0,0,0,3.48-3.49Z" transform="translate(0 0)"/><path class="cls-1" d="M173,118.16v13.51a9.41,9.41,0,0,1-9.14,9.63h-4.67a16.8,16.8,0,0,1-11.31,11.92c-8.68,2.58-17.71-2.76-20.15-11.92H45.88a16.7,16.7,0,0,1-12.66,12.26c-8.86,1.78-17.42-4.34-19.12-13.68l-9.82-4.59a7.65,7.65,0,0,1-4.28-7V103.16A12,12,0,0,1,9.08,91.42l3.54-.75a31.89,31.89,0,0,0,16.24-9.24,36.25,36.25,0,0,1,26.38-11.5H85.13a35.93,35.93,0,0,1,20.92,6.74l16.3,11.59c2.92,2.09,7.32,5,11.83,5.91l3.27.68V63.51H118.78A6.33,6.33,0,0,1,112.63,57V42.53a1.82,1.82,0,0,1,0-.33,2.51,2.51,0,0,1,2.59-2.43h0a2.55,2.55,0,0,1,2.31,2.76V57a1.26,1.26,0,0,0,1.22,1.28h48A1.26,1.26,0,0,0,168,57V6.45a1.26,1.26,0,0,0-1.19-1.28h-48a1.26,1.26,0,0,0-1.22,1.28V25.67a2.47,2.47,0,0,1-4.93,0V6.48A6.34,6.34,0,0,1,118.81,0h48A6.32,6.32,0,0,1,173,6.45h0V57.07a6.31,6.31,0,0,1-6.19,6.44H150.34v34l6.37,1.34a20.4,20.4,0,0,1,13.39,9.91l.77,1.36A16.3,16.3,0,0,1,173,118.16Zm-4.93,13.51V118.15a10.89,10.89,0,0,0-1.42-5.37l-.78-1.36a15.43,15.43,0,0,0-10.12-7.51l-22.5-4.71c-5.39-1.12-10.36-4.35-13.63-6.68l-16.3-11.59c-.46-.33-.93-.64-1.41-1a31.08,31.08,0,0,0-16.75-4.86H55.3a31.38,31.38,0,0,0-22.9,10,36.77,36.77,0,0,1-18.71,10.6l-3.54.78A6.79,6.79,0,0,0,5,103.15v25.14a2.42,2.42,0,0,0,1.36,2.2l7.68,3.6a17.52,17.52,0,0,1,1.7-5.52c.12-.24.24-.48.37-.71.26-.47.55-.93.86-1.38l.11-.15.35-.48.16-.2a4.94,4.94,0,0,1,.36-.44l.15-.18c.17-.2.34-.4.53-.59a15.73,15.73,0,0,1,21.43-1.53,16.32,16.32,0,0,1,1.69,1.53c.19.2.38.42.57.64l.08.1c.16.18.31.37.46.56a17.61,17.61,0,0,1,3.65,10.34h80.68a17.69,17.69,0,0,1,3.63-10.32v-.09l.44-.54.11-.14.48-.53.08-.09a16.07,16.07,0,0,1,8.35-4.72,16.6,16.6,0,0,1,3.22-.33,15.41,15.41,0,0,1,4,.52,16,16,0,0,1,7.57,4.53l.08.09.48.53.11.14.44.54v.06A17.37,17.37,0,0,1,159.8,136h4.06A4.35,4.35,0,0,0,168.07,131.67ZM151.5,145.11A12.56,12.56,0,0,0,153,130V130c-.08-.14-.17-.27-.26-.41a1,1,0,0,0-.13-.16l-.22-.32-.22-.26-.18-.22c-.14-.16-.28-.33-.43-.49a11,11,0,0,0-15.54-.61c-.21.2-.42.4-.61.61s-.29.33-.43.49l-.27.21-.21.26-.23.32-.13.16-.26.4V130a12.53,12.53,0,0,0,1.48,15.1,11,11,0,0,0,15.54.61C151.1,145.52,151.31,145.32,151.5,145.11Zm-6.12-48.65V63.51h-3V95.84ZM38.22,145.11a12.56,12.56,0,0,0,1.35-15.06V130c-.08-.14-.17-.27-.26-.4a1.09,1.09,0,0,0-.13-.17l-.22-.32-.22-.26-.18-.22c-.13-.16-.28-.33-.43-.49l-.42-.42-.07-.06-.37-.34a11,11,0,0,0-14.37,0l-.35.32-.05,0-.34.35-.08.07-.39.43-.14.18-.25.31-.17.22-.2.28-.17.26-.16.26-.18.3-.12.22-.18.33-.09.18c-.06.14-.18.27-.18.4v.11a12.52,12.52,0,0,0,2.31,13.5,11,11,0,0,0,15.55.55Z" transform="translate(0 0)"/><path class="cls-2" d="M168.07,118.15v13.52a4.36,4.36,0,0,1-4.21,4.44H159.8a17.37,17.37,0,0,0-3.63-10.31v-.13l-.44-.54-.11-.14-.48-.53-.08-.09a16,16,0,0,0-7.57-4.53,15.41,15.41,0,0,0-4-.52,16.6,16.6,0,0,0-3.22.33,16.07,16.07,0,0,0-8.35,4.72.34.34,0,0,1-.08.09l-.48.53-.11.14-.44.54v0A17.69,17.69,0,0,0,127.18,136H46.5a17.67,17.67,0,0,0-3.65-10.33c-.15-.19-.3-.38-.46-.56l-.08-.1c-.19-.22-.38-.44-.57-.64a16.32,16.32,0,0,0-1.69-1.53h0l18.71-14.5h62.57a3.8,3.8,0,0,0,3.67-3.86,7.61,7.61,0,0,0-3.72-6.66c-1.07-.62-2.12-1.3-3.13-2l-16.3-11.59a30.85,30.85,0,0,0-4.72-2.74L101.91,80a10.22,10.22,0,0,1,1.41,1l16.3,11.59c3.27,2.33,8.24,5.56,13.63,6.68l22.5,4.71a15.43,15.43,0,0,1,10.12,7.51l.78,1.36A10.78,10.78,0,0,1,168.07,118.15Zm-92.45-3.1a2.55,2.55,0,0,0-2.31-2.76,1.61,1.61,0,0,0-.31,0H65.36a2.62,2.62,0,0,0,0,5.2H73a2.52,2.52,0,0,0,2.62-2.42Z" transform="translate(0 0)"/><path class="cls-3" d="M168,6.45V57a1.26,1.26,0,0,1-1.22,1.28h-48A1.26,1.26,0,0,1,117.56,57V42.53a2.55,2.55,0,0,0-2.31-2.76V28.08a2.55,2.55,0,0,0,2.34-2.41V6.45a1.26,1.26,0,0,1,1.22-1.28h48A1.26,1.26,0,0,1,168,6.45ZM154.14,25v-.26c0-7.26-4.2-10-9.53-10h-8.45a1.86,1.86,0,0,0-2,1.7V45.32c0,1.2,1.35,1.81,2.73,1.81s2.74-.61,2.74-1.81V35.07h4.7C149.82,35.07,154.14,32.27,154.14,25Z" transform="translate(0 0)"/><path class="cls-4" d="M154.14,24.75V25c0,7.26-4.32,10.06-9.87,10.06h-4.7V45.32c0,1.2-1.36,1.81-2.74,1.81s-2.73-.61-2.73-1.81V16.46a1.86,1.86,0,0,1,2-1.7h8.45C149.94,14.76,154.14,17.49,154.14,24.75Zm-5.46.68v-.51c0-3.45-1.68-5.09-4.41-5.09h-4.7V30.52h4.7C147,30.52,148.68,28.89,148.68,25.43Z" transform="translate(0 0)"/><path class="cls-5" d="M153,130a12.56,12.56,0,0,1-1.52,15.09,11,11,0,0,1-15.54.61c-.21-.2-.42-.4-.61-.61a12.53,12.53,0,0,1-1.48-15.1v-.08l.26-.4.13-.16.23-.32.21-.26.27-.21c.14-.16.28-.33.43-.49a11,11,0,0,1,15.54-.61c.21.2.42.4.61.61s.29.33.43.49l.18.22.22.26.22.32a1,1,0,0,1,.13.16c.09.14.18.27.26.41Zm-2.08,6.58a8.13,8.13,0,0,0-2.19-5.58,7.21,7.21,0,0,0-10.19-.39l-.39.39a8.19,8.19,0,0,0,0,11.15,7.21,7.21,0,0,0,10.19.39q.19-.18.39-.39a8.15,8.15,0,0,0,2.19-5.57Z" transform="translate(0 0)"/><path class="cls-1" d="M148.75,131a8.19,8.19,0,0,1,0,11.15,7.21,7.21,0,0,1-10.19.39l-.39-.39a8.19,8.19,0,0,1,0-11.15,7.21,7.21,0,0,1,10.19-.39Q148.56,130.81,148.75,131Zm-3.49,7.48a2.79,2.79,0,0,0,0-3.81,2.45,2.45,0,0,0-3.48-.13,1.59,1.59,0,0,0-.13.13,2.79,2.79,0,0,0,0,3.81,2.45,2.45,0,0,0,3.48.13A1.59,1.59,0,0,0,145.26,138.5Z" transform="translate(0 0)"/><path class="cls-3" d="M148.68,25.43c0,3.46-1.68,5.09-4.41,5.09h-4.7V19.83h4.7c2.73,0,4.41,1.64,4.41,5.09Z" transform="translate(0 0)"/><ellipse class="cls-6" cx="143.45" cy="136.59" rx="2.56" ry="2.69"/><path class="cls-1" d="M121.28,97.88a7.61,7.61,0,0,1,3.72,6.66,3.8,3.8,0,0,1-3.67,3.86H53.44a2.55,2.55,0,0,1-2.31-2.73,2.51,2.51,0,0,1,2.59-2.43h8.22V84.13h-6.7a24.16,24.16,0,0,0-17.57,7.64,44.34,44.34,0,0,1-11,8.44,1.58,1.58,0,0,0-.81,1.41,1.52,1.52,0,0,0,1.5,1.54H37.64A2.53,2.53,0,0,1,40,105.59a2.57,2.57,0,0,1-2.31,2.76H27.44a6.39,6.39,0,0,1-5.74-3.68,6.94,6.94,0,0,1,2.74-9.11A40.25,40.25,0,0,0,34.24,88a28.84,28.84,0,0,1,21-9.15H85.16a28.44,28.44,0,0,1,12,2.64,30.85,30.85,0,0,1,4.72,2.74l16.3,11.59A27.78,27.78,0,0,0,121.28,97.88Zm-54.41,5.27,52.8-.06a2.49,2.49,0,0,0-.77-.71c-1.2-.7-2.38-1.46-3.51-2.26L99.09,88.53a23.89,23.89,0,0,0-13.93-4.46H66.87Z" transform="translate(0 0)"/><path class="cls-7" d="M119.67,103.09l-52.8.06V84.07H85.16a23.89,23.89,0,0,1,13.93,4.46l16.3,11.59c1.13.8,2.31,1.56,3.51,2.26A2.49,2.49,0,0,1,119.67,103.09Z" transform="translate(0 0)"/><path class="cls-8" d="M101.91,80l-4.78,1.55a28.44,28.44,0,0,0-12-2.64H55.24a28.84,28.84,0,0,0-21,9.15,40.25,40.25,0,0,1-9.8,7.56,6.94,6.94,0,0,0-2.74,9.07,6.38,6.38,0,0,0,5.74,3.64h10.2A2.57,2.57,0,0,0,40,105.55H51.13a2.55,2.55,0,0,0,2.31,2.76h5.32l-18.71,14.5h0a15.73,15.73,0,0,0-21.43,1.53c-.19.19-.36.39-.53.59l-.15.18a4.94,4.94,0,0,0-.36.44l-.16.2-.35.48-.11.15c-.31.45-.6.91-.86,1.38-.13.23-.25.47-.37.71A17.52,17.52,0,0,0,14,134l-7.68-3.6A2.42,2.42,0,0,1,5,128.19v-25a6.79,6.79,0,0,1,5.16-6.7l3.54-.79A36.78,36.78,0,0,0,32.4,85,31.38,31.38,0,0,1,55.3,75H85.16A31.1,31.1,0,0,1,101.91,80Z" transform="translate(0 0)"/><path class="cls-1" d="M73.31,112.29a2.55,2.55,0,0,1,2.31,2.76,2.52,2.52,0,0,1-2.6,2.44H65.36a2.62,2.62,0,0,1,0-5.2H73A1.61,1.61,0,0,1,73.31,112.29Z" transform="translate(0 0)"/><path class="cls-7" d="M61.94,84.13v19.08H53.75a2.51,2.51,0,0,0-2.62,2.4v.06H40a2.53,2.53,0,0,0-2.31-2.43H27.36a1.52,1.52,0,0,1-1.5-1.54h0a1.58,1.58,0,0,1,.81-1.41,44.34,44.34,0,0,0,11-8.44,24.16,24.16,0,0,1,17.57-7.64Z" transform="translate(0 0)"/><path class="cls-5" d="M39.57,130.05a12.56,12.56,0,0,1-1.35,15.06,11,11,0,0,1-15.54.61c-.21-.2-.42-.4-.61-.61a12.52,12.52,0,0,1-2.31-13.5v-.11c0-.13.12-.26.18-.4l.09-.18.18-.33.12-.22.18-.3.16-.26.17-.26.2-.28.17-.22.25-.31.14-.18.39-.43.08-.07.43-.39.09-.08.35-.32a11,11,0,0,1,14.37,0l.37.34.07.06.42.42c.15.16.3.33.43.49l.18.22.22.26.22.32a1.09,1.09,0,0,1,.13.17c.09.13.18.26.26.4Zm-4.13,12.12a8.15,8.15,0,0,0,.06-11.09l-.06-.06a7.21,7.21,0,0,0-10.19-.39q-.2.18-.39.39a8.19,8.19,0,0,0,0,11.15,7.21,7.21,0,0,0,10.19.39Q35.25,142.38,35.44,142.17Z" transform="translate(0 0)"/><path class="cls-1" d="M35.5,131.08a8.15,8.15,0,0,1-.06,11.09,7.21,7.21,0,0,1-10.19.39q-.2-.18-.39-.39a8.19,8.19,0,0,1,0-11.15,7.21,7.21,0,0,1,10.19-.39q.2.18.39.39ZM32,138.49a2.78,2.78,0,0,0,0-3.8,2.45,2.45,0,0,0-3.46-.15l-.15.15a2.78,2.78,0,0,0,0,3.8,2.45,2.45,0,0,0,3.46.15Z" transform="translate(0 0)"/><path class="cls-6" d="M32,134.67a2.78,2.78,0,0,1,0,3.8,2.45,2.45,0,0,1-3.46.15l-.15-.15a2.78,2.78,0,0,1,0-3.8,2.45,2.45,0,0,1,3.46-.15Z" transform="translate(0 0)"/><path class="cls-9" d="M170.15,158.08a17.78,17.78,0,0,1,0,20.1l-73.26,100q-3.12,4.23-7.37,4.23t-7.35-4.23L43.43,225.31,120.5,154v-.18h42.28Q167,153.84,170.15,158.08Z" transform="translate(0 0)"/><polygon class="cls-10" points="120.51 153.84 120.51 154.02 43.43 225.31 24.75 199.82 24.78 199.8 72.56 153.84 120.51 153.84"/><path class="cls-11" d="M72.56,153.84l-47.78,46h0L8.89,178.18a17.82,17.82,0,0,1,0-20.1q3.11-4.25,7.37-4.24Z" transform="translate(0 0)"/><path class="cls-12" d="M72.56,153.84H16.26q-4.26,0-7.37,4.24a17.82,17.82,0,0,0,0,20.1l15.86,21.64,18.68,25.49,38.74,52.88q3.1,4.23,7.35,4.23t7.37-4.23l73.26-100a17.78,17.78,0,0,0,0-20.1q-3.12-4.25-7.36-4.24H72.56Z" transform="translate(0 0)"/></svg>