<svg id="Layer_1" data-name="Layer 1" xmlns="http://www.w3.org/2000/svg" viewBox="0 0 172.48 279.82"><defs><style>.cls-1{fill:#687787;}.cls-2{fill:#b2222a;}.cls-3{fill:#bf2b39;}.cls-4{fill:#e0e02b;}.cls-5{fill:#e0dc3d;stroke:#e0dc3d;stroke-width:2px;}.cls-5,.cls-7{stroke-miterlimit:10;}.cls-6{fill:#dbd456;}.cls-7{fill:none;stroke:#687787;stroke-width:5px;}</style></defs><title>sorY</title><path class="cls-1" d="M153,14.2a48.48,48.48,0,0,1,0,68.54L86.39,149.31,21.77,84.7H33.2L45.91,97.41l40.48,40.48L147.27,77A40.39,40.39,0,0,0,118.7,8.08,40,40,0,0,0,92.27,18.14l-5.9,5.52-5.9-5.51A40.13,40.13,0,0,0,15.72,60.46H7.32A48.18,48.18,0,0,1,86.39,12.6,48.1,48.1,0,0,1,153,14.2Z" transform="translate(0 0)"/><path class="cls-2" d="M147.27,19.91a40.42,40.42,0,0,1,0,57.11L86.39,137.89,45.91,97.41,62.06,68.54l8.27,37.22a4.05,4.05,0,0,0,3.82,3.16h.12A4,4,0,0,0,78.15,106L90.73,62l3.94,11.86a4,4,0,0,0,3.83,2.76h32.31a4,4,0,0,0,0-8.08h-29.4L94.27,47.08a3.83,3.83,0,0,0-3.92-2.76,4,4,0,0,0-3.79,2.93L74.76,88.46,68.2,59,86.39,23.66l5.88-5.52A40,40,0,0,1,147.27,19.91Z" transform="translate(0 0)"/><path class="cls-1" d="M14.86,68.53H39.27l15.1-37.84a4,4,0,0,1,7.69.62L68.2,59l6.56,29.51L86.55,47.23a4,4,0,0,1,3.79-2.93,3.82,3.82,0,0,1,3.93,2.78l7.15,21.47h29.4a4,4,0,1,1,0,8.08H98.5a4,4,0,0,1-3.83-2.76L90.73,62,78.15,106a4,4,0,0,1-3.88,2.92h-.12a4.05,4.05,0,0,1-3.82-3.16L62.06,68.54l-5-22.71L45.71,74.08A4,4,0,0,1,42,76.62H9.66a4,4,0,1,1,0-8.08Z" transform="translate(0 0)"/><path class="cls-3" d="M86.39,23.66,68.2,59,62.06,31.31a4,4,0,0,0-7.69-.62L39.27,68.53H14.86l-2.25-8.07h3.11A40.11,40.11,0,0,1,80.49,18.15Z" transform="translate(0 0)"/><path class="cls-3" d="M57,45.83l5,22.71L45.91,97.41,33.2,84.7H25.73l-6-8.09H42a4,4,0,0,0,3.75-2.53Z" transform="translate(0 0)"/><path class="cls-4" d="M166.86,152.93a17.78,17.78,0,0,1,0,20.1l-73.26,100c-2.08,2.83-4.54,4.25-7.37,4.24s-5.28-1.42-7.35-4.24L40.14,220.17l77.13-71.29v-.18h42.28C162.33,148.7,164.79,150.08,166.86,152.93Z" transform="translate(0 0)"/><polygon class="cls-5" points="117.22 148.7 117.22 148.88 40.15 220.17 21.47 194.68 21.5 194.66 69.27 148.7 117.22 148.7"/><path class="cls-6" d="M69.27,148.7l-47.77,46h0L5.6,173.08a17.82,17.82,0,0,1,0-20.1c2.07-2.82,4.54-4.23,7.37-4.23Z" transform="translate(0 0)"/><path class="cls-7" d="M69.27,148.7H13c-2.83,0-5.3,1.41-7.37,4.23a17.82,17.82,0,0,0,0,20.1l15.87,21.65,18.67,25.49,38.74,52.91c2.07,2.83,4.52,4.25,7.35,4.24s5.28-1.42,7.37-4.24l73.26-100a17.78,17.78,0,0,0,0-20.1c-2.07-2.82-4.53-4.23-7.36-4.23H69.27Z" transform="translate(0 0)"/></svg>