<svg id="Layer_1" data-name="Layer 1" xmlns="http://www.w3.org/2000/svg" viewBox="0 0 175.75 284.93"><defs><style>.cls-1{fill:#c1c1c1;}.cls-2{fill:#041823;}.cls-3{fill:#842525;}.cls-4{fill:#303030;}.cls-5{fill:#f3f3f3;}.cls-6{fill:#151516;}.cls-7{fill:#7a1c1c;}.cls-8{fill:#c62222;stroke:#c62222;stroke-width:2px;}.cls-11,.cls-8{stroke-miterlimit:10;}.cls-9{fill:#d31818;}.cls-10{fill:#bc2b2b;}.cls-11{fill:none;stroke:#c1c1c1;stroke-width:5px;}</style></defs><title>parkingR</title><path class="cls-1" d="M99,26a40.7,40.7,0,0,0-57.52-2.17c-.75.69-1.47,1.42-2.17,2.17h0a2.7,2.7,0,0,0,0,3.67,2.38,2.38,0,0,0,3.36.12l.12-.12h0a36,36,0,0,1,50.88-1.86q.94.89,1.83,1.83a2.38,2.38,0,0,0,3.36.12l.12-.12A2.69,2.69,0,0,0,99,26Z" transform="translate(0.01 0)"/><path class="cls-1" d="M88.86,36.75a26.88,26.88,0,0,0-38-1.39c-.48.45-.94.91-1.39,1.39a2.7,2.7,0,0,0,0,3.69,2.39,2.39,0,0,0,3.38.12l.12-.12h0a22.17,22.17,0,0,1,31.33-1.08c.38.35.73.71,1.08,1.08a2.38,2.38,0,0,0,3.36.13l.13-.13a2.7,2.7,0,0,0,0-3.67h0Z" transform="translate(0.01 0)"/><path class="cls-1" d="M78.85,47.29a13.21,13.21,0,0,0-18.68-.69q-.36.33-.69.69a2.7,2.7,0,0,0,0,3.69,2.37,2.37,0,0,0,3.36.14A1.85,1.85,0,0,0,63,51h0a8.47,8.47,0,0,1,12-.43l.43.43a2.38,2.38,0,0,0,3.36.13,1.59,1.59,0,0,0,.13-.13,2.7,2.7,0,0,0,0-3.67Z" transform="translate(0.01 0)"/><path class="cls-1" d="M139.57,19.82v10.7h4.7c2.73,0,4.41-1.63,4.41-5.09v-.52c0-3.44-1.68-5.09-4.41-5.09Zm0,15.24V45.32c0,1.2-1.36,1.81-2.74,1.81s-2.73-.61-2.73-1.81V16.46a1.88,1.88,0,0,1,2-1.71h8.45c5.33,0,9.53,2.73,9.53,10V25c0,7.26-4.32,10.05-9.87,10.05Z" transform="translate(0.01 0)"/><path class="cls-1" d="M145.41,96.46V63.51h-3V95.84ZM133.9,130a12.53,12.53,0,0,0,1.48,15.1,11,11,0,0,0,15.54.61c.21-.2.42-.4.61-.61A12.56,12.56,0,0,0,153,130v-.08c-.08-.14-.17-.26-.26-.4l-.13-.17-.22-.31-.22-.27-.18-.22-.43-.48a11,11,0,0,0-15.54-.61c-.21.2-.42.4-.61.61l-.43.48-.27.21-.21.27-.23.31-.13.17-.26.4ZM19.76,131.6a12.52,12.52,0,0,0,2.31,13.5,11,11,0,0,0,15.54.61c.21-.2.42-.4.61-.61A12.56,12.56,0,0,0,39.57,130V130l-.26-.4-.13-.17-.22-.31-.22-.27-.18-.22-.43-.48-.42-.42-.07-.07-.37-.33a11,11,0,0,0-14.37,0l-.35.31-.05.07-.34.34-.08.08-.39.43-.14.18-.25.31-.17.22-.2.28-.17.25-.16.27-.18.29-.12.22-.18.34-.09.18c-.06.14-.18.26-.18.4A.42.42,0,0,0,19.76,131.6ZM5,128.3a2.42,2.42,0,0,0,1.36,2.2L14,134.09a17.79,17.79,0,0,1,1.7-5.52c.12-.23.24-.47.37-.7.26-.47.55-.93.86-1.38l.11-.15.35-.49a1.56,1.56,0,0,0,.16-.2,4.82,4.82,0,0,1,.36-.43l.15-.18c.17-.2.34-.4.53-.59a15.77,15.77,0,0,1,21.43-1.55,17.74,17.74,0,0,1,1.69,1.55l.57.63.08.11c.16.18.31.37.46.56a17.6,17.6,0,0,1,3.65,10.33h80.68a17.69,17.69,0,0,1,3.63-10.32v-.09l.44-.54.11-.14.48-.54a.3.3,0,0,0,.08-.08,16.07,16.07,0,0,1,8.35-4.72,15.85,15.85,0,0,1,3.22-.33,15.41,15.41,0,0,1,4,.52,16,16,0,0,1,7.57,4.53l.08.08c.16.18.33.36.48.54l.11.14.44.54v.06A17.37,17.37,0,0,1,159.8,136h4.06a4.36,4.36,0,0,0,4.21-4.44V118.15a10.9,10.9,0,0,0-1.42-5.38l-.78-1.36a15.44,15.44,0,0,0-10.12-7.5l-22.5-4.71c-5.39-1.13-10.36-4.35-13.63-6.68l-16.3-11.59-1.41-1a31,31,0,0,0-16.75-4.86H55.3a31.38,31.38,0,0,0-22.9,10,36.77,36.77,0,0,1-18.71,10.6l-3.54.78A6.78,6.78,0,0,0,5,103.14Zm-5,0V103.15A12,12,0,0,1,9.07,91.41l3.55-.74a31.84,31.84,0,0,0,16.24-9.23A36.26,36.26,0,0,1,55.24,69.92H85.13a35.94,35.94,0,0,1,20.92,6.75l16.3,11.59c2.92,2.09,7.32,5,11.83,5.9l3.27.69V63.51H118.78A6.33,6.33,0,0,1,112.63,57V42.52a1.82,1.82,0,0,1,0-.33,2.52,2.52,0,0,1,2.61-2.43h0a2.55,2.55,0,0,1,2.31,2.76V57a1.25,1.25,0,0,0,1.22,1.28h48A1.25,1.25,0,0,0,168,57h0V6.45a1.26,1.26,0,0,0-1.19-1.29h-48a1.26,1.26,0,0,0-1.22,1.29V25.67a2.47,2.47,0,0,1-4.93,0V6.48A6.34,6.34,0,0,1,118.81,0h48A6.32,6.32,0,0,1,173,6.45h0V57.07a6.31,6.31,0,0,1-6.19,6.44H150.34v34l6.37,1.34a20.42,20.42,0,0,1,13.39,9.92l.77,1.36a16.26,16.26,0,0,1,2.13,8v13.54a9.4,9.4,0,0,1-9.14,9.63h-4.67a16.82,16.82,0,0,1-11.31,11.92c-8.68,2.57-17.71-2.76-20.15-11.92H45.88a16.71,16.71,0,0,1-12.66,12.26c-8.86,1.78-17.42-4.34-19.12-13.68l-9.82-4.6a7.63,7.63,0,0,1-4.28-7Z" transform="translate(0.01 0)"/><path class="cls-2" d="M139.57,30.52V19.82h4.7c2.73,0,4.41,1.65,4.41,5.09v.52c0,3.46-1.68,5.09-4.41,5.09Z" transform="translate(0.01 0)"/><path class="cls-1" d="M27.64,136.59a2.77,2.77,0,0,0,.75,1.9,2.45,2.45,0,0,0,3.48.13l.13-.13a2.79,2.79,0,0,0,0-3.81,2.45,2.45,0,0,0-3.48-.13,1.59,1.59,0,0,0-.13.13A2.82,2.82,0,0,0,27.64,136.59Zm7.8,5.58a7.24,7.24,0,0,1-10.22.36l-.36-.36a8.19,8.19,0,0,1,0-11.15,7.21,7.21,0,0,1,10.19-.39q.2.18.39.39l.06.06A8.15,8.15,0,0,1,35.44,142.17Z" transform="translate(0.01 0)"/><path class="cls-3" d="M5,128.3V103.15a6.78,6.78,0,0,1,5.16-6.69l3.54-.79A36.78,36.78,0,0,0,32.4,85,31.38,31.38,0,0,1,55.3,75H85.16A31,31,0,0,1,101.91,80l-4.78,1.54a28.59,28.59,0,0,0-12-2.64H55.24a28.89,28.89,0,0,0-21,9.16,40.25,40.25,0,0,1-9.8,7.56,6.93,6.93,0,0,0-2.74,9.1,6.37,6.37,0,0,0,5.74,3.65h10.2A2.57,2.57,0,0,0,40,105.55l11.18.06a2.55,2.55,0,0,0,2.31,2.76h5.32L40.05,122.9a15.77,15.77,0,0,0-21.43,1.55c-.19.19-.36.39-.53.59l-.15.18a4.82,4.82,0,0,0-.36.43,1.56,1.56,0,0,1-.16.2l-.35.49-.11.15c-.31.45-.6.91-.86,1.38-.13.23-.25.47-.37.7a17.79,17.79,0,0,0-1.7,5.52L6.35,130.5A2.42,2.42,0,0,1,5,128.3Z" transform="translate(0.01 0)"/><path class="cls-4" d="M24.86,131a8.19,8.19,0,0,0,0,11.15,7.24,7.24,0,0,0,10.22.36l.36-.36a8.15,8.15,0,0,0,.06-11.09l-.06-.06a7.21,7.21,0,0,0-10.19-.39Q25.06,130.81,24.86,131Zm13.36,14.09a11,11,0,0,1-15.54.61c-.21-.2-.42-.4-.61-.61a12.52,12.52,0,0,1-2.31-13.5.21.21,0,0,1,0-.11c0-.14.12-.26.18-.4l.09-.18.18-.34.12-.22.18-.29.16-.27.17-.25.2-.28.17-.22.25-.31.14-.18.39-.43.08-.08.43-.38.09-.09.35-.31a11,11,0,0,1,14.37,0l.37.33.07.07.42.42.43.48.18.22.22.27.22.31.13.17.26.4V130A12.55,12.55,0,0,1,38.22,145.11Z" transform="translate(0.01 0)"/><path class="cls-1" d="M65.36,112.29H73a1.61,1.61,0,0,1,.31,0,2.55,2.55,0,0,1,2.31,2.76,2.52,2.52,0,0,1-2.6,2.44H65.36a2.62,2.62,0,0,1,0-5.2Z" transform="translate(0.01 0)"/><path class="cls-5" d="M119.67,103.09H66.87v-19H85.16a23.91,23.91,0,0,1,13.93,4.45l16.3,11.6c1.13.8,2.31,1.56,3.51,2.25A2.41,2.41,0,0,1,119.67,103.09Z" transform="translate(0.01 0)"/><path class="cls-6" d="M141.65,138.5a2.81,2.81,0,0,1,0-3.82,2.48,2.48,0,0,1,3.51-.1.94.94,0,0,1,.1.1,2.81,2.81,0,0,1,0,3.82,2.48,2.48,0,0,1-3.51.1Z" transform="translate(0.01 0)"/><path class="cls-4" d="M138.17,142.16a7.22,7.22,0,0,0,10.2.38l.38-.38a8.19,8.19,0,0,0,0-11.15,7.21,7.21,0,0,0-10.19-.39l-.39.39A8.17,8.17,0,0,0,138.17,142.16Zm13.33,3a11,11,0,0,1-15.54.61c-.21-.2-.42-.4-.61-.61a12.53,12.53,0,0,1-1.48-15.1v-.08l.26-.4.13-.17.23-.31.21-.27.27-.21.43-.48a11,11,0,0,1,15.54-.61c.21.2.42.4.61.61l.43.48.18.22.22.27.22.31.13.17c.09.14.18.26.26.4V130A12.56,12.56,0,0,1,151.5,145.11Z" transform="translate(0.01 0)"/><path class="cls-1" d="M66.87,103.14h52.8a2.41,2.41,0,0,0-.77-.72c-1.2-.69-2.38-1.45-3.51-2.25l-16.3-11.6a23.93,23.93,0,0,0-13.93-4.5H66.87ZM21.7,104.67a6.93,6.93,0,0,1,2.74-9.1A40.25,40.25,0,0,0,34.24,88a28.89,28.89,0,0,1,21-9.16H85.16a28.59,28.59,0,0,1,12,2.64,29.22,29.22,0,0,1,4.72,2.75l16.3,11.59a35.3,35.3,0,0,0,3.13,2,7.63,7.63,0,0,1,3.72,6.66,3.78,3.78,0,0,1-3.67,3.87H53.44a2.55,2.55,0,0,1-2.31-2.69,2.5,2.5,0,0,1,2.57-2.43h8.24V84.13h-6.7a24.13,24.13,0,0,0-17.57,7.64,44.48,44.48,0,0,1-11,8.43,1.6,1.6,0,0,0-.81,1.42,1.52,1.52,0,0,0,1.49,1.53H37.64a2.62,2.62,0,0,1,0,5.2H27.44A6.37,6.37,0,0,1,21.7,104.67Z" transform="translate(0.01 0)"/><path class="cls-2" d="M139.57,45.32V35.06h4.7c5.55,0,9.87-2.79,9.87-10v-.27c0-7.26-4.2-10-9.53-10h-8.45a1.88,1.88,0,0,0-2,1.71V45.36c0,1.2,1.35,1.81,2.73,1.81S139.57,46.52,139.57,45.32Zm27.21,13h-48A1.25,1.25,0,0,1,117.56,57h0V42.52a2.55,2.55,0,0,0-2.31-2.76V28.07a2.55,2.55,0,0,0,2.34-2.4V6.45a1.26,1.26,0,0,1,1.22-1.29h48A1.26,1.26,0,0,1,168,6.45V57a1.25,1.25,0,0,1-1.22,1.28Z" transform="translate(0.01 0)"/><path class="cls-1" d="M148.75,142.17a7.22,7.22,0,0,1-10.2.38c-.13-.12-.26-.25-.38-.38a8.18,8.18,0,0,1,0-11.14,7.21,7.21,0,0,1,10.19-.39q.19.18.39.39a8.19,8.19,0,0,1,0,11.15Zm-7.1-7.49a2.81,2.81,0,0,0,0,3.82,2.48,2.48,0,0,0,3.51.1l.1-.1a2.81,2.81,0,0,0,0-3.82,2.48,2.48,0,0,0-3.51-.11l-.1.1Z" transform="translate(0.01 0)"/><path class="cls-7" d="M73,112.29H65.36a2.62,2.62,0,0,0,0,5.2H73a2.52,2.52,0,0,0,2.62-2.42v0a2.55,2.55,0,0,0-2.31-2.76A1.61,1.61,0,0,0,73,112.29ZM58.76,108.4h62.57a3.78,3.78,0,0,0,3.67-3.87,7.63,7.63,0,0,0-3.72-6.66,35.3,35.3,0,0,1-3.13-2l-16.3-11.6a29.22,29.22,0,0,0-4.72-2.75L101.91,80a9.44,9.44,0,0,1,1.41,1l16.3,11.59c3.27,2.33,8.24,5.55,13.63,6.68l22.5,4.71a15.44,15.44,0,0,1,10.12,7.5l.78,1.36a10.9,10.9,0,0,1,1.42,5.38v13.47a4.36,4.36,0,0,1-4.21,4.44H159.8a17.37,17.37,0,0,0-3.63-10.31v-.13l-.44-.54-.11-.14c-.15-.18-.32-.36-.48-.54l-.08-.08a16,16,0,0,0-7.57-4.53,15.41,15.41,0,0,0-4-.52,15.85,15.85,0,0,0-3.22.33,16.07,16.07,0,0,0-8.35,4.72.3.3,0,0,1-.08.08l-.48.54-.11.14-.44.54v0A17.69,17.69,0,0,0,127.18,136H46.5a17.6,17.6,0,0,0-3.65-10.33c-.15-.19-.3-.38-.46-.56l-.08-.11-.57-.63a17.74,17.74,0,0,0-1.69-1.55l18.71-14.49Z" transform="translate(0.01 0)"/><path class="cls-6" d="M28.39,138.49a2.77,2.77,0,0,1-.75-1.9,2.82,2.82,0,0,1,.75-1.91,2.45,2.45,0,0,1,3.48-.13,1.59,1.59,0,0,1,.13.13,2.79,2.79,0,0,1,0,3.81,2.45,2.45,0,0,1-3.48.13Z" transform="translate(0.01 0)"/><path class="cls-5" d="M37.64,103.15H27.36a1.52,1.52,0,0,1-1.5-1.52h0a1.6,1.6,0,0,1,.81-1.42,44.48,44.48,0,0,0,11-8.43,24.13,24.13,0,0,1,17.57-7.64h6.7v19.08H53.75a2.5,2.5,0,0,0-2.62,2.38v.08L40,105.61A2.55,2.55,0,0,0,37.64,103.15Z" transform="translate(0.01 0)"/><polygon class="cls-8" points="120.5 153.81 120.5 153.99 43.42 225.28 24.75 199.8 24.78 199.77 72.55 153.81 120.5 153.81"/><path class="cls-9" d="M170.13,178.19l-73.26,100c-2.08,2.83-4.54,4.25-7.37,4.24s-5.28-1.42-7.35-4.24L43.41,225.28,120.54,154v-.18h42.28c2.83,0,5.29,1.41,7.36,4.24A17.76,17.76,0,0,1,170.13,178.19Z" transform="translate(0.01 0)"/><path class="cls-10" d="M72.54,153.81l-47.77,46h0L8.87,178.19a17.8,17.8,0,0,1,0-20.09c2.07-2.83,4.53-4.25,7.37-4.24Z" transform="translate(0.01 0)"/><path class="cls-11" d="M72.54,153.81H16.24q-4.26,0-7.37,4.24a17.8,17.8,0,0,0,0,20.09l15.87,21.65,18.67,25.49,38.74,52.91c2.07,2.83,4.52,4.25,7.35,4.24s5.28-1.42,7.37-4.24l73.26-100a17.77,17.77,0,0,0,0-20.09c-2.08-2.83-4.53-4.25-7.36-4.24H72.54Z" transform="translate(0.01 0)"/></svg>