<?xml version="1.0" encoding="utf-8"?>
<!-- Generator: Adobe Illustrator 22.1.0, SVG Export Plug-In . SVG Version: 6.00 Build 0)  -->
<svg version="1.1" id="Layer_1" xmlns="http://www.w3.org/2000/svg" xmlns:xlink="http://www.w3.org/1999/xlink" x="0px" y="0px"
	 viewBox="0 0 168.3 261.1" style="enable-background:new 0 0 168.3 261.1;" xml:space="preserve">
<style type="text/css">
	.st0{fill:#76797D;}
	.st1{fill:#9D9D9E;}
	.st2{fill:#A5A5A5;}
	.st3{fill:#AFAFAF;}
	.st4{fill:none;stroke:#9D9D9E;stroke-width:0.25;stroke-miterlimit:10;}
	.st5{fill:#D31818;}
	.st6{fill:#BC2B2B;}
	.st7{fill:#C62222;stroke:#C62222;stroke-width:2;stroke-miterlimit:10;}
	.st8{fill:none;stroke:#76797D;stroke-width:5;stroke-miterlimit:10;}
</style>
<title>foodR</title>
<path class="st0" d="M143.8,28.3c4-5.1,4.7-11.5,2-18.5c-1.2-3.2-2.9-6.1-5-8.8c-1-1.2-2.7-1.3-3.9-0.4c-1.2,1-1.3,2.7-0.4,3.9l0,0
	l0,0c0.1,0.1,9.6,11.8,2.9,20.3c-9.6,12.3,0.6,28.5,1.1,29.2c0.9,1.3,2.6,1.6,3.8,0.7c1.2-0.8,1.5-2.4,0.8-3.7
	C145.1,50.9,136.6,37.5,143.8,28.3z"/>
<path class="st0" d="M27.7,28.3c4-5.1,4.7-11.5,2-18.5c-1.2-3.2-2.9-6.1-5-8.8c-1-1.2-2.7-1.3-3.9-0.3c-1.2,1-1.3,2.7-0.4,3.9l0,0
	l0,0c0.1,0.1,9.6,11.8,2.9,20.3c-9.6,12.3,0.6,28.5,1.1,29.2c0.9,1.3,2.6,1.6,3.8,0.7c1.2-0.8,1.5-2.4,0.8-3.7
	C29,50.9,20.5,37.5,27.7,28.3z"/>
<path class="st0" d="M45.2,28.3c4-5.1,4.7-11.5,2-18.5c-1.2-3.2-2.9-6.1-5-8.8c-1.2-1-2.9-0.8-3.9,0.3c-0.8,0.9-0.9,2.2-0.3,3.2l0,0
	c0.1,0.1,9.6,11.8,2.9,20.3c-9.6,12.3,0.6,28.5,1.1,29.2c0.8,1.3,2.5,1.6,3.8,0.8c1.2-0.8,1.6-2.4,0.9-3.7l-0.1-0.2
	C46.4,50.9,38,37.5,45.2,28.3z"/>
<path class="st0" d="M124.1,28.3c4-5.1,4.7-11.5,2-18.5c-1.2-3.2-2.9-6.1-5-8.8c-1-1.1-2.8-1.2-3.9-0.2c-1.1,1-1.2,2.6-0.3,3.7
	c0.1,0.1,9.6,11.8,2.9,20.3c-9.7,12.3,0.6,28.5,1.1,29.2c0.8,1.3,2.5,1.7,3.8,0.9c0.8-0.5,1.3-1.4,1.3-2.4c0-0.5-0.2-1.1-0.4-1.5
	C125.4,50.9,117,37.5,124.1,28.3z"/>
<path class="st0" d="M168.1,124.5v3c0,3.9-3.2,7.1-7.2,7.1H7.2c-3.9,0-7.1-3.2-7.1-7.1v-3c0-3.9,3.2-7.1,7.2-7.1h5.8
	C15.2,84.2,40.6,57,74,52.2c-1.2-1.9-1.9-4.1-1.8-6.4c0-1.3,0.5-3.8,4.6-5.2c4.8-1.5,10-1.5,14.8,0c4,1.5,4.6,3.9,4.6,5.2
	c0,2.3-0.7,4.5-1.9,6.4c19.6,2.8,37.2,13.6,48.6,29.8l0.1,0.2c0.7,1.1,0.3,2.6-0.8,3.3c0,0,0,0,0,0l0,0c-1,0.6-2.4,0.4-3.2-0.5
	l-0.2-0.3c-11.6-16.6-30.1-27.1-50.3-28.3h-0.7l-1.3-0.1h-4.7l-2,0.1c-26.5,1.7-49.5,19.1-58.3,44.2c-1.8,5.4-3,10.9-3.4,16.6h8.1
	c1.3,0,2.4,1.1,2.4,2.4s-1.1,2.4-2.4,2.4H7.3c-1.2,0-2.2,0.9-2.3,2.1c0,0,0,0,0,0l0,0l0,0v3c0,1.2,1,2.2,2.2,2.2c0,0,0,0,0,0H161
	c1.2,0,2.2-1,2.2-2.2c0,0,0,0,0,0l0,0l0,0v-3c0-1.2-1-2.2-2.2-2.2c0,0,0,0,0,0H37.6c-1.3,0-2.4-1.1-2.4-2.4s1.1-2.4,2.4-2.4l0,0
	h112.6c-0.5-8-2.6-15.9-6-23.1c-0.4-1.1,0.1-2.4,1.1-2.9c1.2-0.7,2.7-0.2,3.4,0.9c3.7,7.9,5.9,16.4,6.4,25.2h5.9
	C164.9,117.4,168.1,120.5,168.1,124.5z M87,51.6c1.9-1.3,3.1-3.4,3.1-5.7c-0.5-0.6-2.9-1.6-7-1.6s-6.5,1-7,1.6
	c0,2.3,1.2,4.4,3.1,5.6h6.4L87,51.6z"/>
<path class="st1" d="M163.2,127.4c0,1.2-1,2.2-2.2,2.2c0,0,0,0,0,0H7.3c-1.2,0-2.3-0.9-2.3-2.1c0,0,0,0,0,0l0,0v-3
	c0-1.2,1-2.2,2.2-2.2c0,0,0,0,0,0h19c1.3,0,2.4-1.1,2.4-2.4s-1.1-2.4-2.4-2.4h-8.1c0.4-5.7,1.5-11.2,3.4-16.6l107.8-26.9
	c3.6,3.3,6.7,6.9,9.5,10.9l0.2,0.3l5.3,7.5c-0.2,0.5-0.2,1.1,0,1.6c3.4,7.3,5.5,15.1,6,23.1H37.6c-1.3,0-2.4,1.1-2.4,2.4
	s1.1,2.4,2.4,2.4l0,0H161c1.2,0,2.2,1,2.3,2.2c0,0,0,0,0,0l0,0L163.2,127.4L163.2,127.4z"/>
<path class="st2" d="M129.3,73.9L21.4,100.7c8.8-25.1,31.7-42.5,58.3-44.2l2-0.1h4.7l1.3,0.1h0.7C103.6,57.5,118,63.6,129.3,73.9z"
	/>
<path class="st3" d="M90.1,45.9c0,2.3-1.2,4.4-3.1,5.7l-1.4-0.1h-6.4c-1.9-1.3-3-3.4-3.1-5.6c0.5-0.6,2.9-1.6,7-1.6
	S89.6,45.4,90.1,45.9z"/>
<path class="st4" d="M139,85.1c0.8,0.9,2.2,1.2,3.2,0.5c1.1-0.7,1.5-2.2,0.8-3.3l0,0l-0.1-0.2c-11.4-16.3-29-27.1-48.6-29.8
	c1.3-1.9,1.9-4.1,1.9-6.4c0-1.3-0.6-3.8-4.6-5.2c-4.8-1.5-10-1.5-14.8,0c-4,1.5-4.6,3.9-4.6,5.2c0,2.3,0.6,4.5,1.8,6.4
	c-33.4,4.8-58.8,32-60.9,65.2H7.3c-3.9,0-7.1,3.1-7.2,7.1v3c0,3.9,3.2,7.1,7.1,7.1"/>
<path class="st4" d="M161,134.5c3.9,0,7.1-3.1,7.2-7.1v-3c0-3.9-3.2-7.1-7.2-7.1h-5.8c-0.5-8.7-2.7-17.3-6.4-25.2
	c-0.7-1.2-2.2-1.6-3.4-0.9c-1,0.6-1.5,1.8-1.1,2.9c3.4,7.3,5.5,15.1,6,23.1H37.6c-1.3,0-2.4,1.1-2.4,2.4s1.1,2.4,2.4,2.4l0,0H161
	c1.2,0,2.2,1,2.3,2.2c0,0,0,0,0,0l0,0v3c0,1.2-1,2.2-2.2,2.2c0,0,0,0,0,0H7.3c-1.2,0-2.3-0.9-2.3-2.1c0,0,0,0,0,0l0,0v-3
	c0-1.2,1-2.2,2.2-2.2c0,0,0,0,0,0h19c1.3,0,2.4-1.1,2.4-2.4s-1.1-2.4-2.4-2.4h-8.1c0.4-5.7,1.5-11.2,3.4-16.6
	c8.8-25.1,31.7-42.5,58.3-44.2l2-0.1h4.7l1.3,0.1h0.7c20.2,1.3,38.7,11.7,50.3,28.3"/>
<polyline class="st4" points="7.2,134.6 7.3,134.6 159,134.5 "/>
<path class="st4" d="M83.1,44.4c4.1,0,6.5,1,7,1.6c0,2.3-1.2,4.4-3.1,5.7l-1.4-0.1h-6.4c-1.9-1.3-3-3.4-3.1-5.6
	C76.6,45.4,79,44.4,83.1,44.4z"/>
<line class="st4" x1="21.5" y1="100.7" x2="129.3" y2="73.9"/>
<path class="st4" d="M138.8,84.8l0.2,0.3l5.3,7.5"/>
<path class="st5" d="M161.9,158l-70.6,96.5c-2,2.7-4.4,4.1-7.1,4.1c-2.7,0-5.1-1.4-7.1-4.1l-37.4-51l74.3-68.7v-0.2h40.8
	c2.7,0,5.1,1.4,7.1,4.1C165.7,144.6,165.8,152.1,161.9,158z"/>
<path class="st6" d="M67.8,134.6l-46.1,44.3l0,0L6.4,158c-4-5.8-4-13.5,0-19.4c2-2.7,4.4-4.1,7.1-4.1L67.8,134.6z"/>
<polygon class="st7" points="114,134.8 39.7,203.5 21.7,178.9 21.7,178.9 67.8,134.6 114,134.6 "/>
<path class="st8" d="M67.8,134.6H13.5c-2.7,0-5.1,1.4-7.1,4.1c-4,5.8-4,13.5,0,19.4l15.3,20.9l18,24.6l37.4,51
	c2,2.7,4.4,4.1,7.1,4.1s5.1-1.4,7.1-4.1l70.7-96.5c4-5.8,4-13.5,0-19.4c-2-2.7-4.4-4.1-7.1-4.1L67.8,134.6L67.8,134.6z"/>
</svg>
