<svg id="Layer_1" data-name="Layer 1" xmlns="http://www.w3.org/2000/svg" viewBox="0 0 166.49 284.76"><defs><style>.cls-1{fill:#caccce;}.cls-2{fill:#2a2a2b;}.cls-3{fill:#d8a35d;}.cls-4{fill:#35a03a;}.cls-5{fill:#2c6b26;}.cls-6{fill:#d31818;}.cls-7{fill:#ccd1d0;}.cls-8{fill:#7a7a7a;}.cls-9{fill:#bc2b2b;}.cls-10{fill:#a5a8a7;}.cls-11{fill:#c62222;}.cls-12,.cls-13{fill:none;stroke-miterlimit:10;}.cls-12{stroke:#7a7a7a;stroke-width:5px;}.cls-13{stroke:#d8a35d;stroke-width:2px;}</style></defs><title>officeR</title><rect class="cls-1" x="36.74" y="23.41" width="6.33" height="8.86"/><rect class="cls-1" x="36.74" y="51.26" width="6.33" height="8.86"/><rect class="cls-1" x="62.06" y="51.26" width="6.32" height="8.86"/><rect class="cls-1" x="62.06" y="23.41" width="6.32" height="8.86"/><rect class="cls-1" x="87.37" y="23.41" width="6.33" height="8.86"/><rect class="cls-1" x="87.37" y="51.26" width="6.33" height="8.86"/><path class="cls-1" d="M92.58,85.72h6c0,.64-.06,1.29-.06,1.94a31.16,31.16,0,0,0,.23,3.74,23.69,23.69,0,0,0-4.12,3.18h-2Z" transform="translate(-5.21 -6.62)"/><rect class="cls-1" x="62.06" y="79.1" width="6.32" height="8.86"/><rect class="cls-1" x="36.74" y="79.1" width="6.33" height="8.86"/><path class="cls-2" d="M91.77,125.31V147.1h-19V117.36H88.06A23.65,23.65,0,0,0,91.77,125.31Z" transform="translate(-5.21 -6.62)"/><rect class="cls-2" x="42.27" y="110.74" width="18.98" height="29.74"/><path class="cls-3" d="M13.94,153.43h96.51a21.56,21.56,0,0,0-3.42,8.86H13.94Z" transform="translate(-5.21 -6.62)"/><path class="cls-3" d="M113.75,135V147.1H98.1V131.35a23.47,23.47,0,0,0,12.83,3.81A24.13,24.13,0,0,0,113.75,135Z" transform="translate(-5.21 -6.62)"/><path class="cls-3" d="M113.75,13V61.53a30.21,30.21,0,0,0-8.52,7.18v-14a3.15,3.15,0,0,0-3.16-3.16H89.41a3.16,3.16,0,0,0-3.16,3.16V69.9a3.16,3.16,0,0,0,3.16,3.16h12.87a30,30,0,0,0-2.64,6.34H89.41a3.17,3.17,0,0,0-3.16,3.17V97.74a3.17,3.17,0,0,0,3.16,3.17h.51A23.45,23.45,0,0,0,87.35,111h-43a3.16,3.16,0,0,0-3.16,3.17v32.9H26.42V92.68a3.16,3.16,0,0,0-3.16-3.16V83.19a3.17,3.17,0,0,0,0-6.33V70.53a3.16,3.16,0,0,0,3.17-3.16V13Zm-8.52,29.11V26.87a3.16,3.16,0,0,0-3.16-3.17H89.41a3.17,3.17,0,0,0-3.16,3.17V42.06a3.17,3.17,0,0,0,3.16,3.16h12.66A3.16,3.16,0,0,0,105.23,42.06ZM79.92,97.74V82.56a3.17,3.17,0,0,0-3.16-3.17H64.1a3.16,3.16,0,0,0-3.16,3.17V97.74a3.16,3.16,0,0,0,3.16,3.17H76.76A3.17,3.17,0,0,0,79.92,97.74Zm0-27.84V54.71a3.16,3.16,0,0,0-3.16-3.16H64.1a3.15,3.15,0,0,0-3.16,3.16V69.9a3.15,3.15,0,0,0,3.16,3.16H76.76A3.16,3.16,0,0,0,79.92,69.9Zm0-27.84V26.87a3.17,3.17,0,0,0-3.16-3.17H64.1a3.16,3.16,0,0,0-3.16,3.17V42.06a3.16,3.16,0,0,0,3.16,3.16H76.76A3.17,3.17,0,0,0,79.92,42.06ZM54.61,97.74V82.56a3.17,3.17,0,0,0-3.16-3.17H38.79a3.17,3.17,0,0,0-3.17,3.17V97.74a3.17,3.17,0,0,0,3.17,3.17H51.45A3.17,3.17,0,0,0,54.61,97.74Zm0-27.84V54.71a3.16,3.16,0,0,0-3.16-3.16H38.79a3.16,3.16,0,0,0-3.17,3.16V69.9a3.16,3.16,0,0,0,3.17,3.16H51.45A3.16,3.16,0,0,0,54.61,69.9Zm0-27.84V26.87a3.17,3.17,0,0,0-3.16-3.17H38.79a3.17,3.17,0,0,0-3.17,3.17V42.06a3.17,3.17,0,0,0,3.17,3.16H51.45A3.17,3.17,0,0,0,54.61,42.06Z" transform="translate(-5.21 -6.62)"/><path class="cls-4" d="M153.4,96a17.26,17.26,0,1,1-21.76,25.13v-8.46L143.3,101a3.16,3.16,0,1,0-4.48-4.47l-7.18,7.18V89.14a3.17,3.17,0,1,0-6.33,0v7.69l-5.4-5.4a3.16,3.16,0,0,0-4.47,4.48l9.87,9.87V121.1A17.26,17.26,0,1,1,103.55,96a3.17,3.17,0,0,0,1.75-3.5,23.44,23.44,0,0,1-.49-4.81,23.67,23.67,0,0,1,47.34,0,24.15,24.15,0,0,1-.49,4.81A3.15,3.15,0,0,0,153.4,96Z" transform="translate(-5.21 -6.62)"/><path class="cls-5" d="M158.31,162.29H113.46a15.34,15.34,0,0,1,27.29-6,3.16,3.16,0,0,0,4.05.87,9.51,9.51,0,0,1,13.51,5.17Z" transform="translate(-5.21 -6.62)"/><path class="cls-6" d="M168.25,173a17.12,17.12,0,0,1,0,11.24,16.84,16.84,0,0,1-2.05,4.06L95.55,284.77a12.55,12.55,0,0,1-1.16,1.39,8.06,8.06,0,0,1-5.94,2.7q-4.1,0-7.07-4.09L44,233.78l17-15.73,53.48-49.43H162a3.17,3.17,0,0,0,2.64-1.41A12.92,12.92,0,0,1,166.2,169,16.84,16.84,0,0,1,168.25,173Z" transform="translate(-5.21 -6.62)"/><path class="cls-7" d="M166.2,169a12.92,12.92,0,0,0-1.55-1.77v0A12.92,12.92,0,0,1,166.2,169a17,17,0,0,1,2.05,4.08A16.84,16.84,0,0,0,166.2,169Z" transform="translate(-5.21 -6.62)"/><path class="cls-8" d="M159.1,164.89a7.87,7.87,0,0,1,5.55,2.32,3.17,3.17,0,0,1-2.64,1.41h-47.5l3.87-3.58v-.15Z" transform="translate(-5.21 -6.62)"/><path class="cls-8" d="M159.15,164.87a7.79,7.79,0,0,1,5.5,2.32v0a7.87,7.87,0,0,0-5.55-2.32H118.38v0Z" transform="translate(-5.21 -6.62)"/><path class="cls-8" d="M158.31,162.29a9.51,9.51,0,0,0-13.51-5.17,3.16,3.16,0,0,1-4.05-.87,15.34,15.34,0,0,0-27.29,6h44.85Zm-40,2.58H17.8c-2.61,0-4.91,1.25-6.84,3.75h-.19a3.16,3.16,0,0,1-3.16-3.17V150.27a3.16,3.16,0,0,1,3.16-3.17h9.32V92.68a3.17,3.17,0,0,1,6.33,0V147.1H41.15V114.2A3.16,3.16,0,0,1,44.31,111h43a23.45,23.45,0,0,1,2.57-10.12h-.51a3.17,3.17,0,0,1-3.16-3.17V82.56a3.17,3.17,0,0,1,3.16-3.17H99.64a30,30,0,0,1,2.64-6.34H89.41a3.16,3.16,0,0,1-3.16-3.16V54.71a3.16,3.16,0,0,1,3.16-3.16h12.66a3.15,3.15,0,0,1,3.16,3.16v14a30.21,30.21,0,0,1,8.52-7.18V13H26.42V67.37a3.17,3.17,0,0,1-6.33,0V9.78a3.16,3.16,0,0,1,3.16-3.16h93.66a3.15,3.15,0,0,1,3.16,3.16V58.86a30,30,0,0,1,38.4,28.8,29.22,29.22,0,0,1-.23,3.74,23.57,23.57,0,1,1-26.6,38.83V144a21.37,21.37,0,0,1,12.53,6.5,15.81,15.81,0,0,1,21,14.94,3.08,3.08,0,0,1-.53,1.74,7.79,7.79,0,0,0-5.5-2.32H118.38v0h0ZM13.94,162.29H107a21.56,21.56,0,0,1,3.42-8.86H13.94Zm149.34-50.72A17.35,17.35,0,0,0,153.4,96a3.15,3.15,0,0,1-1.74-3.5,24.15,24.15,0,0,0,.49-4.81,23.67,23.67,0,0,0-47.34,0,23.44,23.44,0,0,0,.49,4.81,3.17,3.17,0,0,1-1.75,3.5,17.26,17.26,0,1,0,21.76,25.13V105.78l-9.87-9.87a3.16,3.16,0,0,1,4.47-4.48l5.4,5.4V89.14a3.17,3.17,0,1,1,6.33,0v14.55l7.18-7.18A3.16,3.16,0,1,1,143.3,101l-11.66,11.66v8.46a17.25,17.25,0,0,0,31.64-9.53Zm-38,32.44V130.23a23.84,23.84,0,0,1-5.23,3.05v12.19A21.78,21.78,0,0,1,125.31,144Zm-11.56,3.09V135a24.13,24.13,0,0,1-2.82.18,23.47,23.47,0,0,1-12.83-3.81V147.1ZM98.91,66.74V57.88H92.58v8.86Zm-.37,19h-6v8.86h2a23.69,23.69,0,0,1,4.12-3.18,31.16,31.16,0,0,1-.23-3.74C98.48,87,98.5,86.36,98.54,85.72ZM91.77,147.1V125.31a23.65,23.65,0,0,1-3.71-8H72.79V147.1Zm-25.31,0V117.36h-19V147.1Z" transform="translate(-5.21 -6.62)"/><polygon class="cls-8" points="113.17 158.27 113.17 158.42 109.3 162 109.26 162 113.12 158.43 113.12 158.27 113.17 158.27"/><polygon class="cls-8" points="113.12 158.27 113.12 158.43 109.26 162 62.98 162 66.88 158.25 66.89 158.27 113.12 158.27"/><polygon class="cls-8" points="113.12 158.25 113.12 158.27 66.89 158.27 66.88 158.25 113.12 158.25"/><path class="cls-8" d="M105.23,26.87V42.06a3.16,3.16,0,0,1-3.16,3.16H89.41a3.17,3.17,0,0,1-3.16-3.16V26.87a3.17,3.17,0,0,1,3.16-3.17h12.66A3.16,3.16,0,0,1,105.23,26.87Zm-6.32,12V30H92.58v8.86Z" transform="translate(-5.21 -6.62)"/><path class="cls-8" d="M79.92,82.56V97.74a3.17,3.17,0,0,1-3.16,3.17H64.1a3.16,3.16,0,0,1-3.16-3.17V82.56a3.16,3.16,0,0,1,3.16-3.17H76.76A3.17,3.17,0,0,1,79.92,82.56Zm-6.33,12V85.72H67.27v8.86Z" transform="translate(-5.21 -6.62)"/><path class="cls-8" d="M79.92,54.71V69.9a3.16,3.16,0,0,1-3.16,3.16H64.1a3.15,3.15,0,0,1-3.16-3.16V54.71a3.15,3.15,0,0,1,3.16-3.16H76.76A3.16,3.16,0,0,1,79.92,54.71Zm-6.33,12V57.88H67.27v8.86Z" transform="translate(-5.21 -6.62)"/><path class="cls-8" d="M79.92,26.87V42.06a3.17,3.17,0,0,1-3.16,3.16H64.1a3.16,3.16,0,0,1-3.16-3.16V26.87A3.16,3.16,0,0,1,64.1,23.7H76.76A3.17,3.17,0,0,1,79.92,26.87Zm-6.33,12V30H67.27v8.86Z" transform="translate(-5.21 -6.62)"/><path class="cls-8" d="M72.09,164.87l-3.9,3.75H11c1.93-2.5,4.23-3.75,6.84-3.75Z" transform="translate(-5.21 -6.62)"/><path class="cls-9" d="M68.19,168.62,26,209.19,10.7,188.34a17.18,17.18,0,0,1,0-19.38l.26-.34Z" transform="translate(-5.21 -6.62)"/><polygon class="cls-10" points="55.82 211.43 38.81 227.16 38.81 227.15 55.82 211.43"/><path class="cls-8" d="M54.61,82.56V97.74a3.17,3.17,0,0,1-3.16,3.17H38.79a3.17,3.17,0,0,1-3.17-3.17V82.56a3.17,3.17,0,0,1,3.17-3.17H51.45A3.17,3.17,0,0,1,54.61,82.56Zm-6.33,12V85.72H42v8.86Z" transform="translate(-5.21 -6.62)"/><path class="cls-8" d="M54.61,54.71V69.9a3.16,3.16,0,0,1-3.16,3.16H38.79a3.16,3.16,0,0,1-3.17-3.16V54.71a3.16,3.16,0,0,1,3.17-3.16H51.45A3.16,3.16,0,0,1,54.61,54.71Zm-6.33,12V57.88H42v8.86Z" transform="translate(-5.21 -6.62)"/><path class="cls-8" d="M54.61,26.87V42.06a3.17,3.17,0,0,1-3.16,3.16H38.79a3.17,3.17,0,0,1-3.17-3.16V26.87a3.17,3.17,0,0,1,3.17-3.17H51.45A3.17,3.17,0,0,1,54.61,26.87Zm-6.33,12V30H42v8.86Z" transform="translate(-5.21 -6.62)"/><polygon class="cls-11" points="38.81 227.15 38.81 227.16 38.8 227.17 20.79 202.59 20.82 202.58 62.98 162 109.26 162 55.82 211.43 38.81 227.15"/><path class="cls-8" d="M25.49,77.79a3.15,3.15,0,1,1-2.24-.93A3.17,3.17,0,0,1,25.49,77.79Z" transform="translate(-5.21 -6.62)"/><path class="cls-12" d="M11,168.62l-.26.34a17.18,17.18,0,0,0,0,19.38L26,209.21l18,24.58,37.36,51q3,4.09,7.09,4.09a8,8,0,0,0,5.94-2.72,12.28,12.28,0,0,0,1.16-1.37l70.65-96.43a17.15,17.15,0,0,0,0-19.38,12.92,12.92,0,0,0-1.55-1.77" transform="translate(-5.21 -6.62)"/><line class="cls-13" x1="18.04" y1="76.57" x2="18.05" y2="82.9"/><line class="cls-13" x1="18.04" y1="63.91" x2="18.04" y2="70.24"/></svg>