<svg id="Layer_1" data-name="Layer 1" xmlns="http://www.w3.org/2000/svg" viewBox="0 0 173.86 274.16"><defs><style>.cls-1{fill:#d1aea1;}.cls-2{fill:#e5d389;}.cls-3{fill:#efd154;}.cls-4{fill:#506835;}.cls-5{fill:#759b51;}.cls-6{fill:#e5d2cc;}.cls-7{fill:#d8c4bc;}.cls-13,.cls-8,.cls-9{fill:none;}.cls-13,.cls-8{stroke:#687787;stroke-miterlimit:10;}.cls-8{stroke-width:2px;}.cls-10{fill:#62a3b2;}.cls-11{fill:#5994a3;}.cls-12{fill:#e0e0df;}.cls-13{stroke-width:5px;}</style></defs><title>beach</title><path class="cls-1" d="M166,128.73v5.94H62.24a11.08,11.08,0,0,1-.38-1.61,3.31,3.31,0,0,0-.93-1.72c.24-.46.46-.92.65-1.38a3.44,3.44,0,0,0,.23-1.23Z" transform="translate(0 0)"/><path class="cls-2" d="M159.75,86.35a23.75,23.75,0,0,1-47.5,0h0A23.74,23.74,0,0,1,136,62.61h0A23.75,23.75,0,0,1,159.75,86.35Z" transform="translate(0 0)"/><path class="cls-3" d="M136,56.68a29.68,29.68,0,1,1-29.68,29.68A29.68,29.68,0,0,1,136,56.68Zm0,53.43a23.75,23.75,0,0,0,0-47.5h0a23.74,23.74,0,0,0-23.73,23.75h0A23.75,23.75,0,0,0,136,110.11Z" transform="translate(0 0)"/><path class="cls-4" d="M113.76,44.47a3,3,0,0,1-3,3H89.93l2.42,2.43a29,29,0,0,1,5.44,33.49A2.93,2.93,0,0,1,95.62,85a3.84,3.84,0,0,1-.48,0,3,3,0,0,1-2.08-.87l-27.6-27.4A224.83,224.83,0,0,1,36.9,144.57l-8.4,2.6c.84-1.37,1.67-2.74,2.47-4.13h0A217.13,217.13,0,0,0,54.62,84.46h0A215.84,215.84,0,0,0,60,51.23L57.4,48.69,54,52.09a166.94,166.94,0,0,1-8.21,41.33h0A166.48,166.48,0,0,1,19.35,142.8q-1.82,2.37-3.74,4.66a.77.77,0,0,1-1.08.1l-3.88-3.2c.61-.74,1.21-1.49,1.8-2.24l4-5.12a160.78,160.78,0,0,0,31-78.44L21.74,84.12a3,3,0,0,1-2.09.87,3.84,3.84,0,0,1-.48,0A3,3,0,0,1,17,83.39a29,29,0,0,1,5.4-33.49l2.43-2.43H4a3,3,0,0,1-2.85-3.9A29,29,0,0,1,28.67,23.73h3.89L17.73,8.82A3.17,3.17,0,0,1,17.14,8,2.94,2.94,0,0,1,18.5,4.07h0A29,29,0,0,1,52,9.51l2.88,2.83a28.06,28.06,0,0,1,2.55,3,30.58,30.58,0,0,1,2.57-3l2.8-2.83a29,29,0,0,1,33.5-5.44,3.53,3.53,0,0,1,.77.56,3,3,0,0,1,0,4.19L82.24,23.73h3.85a29,29,0,0,1,27.53,19.88A3.16,3.16,0,0,1,113.76,44.47ZM81.7,41.54h24.57A23,23,0,0,0,86.08,29.67h-4a23,23,0,0,0-18.76,9.67A28.9,28.9,0,0,1,81.7,41.54ZM94.05,76.77A23,23,0,0,0,88.18,54.1l-2.84-2.84a22.89,22.89,0,0,0-22.65-5.67L94,76.77Zm-22-51.23L89.67,7.84A23,23,0,0,0,67,13.71L64.1,16.53a22.45,22.45,0,0,0-6.09,20h0a29,29,0,0,1,14.05-11ZM20.72,76.77,52.09,45.58a23.62,23.62,0,0,0-6.58-.94,22.67,22.67,0,0,0-16.09,6.62L26.59,54.1A23,23,0,0,0,20.72,76.77Zm31-45.87A28.14,28.14,0,0,1,54,21a22.16,22.16,0,0,0-3.37-4.46l-2.83-2.83A23,23,0,0,0,25.07,7.84l17.6,17.7a28.87,28.87,0,0,1,9,5.36ZM33.07,41.54a29,29,0,0,1,18.38-2.2,23,23,0,0,0-18.78-9.67h-4A23,23,0,0,0,8.49,41.54Z" transform="translate(0 0)"/><path class="cls-5" d="M106.27,41.54H81.7a28.9,28.9,0,0,0-18.38-2.2,23,23,0,0,1,18.76-9.67h4A23,23,0,0,1,106.27,41.54Z" transform="translate(0 0)"/><path class="cls-5" d="M88.18,54.1a23,23,0,0,1,5.87,22.67h0L62.69,45.59a22.89,22.89,0,0,1,22.65,5.67Z" transform="translate(0 0)"/><path class="cls-5" d="M89.67,7.84,72.06,25.54a28.86,28.86,0,0,0-14,11h0a22.45,22.45,0,0,1,6.09-20L67,13.71A23,23,0,0,1,89.67,7.84Z" transform="translate(0 0)"/><path class="cls-6" d="M57.4,48.69,60,51.23a215.7,215.7,0,0,1-5.36,33.22h0l-8.84,9A166.7,166.7,0,0,0,54,52.09Z" transform="translate(0 0)"/><path class="cls-7" d="M45.78,93.42l8.84-9A217.21,217.21,0,0,1,31,143h0l-11.62-.23h0a166.42,166.42,0,0,0,26.4-49.34Z" transform="translate(0 0)"/><path class="cls-5" d="M52.09,45.58,20.72,76.77A23,23,0,0,1,26.59,54.1l2.83-2.84a22.67,22.67,0,0,1,16.09-6.62A23.62,23.62,0,0,1,52.09,45.58Z" transform="translate(0 0)"/><path class="cls-5" d="M54,21a28.14,28.14,0,0,0-2.23,9.9h0a28.87,28.87,0,0,0-9-5.36L25.07,7.84a23,23,0,0,1,22.72,5.87l2.83,2.83A22.16,22.16,0,0,1,54,21Z" transform="translate(0 0)"/><path class="cls-5" d="M51.45,39.34a29,29,0,0,0-18.38,2.2H8.49A23,23,0,0,1,28.67,29.67h4A23,23,0,0,1,51.45,39.34Z" transform="translate(0 0)"/><path class="cls-8" d="M54.62,84.46A217,217,0,0,1,31,143" transform="translate(0 0)"/><path class="cls-8" d="M45.78,93.42A166.94,166.94,0,0,0,54,52.09l3.41-3.4L60,51.23a215.7,215.7,0,0,1-5.36,33.22" transform="translate(0 0)"/><path class="cls-8" d="M31,143c-.8,1.39-1.63,2.76-2.47,4.13l8.4-2.6a224.94,224.94,0,0,0,28.54-87.8l27.6,27.43a3,3,0,0,0,2.08.87,3.84,3.84,0,0,0,.48,0,2.94,2.94,0,0,0,2.17-1.6,29,29,0,0,0-5.44-33.49l-2.42-2.43H110.8a3,3,0,0,0,3-3,3.16,3.16,0,0,0-.14-.86A29,29,0,0,0,86.09,23.73H82.24L97.06,8.82a3,3,0,0,0,0-4.19,3.53,3.53,0,0,0-.77-.56,29,29,0,0,0-33.5,5.44L60,12.34a30.58,30.58,0,0,0-2.57,3,28.06,28.06,0,0,0-2.55-3L52,9.51A29,29,0,0,0,18.5,4.07,2.94,2.94,0,0,0,17.14,8h0a3.17,3.17,0,0,0,.59.82L32.56,23.73H28.67A29,29,0,0,0,1.14,43.57,3,3,0,0,0,4,47.47H24.82L22.39,49.9A29,29,0,0,0,17,83.39,3,3,0,0,0,19.17,85a3.84,3.84,0,0,0,.48,0,3,3,0,0,0,2.09-.87l25.7-25.55a160.78,160.78,0,0,1-31,78.44l-4,5.12c-.59.75-1.19,1.5-1.8,2.24l3.88,3.2a.77.77,0,0,0,1.08-.1q1.92-2.29,3.74-4.66A166.41,166.41,0,0,0,45.77,93.43" transform="translate(0 0)"/><path class="cls-8" d="M106.35,86.36A29.68,29.68,0,1,0,136,56.68h0A29.67,29.67,0,0,0,106.35,86.36Z" transform="translate(0 0)"/><path class="cls-8" d="M136,62.61a23.75,23.75,0,1,1-23.74,23.76h0A23.74,23.74,0,0,1,136,62.61Z" transform="translate(0 0)"/><path class="cls-8" d="M8.49,41.54A23,23,0,0,1,28.67,29.67h4a23,23,0,0,1,18.78,9.67,29,29,0,0,0-18.38,2.2Z" transform="translate(0 0)"/><path class="cls-8" d="M20.72,76.77A23,23,0,0,1,26.59,54.1l2.83-2.84a22.67,22.67,0,0,1,16.09-6.62,23.62,23.62,0,0,1,6.58.94Z" transform="translate(0 0)"/><path class="cls-8" d="M51.72,30.9a28.87,28.87,0,0,0-9-5.36L25.07,7.84a23,23,0,0,1,22.72,5.87l2.83,2.83A22.16,22.16,0,0,1,54,21a28.14,28.14,0,0,0-2.23,9.9Z" transform="translate(0 0)"/><path class="cls-8" d="M58,36.53a22.45,22.45,0,0,1,6.09-20L67,13.71A23,23,0,0,1,89.67,7.84L72.06,25.54a28.86,28.86,0,0,0-14,11Z" transform="translate(0 0)"/><path class="cls-8" d="M94,76.77,62.69,45.59a22.89,22.89,0,0,1,22.65,5.67l2.84,2.84a23,23,0,0,1,5.87,22.67Z" transform="translate(0 0)"/><path class="cls-8" d="M81.7,41.54a28.9,28.9,0,0,0-18.38-2.2,23,23,0,0,1,18.76-9.67h4a23,23,0,0,1,20.19,11.87Z" transform="translate(0 0)"/><path class="cls-8" d="M61.81,128.73a3.44,3.44,0,0,1-.23,1.23c-.19.46-.41.92-.65,1.38a3.31,3.31,0,0,1,.93,1.72,11.08,11.08,0,0,0,.38,1.61H166v-5.94Z" transform="translate(0 0)"/><polyline class="cls-8" points="45.77 93.43 45.78 93.42 54.62 84.46 54.63 84.45"/><line class="cls-9" x1="30.97" y1="143.04" x2="19.35" y2="142.81"/><line class="cls-8" x1="30.98" y1="143.04" x2="30.97" y2="143.04"/><path class="cls-10" d="M168.25,147.32a17.8,17.8,0,0,1,0,20.09L95,267.43q-3.12,4.23-7.37,4.23t-7.35-4.23L41.53,214.55l77.08-71.29v-.18h42.28Q165.14,143.08,168.25,147.32Z" transform="translate(0 0)"/><polygon class="cls-11" points="118.61 143.08 118.61 143.26 41.53 214.55 22.85 189.06 22.88 189.04 70.65 143.08 118.61 143.08"/><path class="cls-12" d="M70.65,143.08,22.88,189l0,0L7,167.41a17.8,17.8,0,0,1,0-20.09q3.11-4.24,7.37-4.24Z" transform="translate(0 0)"/><path class="cls-13" d="M70.65,143.08H14.36q-4.26,0-7.37,4.24a17.8,17.8,0,0,0,0,20.09l15.86,21.65,18.68,25.49,38.74,52.88q3.11,4.23,7.35,4.23T95,267.43l73.26-100a17.8,17.8,0,0,0,0-20.09q-3.12-4.24-7.36-4.24H70.65Z" transform="translate(0 0)"/></svg>