<svg id="Layer_1" data-name="Layer 1" xmlns="http://www.w3.org/2000/svg" viewBox="0 0 172.48 270.56"><defs><style>.cls-1{fill:#687787;}.cls-2{fill:#9d9d9e;}.cls-3{fill:#b0b3b7;}.cls-4{fill:#afafaf;}.cls-5,.cls-9{fill:none;stroke-miterlimit:10;}.cls-5{stroke:#9d9d9e;stroke-width:0.25px;}.cls-6{fill:#62a3b2;}.cls-7{fill:#5994a3;}.cls-8{fill:#e0e0df;}.cls-9{stroke:#687787;stroke-width:5px;}</style></defs><title>food</title><path class="cls-1" d="M143.84,28.26c4-5.08,4.68-11.47,2-18.5a33.75,33.75,0,0,0-5-8.77,2.76,2.76,0,0,0-4.24,3.54h0c.1.12,9.61,11.77,2.89,20.33-9.64,12.3.64,28.52,1.09,29.2a2.76,2.76,0,0,0,4.63-3C145.17,50.93,136.67,37.45,143.84,28.26Z" transform="translate(0.27 0)"/><path class="cls-1" d="M27.72,28.26c4-5.08,4.68-11.47,2-18.5a33.31,33.31,0,0,0-5-8.77,2.76,2.76,0,1,0-4.24,3.54c.1.12,9.61,11.77,2.9,20.33-9.65,12.3.64,28.52,1.08,29.2a2.76,2.76,0,0,0,4.63-3C29,50.93,20.51,37.45,27.72,28.26Z" transform="translate(0.27 0)"/><path class="cls-1" d="M45.2,28.26c4-5.08,4.68-11.47,2-18.5A34.21,34.21,0,0,0,42.2,1,2.76,2.76,0,0,0,38,4.53h0c.1.12,9.61,11.77,2.89,20.33-9.64,12.3.64,28.52,1.09,29.2a2.76,2.76,0,0,0,4.73-2.84l-.1-.16C46.49,50.93,38,37.45,45.2,28.26Z" transform="translate(0.27 0)"/><path class="cls-1" d="M124.17,28.26c4-5.08,4.68-11.47,2-18.5a33.31,33.31,0,0,0-5-8.77,2.76,2.76,0,0,0-4.23,3.54c.09.12,9.6,11.77,2.89,20.33-9.65,12.3.64,28.52,1.08,29.2A2.77,2.77,0,0,0,126,52.59a2.82,2.82,0,0,0-.45-1.52C125.5,50.93,117,37.45,124.17,28.26Z" transform="translate(0.27 0)"/><path class="cls-1" d="M168.17,124.46v3a7.14,7.14,0,0,1-7.17,7.08H7.25a7.13,7.13,0,0,1-7.08-7.08v-3a7.14,7.14,0,0,1,7.17-7.08h5.79C15.24,84.17,40.67,57,74.05,52.22a11.58,11.58,0,0,1-1.82-6.39c0-1.32.54-3.76,4.59-5.21a25.06,25.06,0,0,1,14.8,0c4,1.45,4.59,3.89,4.59,5.21a11.59,11.59,0,0,1-1.92,6.41,71.29,71.29,0,0,1,48.58,29.83l.14.2a2.42,2.42,0,0,1-.79,3.33h0a2.49,2.49,0,0,1-3.2-.52l-.19-.27a65.88,65.88,0,0,0-9.51-10.91,66.65,66.65,0,0,0-40.8-17.43H87.8l-1.35-.06H81.77l-2,.1a66.12,66.12,0,0,0-58.26,44.22,64.46,64.46,0,0,0-3.37,16.59h8.1a2.43,2.43,0,1,1,0,4.86H7.32a2.21,2.21,0,0,0-2.23,2.21h0v3a2.22,2.22,0,0,0,2.24,2.2H161a2.21,2.21,0,0,0,2.23-2.21h0v-3a2.22,2.22,0,0,0-2.24-2.2H37.67a2.43,2.43,0,1,1,0-4.86H150.25a64.26,64.26,0,0,0-6-23.12,2.44,2.44,0,0,1,1.11-2.93,2.48,2.48,0,0,1,3.35.93,69.38,69.38,0,0,1,6.44,25.17H161A7.14,7.14,0,0,1,168.17,124.46ZM87.07,51.63a7,7,0,0,0,3.1-5.7c-.46-.57-2.91-1.57-7-1.57s-6.54,1-7,1.57a7,7,0,0,0,3.07,5.64h6.43Z" transform="translate(0.27 0)"/><path class="cls-2" d="M163.25,127.41a2.21,2.21,0,0,1-2.22,2.22H7.34a2.22,2.22,0,0,1-2.25-2.19h0v-3a2.21,2.21,0,0,1,2.22-2.22H26.22a2.43,2.43,0,0,0,0-4.86h-8.1a64.46,64.46,0,0,1,3.37-16.59L129.31,73.91a65.88,65.88,0,0,1,9.51,10.91l.19.27,5.25,7.54a2.38,2.38,0,0,0,0,1.58,64.26,64.26,0,0,1,6,23.12H37.67a2.43,2.43,0,1,0,0,4.86H161a2.22,2.22,0,0,1,2.25,2.19h0v3Z" transform="translate(0.27 0)"/><path class="cls-3" d="M129.31,73.91,21.49,100.74A66.12,66.12,0,0,1,79.75,56.52l2-.1h4.68l1.35.06h.71A66.7,66.7,0,0,1,129.31,73.91Z" transform="translate(0.27 0)"/><path class="cls-4" d="M90.17,45.93a7,7,0,0,1-3.1,5.7l-1.4-.06H79.24a7,7,0,0,1-3.07-5.64c.46-.56,2.91-1.57,7-1.57S89.67,45.36,90.17,45.93Z" transform="translate(0.27 0)"/><path class="cls-5" d="M139,85.09a2.49,2.49,0,0,0,3.2.52,2.43,2.43,0,0,0,.81-3.33h0l-.14-.2A71.29,71.29,0,0,0,94.29,52.24a11.59,11.59,0,0,0,1.92-6.41c0-1.32-.59-3.76-4.59-5.21a25.06,25.06,0,0,0-14.8,0c-4,1.45-4.59,3.89-4.59,5.21a11.58,11.58,0,0,0,1.82,6.39c-33.38,4.78-58.81,32-60.92,65.19H7.34a7.14,7.14,0,0,0-7.17,7.08v3a7.13,7.13,0,0,0,7.08,7.08" transform="translate(0.27 0)"/><path class="cls-5" d="M161,134.54a7.14,7.14,0,0,0,7.17-7.08v-3a7.14,7.14,0,0,0-7.17-7.08h-5.83a69.38,69.38,0,0,0-6.44-25.17,2.48,2.48,0,0,0-3.35-.93,2.44,2.44,0,0,0-1.11,2.93,64.26,64.26,0,0,1,6,23.12H37.67a2.43,2.43,0,1,0,0,4.86H161a2.22,2.22,0,0,1,2.25,2.19h0v3a2.21,2.21,0,0,1-2.22,2.22H7.34a2.22,2.22,0,0,1-2.25-2.19h0v-3a2.21,2.21,0,0,1,2.22-2.22H26.22a2.43,2.43,0,1,0,0-4.86h-8.1a64.46,64.46,0,0,1,3.37-16.59A66.12,66.12,0,0,1,79.75,56.52l2-.1h4.68l1.35.06h.71a66.65,66.65,0,0,1,40.8,17.43,65.88,65.88,0,0,1,9.51,10.91" transform="translate(0.27 0)"/><polyline class="cls-5" points="7.52 134.57 7.6 134.57 159.36 134.54"/><path class="cls-5" d="M83.17,44.36c4.09,0,6.54,1,7,1.57a7,7,0,0,1-3.1,5.7l-1.4-.06H79.24a7,7,0,0,1-3.07-5.64C76.67,45.37,79.08,44.36,83.17,44.36Z" transform="translate(0.27 0)"/><line class="cls-5" x1="21.76" y1="100.74" x2="129.58" y2="73.91"/><path class="cls-5" d="M138.82,84.82l.19.27,5.25,7.54" transform="translate(0.27 0)"/><path class="cls-6" d="M166.59,143.72a17.77,17.77,0,0,1,0,20.09l-73.26,100q-3.12,4.24-7.37,4.24t-7.35-4.24L39.87,211,117,139.66v-.18h42.28C162.06,139.48,164.52,140.89,166.59,143.72Z" transform="translate(0.27 0)"/><polygon class="cls-7" points="117.22 139.48 117.22 139.66 40.15 210.95 21.47 185.47 21.5 185.44 69.27 139.48 117.22 139.48"/><path class="cls-8" d="M69,139.48l-47.77,46,0,0L5.33,163.81a17.8,17.8,0,0,1,0-20.09c2.07-2.83,4.54-4.24,7.37-4.24Z" transform="translate(0.27 0)"/><path class="cls-9" d="M69,139.48H12.7c-2.83,0-5.3,1.41-7.37,4.24a17.8,17.8,0,0,0,0,20.09L21.2,185.46,39.87,211l38.74,52.87q3.11,4.24,7.35,4.24t7.37-4.24l73.26-100a17.77,17.77,0,0,0,0-20.09c-2.07-2.83-4.53-4.24-7.36-4.24H69Z" transform="translate(0.27 0)"/></svg>