<svg id="Layer_1" data-name="Layer 1" xmlns="http://www.w3.org/2000/svg" viewBox="0 0 173 277.06"><defs><style>.cls-1{fill:#687787;}.cls-2{fill:#f3f3f3;}.cls-3{fill:#62a3b2;}.cls-4{fill:#303030;}.cls-5{fill:#151516;}.cls-6{fill:#5994a3;}.cls-7{fill:#e0e0df;}.cls-8{fill:none;stroke:#687787;stroke-miterlimit:10;stroke-width:5px;}</style></defs><title>parking</title><path class="cls-1" d="M100.5,24.7a42.2,42.2,0,0,0-59.68,0h0a2.46,2.46,0,1,0,3.48,3.48h0a37.31,37.31,0,0,1,52.75,0,2.46,2.46,0,0,0,3.48-3.48Z" transform="translate(-1.5 0)"/><path class="cls-1" d="M90.36,34.87a27.87,27.87,0,0,0-39.36,0,2.47,2.47,0,1,0,3.52,3.48h0a23,23,0,0,1,32.41,0A2.46,2.46,0,0,0,90.57,35l-.17-.17h0Z" transform="translate(-1.5 0)"/><path class="cls-1" d="M80.35,44.87a13.71,13.71,0,0,0-19.35,0,2.48,2.48,0,0,0,3.52,3.49h0a8.78,8.78,0,0,1,12.4,0,2.46,2.46,0,0,0,3.48-3.49Z" transform="translate(-1.5 0)"/><path class="cls-2" d="M155.64,23.47v.25c0,6.89-4.32,9.54-9.87,9.54h-4.7V43c0,1.14-1.36,1.72-2.74,1.72s-2.73-.58-2.73-1.72V15.62a1.85,1.85,0,0,1,2-1.62h8.45C151.44,14,155.64,16.59,155.64,23.47Zm-5.46.65v-.49c0-3.27-1.68-4.83-4.41-4.83h-4.7V29h4.7c2.73,0,4.41-1.55,4.41-4.83Z" transform="translate(-1.5 0)"/><path class="cls-2" d="M121.17,97.82l-52.8.05V79.77H86.66A24.79,24.79,0,0,1,100.59,84l16.3,11c1.13.76,2.31,1.48,3.51,2.14A2.39,2.39,0,0,1,121.17,97.82Z" transform="translate(-1.5 0)"/><path class="cls-2" d="M63.44,79.83v18.1H55.25a2.47,2.47,0,0,0-2.62,2.31H41.45a2.48,2.48,0,0,0-2.31-2.31H28.86a1.48,1.48,0,0,1-1.5-1.46h0a1.49,1.49,0,0,1,.81-1.34,44,44,0,0,0,11-8,24.78,24.78,0,0,1,17.57-7.25Z" transform="translate(-1.5 0)"/><path class="cls-3" d="M150.18,24.13c0,3.28-1.68,4.83-4.41,4.83h-4.7V18.81h4.7c2.73,0,4.41,1.56,4.41,4.83Z" transform="translate(-1.5 0)"/><path class="cls-1" d="M174.5,112.12v12.79a9.15,9.15,0,0,1-9.14,9.14h-4.67a16.34,16.34,0,0,1-31.46,0H47.38A16.34,16.34,0,0,1,15.6,132.7l-9.82-4.36a7.22,7.22,0,0,1-4.28-6.59V97.88a11.49,11.49,0,0,1,9.08-11.14L14.12,86a32.3,32.3,0,0,0,16.24-8.76A37.17,37.17,0,0,1,56.74,66.35H86.63a37.24,37.24,0,0,1,20.92,6.4l16.3,11c2.92,2,7.32,4.7,11.83,5.6L139,90V60.26H120.28a6.16,6.16,0,0,1-6.15-6.14V40.35a1.61,1.61,0,0,1,0-.31,2.47,2.47,0,1,1,4.93.26V54.12a1.22,1.22,0,0,0,1.22,1.22h48a1.22,1.22,0,0,0,1.22-1.22h0v-48a1.23,1.23,0,0,0-1.19-1.22h-48a1.22,1.22,0,0,0-1.22,1.22h0V24.33a2.47,2.47,0,0,1-4.93,0V6.15A6.17,6.17,0,0,1,120.31,0h48a6.15,6.15,0,0,1,6.19,6.11h0v48a6.15,6.15,0,0,1-6.19,6.11H151.84V92.47l6.37,1.27a20.35,20.35,0,0,1,13.39,9.41l.77,1.29A14.84,14.84,0,0,1,174.5,112.12Zm-4.93,12.79v-12.8a9.86,9.86,0,0,0-1.42-5.1l-.78-1.29a15.37,15.37,0,0,0-10.12-7.12l-22.5-4.47c-5.39-1.07-10.36-4.13-13.63-6.34l-16.3-11q-.69-.47-1.41-.9a32.23,32.23,0,0,0-16.75-4.66H56.8a32.24,32.24,0,0,0-22.9,9.46,37.3,37.3,0,0,1-18.71,10.1l-3.54.74a6.51,6.51,0,0,0-5.16,6.35v23.86a2.29,2.29,0,0,0,1.36,2.09l7.68,3.41a16.19,16.19,0,0,1,1.7-5.24c.12-.22.24-.45.37-.67.27-.45.55-.89.86-1.31l.11-.14.35-.46c0-.06.11-.12.16-.19a4.59,4.59,0,0,1,.36-.41l.15-.17c.17-.19.34-.38.53-.56a16.43,16.43,0,0,1,23.12,0l.57.6.08.1c.16.17.31.35.46.53a16.17,16.17,0,0,1,3.65,9.8h80.68a16.21,16.21,0,0,1,3.63-9.79h0l.44-.51.11-.13.48-.51a.3.3,0,0,0,.08-.08,16.24,16.24,0,0,1,8.35-4.48,17.39,17.39,0,0,1,3.22-.31,16.26,16.26,0,0,1,11.57,4.79l.08.08c.16.17.33.34.48.51l.11.13.44.51v.06a16,16,0,0,1,3.63,9.78h4.06a4.23,4.23,0,0,0,4.21-4.25ZM153,137.69a11.44,11.44,0,0,0,1.49-14.32v-.07c-.08-.13-.17-.25-.26-.38a1,1,0,0,0-.13-.16l-.22-.3-.22-.25-.18-.21c-.14-.15-.28-.31-.43-.46a11.44,11.44,0,0,0-16.15,0c-.15.15-.29.31-.43.46l-.27.2-.2.27-.23.3-.13.16-.26.38v.07A11.42,11.42,0,0,0,153,137.69Zm-6.12-46.16V60.26h-3V90.94ZM39.72,137.69a11.44,11.44,0,0,0,1.35-14.29v-.07c-.08-.13-.17-.25-.26-.38a1,1,0,0,0-.13-.16l-.22-.3-.22-.25-.18-.21c-.13-.15-.28-.31-.43-.46l-.42-.4-.07-.06-.37-.32a11.42,11.42,0,0,0-14.37,0l-.35.3-.09.08-.34.33-.08.07-.39.41a1.15,1.15,0,0,0-.14.17l-.25.29-.17.21-.2.27-.17.24-.16.25-.18.28-.12.21-.18.32-.09.17c-.06.13-.18.25-.18.38a.17.17,0,0,0,0,.1,11.42,11.42,0,0,0,18.46,12.82Z" transform="translate(-1.5 0)"/><path class="cls-4" d="M169.57,112.11v12.8a4.23,4.23,0,0,1-4.21,4.21H161.3a16,16,0,0,0-3.63-9.78v-.06l-.44-.51-.11-.13c-.15-.17-.32-.34-.48-.51l-.08-.08A16.27,16.27,0,0,0,145,113.26a17.39,17.39,0,0,0-3.22.31,16.24,16.24,0,0,0-8.35,4.48.3.3,0,0,1-.08.08l-.48.51-.11.13-.44.51h0a16.21,16.21,0,0,0-3.63,9.79H48a16.17,16.17,0,0,0-3.65-9.8c-.15-.18-.3-.36-.46-.53l-.08-.1-.57-.6a16.86,16.86,0,0,0-1.69-1.46h0l18.71-13.71h62.57a3.69,3.69,0,0,0,3.67-3.67,7.17,7.17,0,0,0-3.72-6.32c-1.07-.58-2.12-1.23-3.13-1.91l-16.3-11a29.29,29.29,0,0,0-4.72-2.6l4.78-1.47q.72.43,1.41.9l16.3,11c3.27,2.21,8.24,5.27,13.63,6.34l22.5,4.47a15.37,15.37,0,0,1,10.12,7.12l.78,1.29A9.85,9.85,0,0,1,169.57,112.11Zm-92.45-2.94a2.46,2.46,0,0,0-2.29-2.62h-8a2.47,2.47,0,0,0,0,4.93H74.5A2.47,2.47,0,0,0,77.12,109.17Z" transform="translate(-1.5 0)"/><path class="cls-3" d="M169.5,6.12v48a1.22,1.22,0,0,1-1.22,1.22h-48a1.22,1.22,0,0,1-1.22-1.22V40.35a2.47,2.47,0,0,0-2.31-2.62V26.64a2.48,2.48,0,0,0,2.31-2.31V6.12a1.22,1.22,0,0,1,1.22-1.22h48A1.24,1.24,0,0,1,169.5,6.12ZM155.64,23.73v-.26c0-6.89-4.2-9.48-9.53-9.48h-8.45a1.85,1.85,0,0,0-2,1.62V43c0,1.14,1.35,1.72,2.73,1.72s2.74-.58,2.74-1.72V33.27h4.7C151.32,33.27,155.64,30.62,155.64,23.73Z" transform="translate(-1.5 0)"/><path class="cls-4" d="M154.52,123.37a11.42,11.42,0,1,1-19.12,0v-.07l.26-.38.13-.16.23-.3.21-.25.27-.2c.14-.15.28-.31.43-.46a11.44,11.44,0,0,1,16.15,0c.15.15.29.31.43.46l.18.21.22.25.22.3a1,1,0,0,1,.13.16c.09.13.18.25.26.38Zm-2.08,6.24a7.48,7.48,0,1,0-2.19,5.29A7.48,7.48,0,0,0,152.44,129.61Z" transform="translate(-1.5 0)"/><path class="cls-1" d="M150.25,124.32a7.48,7.48,0,1,1-10.58,0A7.48,7.48,0,0,1,150.25,124.32Zm-3.49,7.1a2.56,2.56,0,1,0-3.62,0h0a2.56,2.56,0,0,0,3.61.05Z" transform="translate(-1.5 0)"/><circle class="cls-5" cx="143.45" cy="129.61" r="2.56"/><path class="cls-1" d="M122.78,92.87a7.17,7.17,0,0,1,3.72,6.32,3.69,3.69,0,0,1-3.67,3.67H55.25a1.61,1.61,0,0,1-.31,0,2.47,2.47,0,1,1,.26-4.93h8.24V79.83h-6.7a24.78,24.78,0,0,0-17.57,7.25,44,44,0,0,1-11,8,1.5,1.5,0,0,0-.81,1.39,1.48,1.48,0,0,0,1.5,1.46H39.14a2.47,2.47,0,0,1,0,4.93H28.94a6.41,6.41,0,0,1-3-12.1,40.19,40.19,0,0,0,9.8-7.17,29.64,29.64,0,0,1,21-8.69H86.66a29.68,29.68,0,0,1,12,2.51,29.29,29.29,0,0,1,4.72,2.6l16.3,11C120.66,91.64,121.71,92.29,122.78,92.87Zm-54.41,5,52.8-.05a2.39,2.39,0,0,0-.77-.68c-1.2-.66-2.38-1.38-3.51-2.14l-16.3-11a24.79,24.79,0,0,0-13.93-4.23H68.37Z" transform="translate(-1.5 0)"/><path class="cls-5" d="M103.41,75.89l-4.78,1.47a29.68,29.68,0,0,0-12-2.51H56.74a29.64,29.64,0,0,0-21,8.69,40.19,40.19,0,0,1-9.8,7.17,6.41,6.41,0,0,0,3,12.1h10.2a2.48,2.48,0,0,0,2.31-2.62H52.63a2.46,2.46,0,0,0,2.29,2.62h5.33l-18.7,13.81h0a16.35,16.35,0,0,0-21.43,1.46c-.19.18-.36.37-.53.56l-.15.17a4.59,4.59,0,0,0-.36.41c0,.07-.11.13-.16.19l-.35.46-.11.14c-.31.42-.59.86-.86,1.31-.13.22-.25.45-.37.67a16.19,16.19,0,0,0-1.7,5.24l-7.68-3.41a2.29,2.29,0,0,1-1.36-2.09V97.88a6.51,6.51,0,0,1,5.16-6.35l3.54-.74A37.3,37.3,0,0,0,33.9,80.69a32.24,32.24,0,0,1,22.9-9.46H86.66A32.23,32.23,0,0,1,103.41,75.89Z" transform="translate(-1.5 0)"/><path class="cls-1" d="M74.81,106.55a2.47,2.47,0,0,1-.31,4.92H66.86a2.47,2.47,0,0,1,0-4.93H74.5A1.61,1.61,0,0,1,74.81,106.55Z" transform="translate(-1.5 0)"/><path class="cls-4" d="M41.07,123.4a11.36,11.36,0,1,1-19.81,1.47.17.17,0,0,1,0-.1c0-.13.12-.25.18-.38l.09-.17.18-.32.12-.21.18-.28.16-.25.17-.24.2-.27.17-.21.25-.29a1.15,1.15,0,0,1,.14-.17l.39-.41.08-.07.34-.33.09-.08.35-.3a11.42,11.42,0,0,1,14.37,0l.37.32.07.06.42.4c.15.15.3.31.43.46l.18.21.22.25.22.3a1,1,0,0,1,.13.16c.09.13.18.25.26.38Zm-4.13,11.5A7.44,7.44,0,0,0,37,124.38l-.06-.06a7.48,7.48,0,1,0,0,10.58Z" transform="translate(-1.5 0)"/><path class="cls-1" d="M37,124.38a7.52,7.52,0,1,1-.06-.06Zm-3.5,7a2.56,2.56,0,1,0-3.62,0h0a2.55,2.55,0,0,0,3.61,0h0Z" transform="translate(-1.5 0)"/><path class="cls-5" d="M33.5,127.8a2.56,2.56,0,1,1-3.62,0h0a2.55,2.55,0,0,1,3.61,0Z" transform="translate(-1.5 0)"/><polygon class="cls-6" points="117.52 145.97 117.52 146.16 40.44 217.44 21.76 191.96 21.79 191.94 69.56 145.97 117.52 145.97"/><path class="cls-7" d="M71.06,146l-47.77,46,0,0L7.4,170.31a17.82,17.82,0,0,1,0-20.1c2.07-2.82,4.53-4.24,7.37-4.24Z" transform="translate(-1.5 0)"/><path class="cls-3" d="M168.66,170.31l-73.26,100c-2.08,2.82-4.54,4.24-7.37,4.24s-5.28-1.42-7.35-4.24L41.94,217.44,119,146.16V146H161.3c2.83,0,5.28,1.42,7.36,4.24A17.82,17.82,0,0,1,168.66,170.31Z" transform="translate(-1.5 0)"/><path class="cls-8" d="M71.06,146H14.77c-2.84,0-5.3,1.42-7.37,4.24a17.82,17.82,0,0,0,0,20.1L23.26,192l18.68,25.48,38.74,52.88c2.07,2.82,4.52,4.24,7.35,4.24s5.29-1.42,7.37-4.24l73.26-100a17.82,17.82,0,0,0,0-20.1c-2.08-2.82-4.53-4.24-7.36-4.24H71.06Z" transform="translate(-1.5 0)"/></svg>